STARTFONT 2.1
COMMENT This font was automatically resized by bdfresize-1.4
COMMENT   mag_x = 2/5, mag_y = 2/5, blackness = 4
FONT -CBS-Song-Medium-R-Normal-Fantizi-16-160-75-75-C-160-CNS11643.1992-4
SIZE 16 80 80
FONTBOUNDINGBOX 16 16 0 -2
STARTPROPERTIES 23
FONTNAME_REGISTRY ""
FOUNDRY "CBS"
FAMILY_NAME "Song"
WEIGHT_NAME "Medium"
SLANT "R"
SETWIDTH_NAME "Normal"
ADD_STYLE_NAME "Fantizi"
PIXEL_SIZE 16
POINT_SIZE 160
RESOLUTION_X 75
RESOLUTION_Y 75
SPACING "C"
AVERAGE_WIDTH 160
CHARSET_REGISTRY "CNS11643.1992"
CHARSET_ENCODING "4"
COPYRIGHT "March 1994 by Central Bureau of Standards, Ministry of Economy, ROC"
WEIGHT 19329
RESOLUTION 110
X_HEIGHT 34
QUAD_WIDTH 40
DEFAULT_CHAR 32382
FONT_ASCENT 14
FONT_DESCENT 2
ENDPROPERTIES
CHARS 7299
STARTCHAR 2121
ENCODING 8481
SWIDTH 362 0
DWIDTH 16 0
BBX 16 16 0 -2
BITMAP
001E
07F0
7800
6000
6000
6000
6000
6000
6000
6000
6000
6000
4000
4000
C000
8000
ENDCHAR
STARTCHAR 2122
ENCODING 8482
SWIDTH 362 0
DWIDTH 16 0
BBX 16 16 0 -2
BITMAP
0300
0F00
3900
F100
4180
0180
0180
0080
00C0
00C0
0060
0030
0038
001C
000F
0007
ENDCHAR
STARTCHAR 2123
ENCODING 8483
SWIDTH 362 0
DWIDTH 16 0
BBX 16 16 0 -2
BITMAP
0100
FF80
0100
0100
0100
0180
0180
0080
00C0
00C0
0060
0030
0038
001C
000F
0007
ENDCHAR
STARTCHAR 2124
ENCODING 8484
SWIDTH 362 0
DWIDTH 16 0
BBX 16 16 0 -2
BITMAP
1800
1800
1800
1800
1800
1800
1800
1800
1800
1800
1800
1802
1806
1804
1FFE
0FFC
ENDCHAR
STARTCHAR 2125
ENCODING 8485
SWIDTH 362 0
DWIDTH 16 0
BBX 16 16 0 -2
BITMAP
0060
00C0
00C0
0180
0100
0200
0400
0C00
0600
0300
0180
0080
00C0
00C0
0060
0060
ENDCHAR
STARTCHAR 2126
ENCODING 8486
SWIDTH 362 0
DWIDTH 16 0
BBX 16 16 0 -2
BITMAP
0002
FFFF
0C00
0C00
1800
1FFC
100C
000C
000C
000C
0008
0018
0018
0030
03F0
00E0
ENDCHAR
STARTCHAR 2127
ENCODING 8487
SWIDTH 362 0
DWIDTH 16 0
BBX 16 16 0 -2
BITMAP
0018
1818
1818
1818
1818
1818
1818
1818
1818
1818
1FF8
0018
0018
0018
0018
0010
ENDCHAR
STARTCHAR 2128
ENCODING 8488
SWIDTH 362 0
DWIDTH 16 0
BBX 16 16 0 -2
BITMAP
0060
7FE0
0060
0040
00C0
00FE
0086
0006
0006
0006
0006
0006
0006
0004
007C
0018
ENDCHAR
STARTCHAR 2129
ENCODING 8489
SWIDTH 362 0
DWIDTH 16 0
BBX 16 16 0 -2
BITMAP
0810
1FF8
1810
1810
1810
1810
1810
1810
1810
1810
1810
1010
3010
3010
601F
C01F
ENDCHAR
STARTCHAR 212a
ENCODING 8490
SWIDTH 362 0
DWIDTH 16 0
BBX 16 16 0 -2
BITMAP
0030
0030
0C30
0C30
0C30
0C30
0C30
0C30
0C30
0C30
0C30
0C30
0030
0030
01F0
0060
ENDCHAR
STARTCHAR 212b
ENCODING 8491
SWIDTH 362 0
DWIDTH 16 0
BBX 16 16 0 -2
BITMAP
0000
3FF8
2018
2018
2018
2018
2018
2018
2018
20F8
2010
2000
2002
2004
3FFC
1FFC
ENDCHAR
STARTCHAR 212c
ENCODING 8492
SWIDTH 362 0
DWIDTH 16 0
BBX 16 16 0 -2
BITMAP
030C
070C
0608
0C18
0C30
1860
30C0
6180
30C0
1860
0C30
0418
060C
030C
030C
0304
ENDCHAR
STARTCHAR 212d
ENCODING 8493
SWIDTH 362 0
DWIDTH 16 0
BBX 16 16 0 -2
BITMAP
4006
7FFE
6006
6006
6006
6006
6016
7FFE
6006
6006
6006
6006
6006
6006
601E
400C
ENDCHAR
STARTCHAR 212e
ENCODING 8494
SWIDTH 362 0
DWIDTH 16 0
BBX 16 16 0 -2
BITMAP
4002
6006
6006
6006
6006
6006
601E
7FFE
6006
6006
6006
6006
6006
6006
6006
4006
ENDCHAR
STARTCHAR 212f
ENCODING 8495
SWIDTH 362 0
DWIDTH 16 0
BBX 16 16 0 -2
BITMAP
1800
1800
1006
3FFE
2006
6006
C006
0026
1FF6
0006
0006
0006
0006
0006
00FC
0018
ENDCHAR
STARTCHAR 2130
ENCODING 8496
SWIDTH 362 0
DWIDTH 16 0
BBX 16 16 0 -2
BITMAP
0010
7FF8
0418
0618
0418
0418
0458
FFF9
0419
041F
040E
0400
0400
0400
0400
0400
ENDCHAR
STARTCHAR 2131
ENCODING 8497
SWIDTH 362 0
DWIDTH 16 0
BBX 16 16 0 -2
BITMAP
0808
1FFC
1808
1B08
1988
18C8
18C8
1848
1808
1808
18F8
1818
1800
1800
1800
1800
ENDCHAR
STARTCHAR 2132
ENCODING 8498
SWIDTH 362 0
DWIDTH 16 0
BBX 16 16 0 -2
BITMAP
0008
7FFC
0038
0060
0180
0180
0180
0183
01FF
0180
0180
0180
0180
0180
0F80
0300
ENDCHAR
STARTCHAR 2133
ENCODING 8499
SWIDTH 362 0
DWIDTH 16 0
BBX 16 16 0 -2
BITMAP
0004
3FFE
0018
0030
00C0
0080
0080
0080
0F80
F080
C080
0080
0080
0080
0780
0180
ENDCHAR
STARTCHAR 2134
ENCODING 8500
SWIDTH 362 0
DWIDTH 16 0
BBX 16 16 0 -2
BITMAP
0180
0100
0100
0102
7FFF
01C0
03C0
03C0
03C0
02C0
06C0
04C0
0CC1
18C1
30FF
C07F
ENDCHAR
STARTCHAR 2135
ENCODING 8501
SWIDTH 362 0
DWIDTH 16 0
BBX 16 16 0 -2
BITMAP
0180
4184
6186
6186
6186
6186
6186
6186
7FFE
0104
0300
0300
0600
0C00
1800
7000
ENDCHAR
STARTCHAR 2136
ENCODING 8502
SWIDTH 362 0
DWIDTH 16 0
BBX 16 16 0 -2
BITMAP
0180
0180
0180
01A0
09B0
0998
1998
1988
0180
0180
0180
0180
0180
0180
0180
0100
ENDCHAR
STARTCHAR 2137
ENCODING 8503
SWIDTH 362 0
DWIDTH 16 0
BBX 16 16 0 -2
BITMAP
0180
0180
0180
0184
7FFE
0180
0180
01F8
07C0
7D80
2180
0180
0180
0180
0F80
0300
ENDCHAR
STARTCHAR 2138
ENCODING 8504
SWIDTH 362 0
DWIDTH 16 0
BBX 16 16 0 -2
BITMAP
0030
0E30
03E0
01C0
0660
1C20
0070
00F0
0190
0310
0C10
7010
0030
0030
07E0
00C0
ENDCHAR
STARTCHAR 2139
ENCODING 8505
SWIDTH 362 0
DWIDTH 16 0
BBX 16 16 0 -2
BITMAP
0006
7FFE
0306
1306
0F06
0706
0306
0386
06C6
0406
0C06
180C
307C
C018
0002
FFFF
ENDCHAR
STARTCHAR 213a
ENCODING 8506
SWIDTH 362 0
DWIDTH 16 0
BBX 16 16 0 -2
BITMAP
0180
0190
01F8
07C0
1980
0188
01FC
07C0
1980
0188
01FC
07C0
3980
0180
0180
0100
ENDCHAR
STARTCHAR 213b
ENCODING 8507
SWIDTH 362 0
DWIDTH 16 0
BBX 16 16 0 -2
BITMAP
0008
1FFC
0000
0000
0000
0000
7FFE
0000
0000
0008
1FF8
0000
0000
0000
0006
7FFE
ENDCHAR
STARTCHAR 213c
ENCODING 8508
SWIDTH 362 0
DWIDTH 16 0
BBX 16 16 0 -2
BITMAP
0180
0180
03C0
0660
0C30
199C
318F
C182
0184
7FFE
0180
0180
0180
0180
0180
0100
ENDCHAR
STARTCHAR 213d
ENCODING 8509
SWIDTH 362 0
DWIDTH 16 0
BBX 16 16 0 -2
BITMAP
0180
0180
0184
7FFE
6180
6180
6180
7FFE
3FFE
03C0
06C0
04C0
0CC1
18C1
30FF
C07F
ENDCHAR
STARTCHAR 213e
ENCODING 8510
SWIDTH 362 0
DWIDTH 16 0
BBX 16 16 0 -2
BITMAP
4006
7FFE
6006
6006
6006
7FFE
6006
6006
6006
601E
7FFE
6006
6006
6006
601E
400C
ENDCHAR
STARTCHAR 213f
ENCODING 8511
SWIDTH 362 0
DWIDTH 16 0
BBX 16 16 0 -2
BITMAP
0180
0180
0380
0260
0430
080C
3186
6183
0300
0380
06C0
0460
0C30
1818
300F
C006
ENDCHAR
STARTCHAR 2140
ENCODING 8512
SWIDTH 362 0
DWIDTH 16 0
BBX 16 16 0 -2
BITMAP
0003
7F83
119A
1192
1192
1192
1192
1192
1192
3192
3192
2192
2182
4182
CF1E
8206
ENDCHAR
STARTCHAR 2141
ENCODING 8513
SWIDTH 362 0
DWIDTH 16 0
BBX 16 16 0 -2
BITMAP
0202
FF7F
3333
3333
3333
3333
3333
3333
3333
2323
2323
6363
6363
4743
DEDE
8584
ENDCHAR
STARTCHAR 2142
ENCODING 8514
SWIDTH 362 0
DWIDTH 16 0
BBX 16 16 0 -2
BITMAP
3000
3000
300C
3000
2000
3000
3FFE
01C0
0180
0180
FFFF
0180
0180
0180
0180
0100
ENDCHAR
STARTCHAR 2143
ENCODING 8515
SWIDTH 362 0
DWIDTH 16 0
BBX 16 16 0 -2
BITMAP
8282
FFFF
C2C2
C2C2
C2C2
C2C2
C2C2
C2C2
DEDE
C6C6
C0C0
C0C0
C2C1
DCC1
F0FF
407F
ENDCHAR
STARTCHAR 2144
ENCODING 8516
SWIDTH 362 0
DWIDTH 16 0
BBX 16 16 0 -2
BITMAP
0600
0FF0
1830
3022
7FFF
3000
3000
3000
3000
3000
3000
2000
2000
6000
4000
8000
ENDCHAR
STARTCHAR 2145
ENCODING 8517
SWIDTH 362 0
DWIDTH 16 0
BBX 16 16 0 -2
BITMAP
0000
1818
1818
1818
1010
1010
3030
3030
2020
2424
6466
4242
C3C3
FFFF
E3E1
0000
ENDCHAR
STARTCHAR 2146
ENCODING 8518
SWIDTH 362 0
DWIDTH 16 0
BBX 16 16 0 -2
BITMAP
00C0
00C0
4CC0
4CC0
44C0
44C0
44C0
44C0
44C0
44C0
4CC0
4CC0
40C1
00C1
00FF
007F
ENDCHAR
STARTCHAR 2147
ENCODING 8519
SWIDTH 362 0
DWIDTH 16 0
BBX 16 16 0 -2
BITMAP
0000
FFFF
0000
0000
0000
6004
7FFE
6006
6006
6006
6006
6006
6006
6006
7FFE
2000
ENDCHAR
STARTCHAR 2148
ENCODING 8520
SWIDTH 362 0
DWIDTH 16 0
BBX 16 16 0 -2
BITMAP
0000
00FC
1FC0
0180
0180
0180
0180
0184
7FFE
0180
0180
0180
0180
0180
0183
0000
ENDCHAR
STARTCHAR 2149
ENCODING 8521
SWIDTH 362 0
DWIDTH 16 0
BBX 16 16 0 -2
BITMAP
3000
3000
2000
2000
3180
2180
0180
0180
FFFF
0180
0340
0360
0630
0C18
300F
E003
ENDCHAR
STARTCHAR 214a
ENCODING 8522
SWIDTH 362 0
DWIDTH 16 0
BBX 16 16 0 -2
BITMAP
0040
0620
0C30
0818
100E
2027
CFF0
0830
0820
0820
0820
1820
1820
3021
603F
C01F
ENDCHAR
STARTCHAR 214b
ENCODING 8523
SWIDTH 362 0
DWIDTH 16 0
BBX 16 16 0 -2
BITMAP
0040
0620
0C30
0818
100E
2007
CC30
0C30
0820
0820
0820
1820
1820
3021
603F
C01F
ENDCHAR
STARTCHAR 214c
ENCODING 8524
SWIDTH 362 0
DWIDTH 16 0
BBX 16 16 0 -2
BITMAP
003C
1FE0
7180
0180
4184
7FFE
6186
6186
6186
6186
6186
6186
61BE
418C
0180
0100
ENDCHAR
STARTCHAR 214d
ENCODING 8525
SWIDTH 362 0
DWIDTH 16 0
BBX 16 16 0 -2
BITMAP
0006
7FFE
0C30
0C30
0C30
0C30
0C32
FFFF
0C30
0C30
0C30
0830
1830
3030
6030
C030
ENDCHAR
STARTCHAR 214e
ENCODING 8526
SWIDTH 362 0
DWIDTH 16 0
BBX 16 16 0 -2
BITMAP
0002
7FFF
0080
0180
0180
03C0
07E0
0DB0
1998
318E
6187
C183
0180
0180
0180
0100
ENDCHAR
STARTCHAR 214f
ENCODING 8527
SWIDTH 362 0
DWIDTH 16 0
BBX 16 16 0 -2
BITMAP
2004
33FE
100C
0018
8830
4860
78C0
1180
3100
3300
6200
E600
6601
6601
63FF
21FF
ENDCHAR
STARTCHAR 2150
ENCODING 8528
SWIDTH 362 0
DWIDTH 16 0
BBX 16 16 0 -2
BITMAP
0000
0000
0000
0000
0000
0000
0004
4442
4623
C221
8001
0000
0000
0000
0000
0000
ENDCHAR
STARTCHAR 2151
ENCODING 8529
SWIDTH 362 0
DWIDTH 16 0
BBX 16 16 0 -2
BITMAP
0000
0000
0000
003C
0FFC
0000
310C
3186
60C2
C0C2
0000
0000
0000
0000
0000
0000
ENDCHAR
STARTCHAR 2152
ENCODING 8530
SWIDTH 362 0
DWIDTH 16 0
BBX 16 16 0 -2
BITMAP
4006
7FFE
6006
601E
6836
6636
6366
61C6
60C6
61E6
6336
661E
780E
6006
601E
400C
ENDCHAR
STARTCHAR 2153
ENCODING 8531
SWIDTH 362 0
DWIDTH 16 0
BBX 16 16 0 -2
BITMAP
0000
0000
0000
0000
1818
1818
1A18
FE7F
1818
1818
1010
0000
0000
0000
0000
0000
ENDCHAR
STARTCHAR 2154
ENCODING 8532
SWIDTH 362 0
DWIDTH 16 0
BBX 16 16 0 -2
BITMAP
0000
4000
3000
1000
0000
3000
F800
3000
7800
7800
1800
3000
3000
7800
CFFF
01FC
ENDCHAR
STARTCHAR 2155
ENCODING 8533
SWIDTH 362 0
DWIDTH 16 0
BBX 16 16 0 -2
BITMAP
181C
1198
1198
1198
1198
1198
FFFF
1198
1198
1198
1198
1198
1198
1118
1018
FFFF
ENDCHAR
STARTCHAR 2156
ENCODING 8534
SWIDTH 362 0
DWIDTH 16 0
BBX 16 16 0 -2
BITMAP
300C
1818
1C30
F66F
C3C3
0180
0180
0180
0180
0180
0180
0180
0180
0180
0180
0100
ENDCHAR
STARTCHAR 2157
ENCODING 8535
SWIDTH 362 0
DWIDTH 16 0
BBX 16 16 0 -2
BITMAP
1800
1000
3FFC
3180
6180
D980
118C
7F8C
118C
1188
1198
1190
1002
1002
1FFE
1FFE
ENDCHAR
STARTCHAR 2158
ENCODING 8536
SWIDTH 362 0
DWIDTH 16 0
BBX 16 16 0 -2
BITMAP
1820
3033
37FF
2600
6600
6600
E600
E600
6600
6600
6600
6600
6600
6400
6C00
6800
ENDCHAR
STARTCHAR 2159
ENCODING 8537
SWIDTH 362 0
DWIDTH 16 0
BBX 16 16 0 -2
BITMAP
1C00
1BFF
1B03
3302
3302
7302
7302
B302
3302
3302
3302
3302
3302
3302
33FE
3200
ENDCHAR
STARTCHAR 215a
ENCODING 8538
SWIDTH 362 0
DWIDTH 16 0
BBX 16 16 0 -2
BITMAP
1D80
1980
1900
33FF
3303
7203
7403
B0C3
3063
3023
3003
3003
3003
3006
307E
300C
ENDCHAR
STARTCHAR 215b
ENCODING 8539
SWIDTH 362 0
DWIDTH 16 0
BBX 16 16 0 -2
BITMAP
1C0C
183E
19E0
30C0
30C0
70C0
70C2
B7FF
30C0
30C0
30C0
30C0
30C1
30C1
30FF
307F
ENDCHAR
STARTCHAR 215c
ENCODING 8540
SWIDTH 362 0
DWIDTH 16 0
BBX 16 16 0 -2
BITMAP
0180
0100
0104
01FC
0100
0100
0102
FFFF
0000
0C60
0C60
0C60
0860
1861
307F
C03F
ENDCHAR
STARTCHAR 215d
ENCODING 8541
SWIDTH 362 0
DWIDTH 16 0
BBX 16 16 0 -2
BITMAP
0002
7FFF
0000
200C
3FFE
2004
2004
2FF4
2004
2004
FFFF
2004
2004
2004
203C
2008
ENDCHAR
STARTCHAR 215e
ENCODING 8542
SWIDTH 362 0
DWIDTH 16 0
BBX 16 16 0 -2
BITMAP
0100
0300
0303
0660
0430
0C18
180C
3307
E1C3
0060
0000
0000
0038
07C0
1E00
0800
ENDCHAR
STARTCHAR 215f
ENCODING 8543
SWIDTH 362 0
DWIDTH 16 0
BBX 16 16 0 -2
BITMAP
2004
7FFE
6104
6184
6184
6DB4
69B4
69B4
69B4
69B4
69B4
69B4
69B4
4FF7
C003
8001
ENDCHAR
STARTCHAR 2160
ENCODING 8544
SWIDTH 362 0
DWIDTH 16 0
BBX 16 16 0 -2
BITMAP
4002
6186
4186
4186
4196
5FF6
4186
4186
4186
4186
4186
5FFE
4006
4006
C006
4006
ENDCHAR
STARTCHAR 2161
ENCODING 8545
SWIDTH 362 0
DWIDTH 16 0
BBX 16 16 0 -2
BITMAP
0003
0003
7F72
1862
1862
1862
1862
1862
1862
1862
1862
1F62
F002
4002
001E
0006
ENDCHAR
STARTCHAR 2162
ENCODING 8546
SWIDTH 362 0
DWIDTH 16 0
BBX 16 16 0 -2
BITMAP
0006
FF46
2466
2466
2466
2466
2466
2466
2466
2466
6446
641E
640C
4401
C7FF
87FF
ENDCHAR
STARTCHAR 2163
ENCODING 8547
SWIDTH 362 0
DWIDTH 16 0
BBX 16 16 0 -2
BITMAP
3018
3010
6010
7F10
C07F
8413
7E13
0C13
1813
3033
6033
C023
C163
C343
FFDE
018C
ENDCHAR
STARTCHAR 2164
ENCODING 8548
SWIDTH 362 0
DWIDTH 16 0
BBX 16 16 0 -2
BITMAP
0230
3F30
7830
1830
18FF
1933
FF33
1833
1833
1833
1823
1863
1863
18C3
189E
190C
ENDCHAR
STARTCHAR 2165
ENCODING 8549
SWIDTH 362 0
DWIDTH 16 0
BBX 16 16 0 -2
BITMAP
4002
7FFF
4300
4230
47F0
4420
4860
4060
40E0
40D0
4198
430C
4607
5802
C003
4000
ENDCHAR
STARTCHAR 2166
ENCODING 8550
SWIDTH 362 0
DWIDTH 16 0
BBX 16 16 0 -2
BITMAP
4002
7FFF
6000
6FFE
6040
6040
6040
6040
7FFF
6040
6040
4040
4040
C040
8040
8040
ENDCHAR
STARTCHAR 2167
ENCODING 8551
SWIDTH 362 0
DWIDTH 16 0
BBX 16 16 0 -2
BITMAP
4002
7FFF
600C
60FC
6F80
6080
6080
6082
7FFF
6080
6080
4080
4080
C081
80FF
807E
ENDCHAR
STARTCHAR 2168
ENCODING 8552
SWIDTH 362 0
DWIDTH 16 0
BBX 16 16 0 -2
BITMAP
0180
7186
6184
6184
7FFC
0190
1FF8
0810
0830
0460
0340
0180
03C0
0678
181F
E007
ENDCHAR
STARTCHAR 2169
ENCODING 8553
SWIDTH 362 0
DWIDTH 16 0
BBX 16 16 0 -2
BITMAP
0180
0188
3FFC
018C
0188
018B
FFFF
0190
1FF8
0C30
0630
0360
01C0
03E0
0C1F
F007
ENDCHAR
STARTCHAR 216a
ENCODING 8554
SWIDTH 362 0
DWIDTH 16 0
BBX 16 16 0 -2
BITMAP
01CC
018C
D988
CD88
C988
C988
C988
C988
C988
C988
C988
C988
C108
0309
020F
0407
ENDCHAR
STARTCHAR 216b
ENCODING 8555
SWIDTH 362 0
DWIDTH 16 0
BBX 16 16 0 -2
BITMAP
0040
0620
0C30
0C18
180C
3007
6003
C008
1FFC
1008
1008
1008
1008
1008
1FF8
1008
ENDCHAR
STARTCHAR 216c
ENCODING 8556
SWIDTH 362 0
DWIDTH 16 0
BBX 16 16 0 -2
BITMAP
1008
1FFC
100C
100C
100C
1FFC
0000
0004
7FFE
0306
0206
0606
0406
0804
307C
E018
ENDCHAR
STARTCHAR 216d
ENCODING 8557
SWIDTH 362 0
DWIDTH 16 0
BBX 16 16 0 -2
BITMAP
4006
7FFE
4106
4186
4106
4306
4306
4206
4606
4C26
4816
5FFE
5E1E
4006
7FFE
4002
ENDCHAR
STARTCHAR 216e
ENCODING 8558
SWIDTH 362 0
DWIDTH 16 0
BBX 16 16 0 -2
BITMAP
4006
7FFE
4006
4306
4106
4186
4186
41C6
4346
4266
4636
4C1E
580E
4006
7FFE
4002
ENDCHAR
STARTCHAR 216f
ENCODING 8559
SWIDTH 362 0
DWIDTH 16 0
BBX 16 16 0 -2
BITMAP
4006
7FFE
4006
4006
40C6
40C6
4046
4046
4046
4046
40C6
40C6
4006
4006
7FFE
4002
ENDCHAR
STARTCHAR 2170
ENCODING 8560
SWIDTH 362 0
DWIDTH 16 0
BBX 16 16 0 -2
BITMAP
0180
0180
0184
3FFC
0180
0180
0182
FFFF
0460
0460
0C60
0C60
0861
1861
307F
C03F
ENDCHAR
STARTCHAR 2171
ENCODING 8561
SWIDTH 362 0
DWIDTH 16 0
BBX 16 16 0 -2
BITMAP
4002
7FFF
60C0
60C0
60C0
60C0
60C6
60C0
60C0
60C0
60C0
40C0
40C0
C0C0
BFFF
8000
ENDCHAR
STARTCHAR 2172
ENCODING 8562
SWIDTH 362 0
DWIDTH 16 0
BBX 16 16 0 -2
BITMAP
0180
0100
0302
7FFF
0620
0C10
180C
3007
6003
DFF8
0000
0000
0000
0000
0006
0000
ENDCHAR
STARTCHAR 2173
ENCODING 8563
SWIDTH 362 0
DWIDTH 16 0
BBX 16 16 0 -2
BITMAP
1800
1000
3000
3FFF
2080
6080
C080
1880
1888
1084
3086
2083
4083
0080
0780
0180
ENDCHAR
STARTCHAR 2174
ENCODING 8564
SWIDTH 362 0
DWIDTH 16 0
BBX 16 16 0 -2
BITMAP
4006
7FFE
6006
6006
6006
6006
6000
6004
6FFE
6000
4000
4000
C000
C000
8003
0000
ENDCHAR
STARTCHAR 2175
ENCODING 8565
SWIDTH 362 0
DWIDTH 16 0
BBX 16 16 0 -2
BITMAP
080C
0C18
0610
0224
3FFE
3006
3006
3006
3006
3004
3000
3000
2000
6000
4000
8000
ENDCHAR
STARTCHAR 2176
ENCODING 8566
SWIDTH 362 0
DWIDTH 16 0
BBX 16 16 0 -2
BITMAP
01C0
7187
6186
6186
7FFE
4000
7FFF
6000
6000
6000
6000
4000
4000
4000
8000
8000
ENDCHAR
STARTCHAR 2177
ENCODING 8567
SWIDTH 362 0
DWIDTH 16 0
BBX 16 16 0 -2
BITMAP
1800
10FC
14C4
FEC4
D6C4
D6C4
D6C4
D6C4
D6C4
D6C4
D6C4
DC84
1084
1185
1107
1207
ENDCHAR
STARTCHAR 2178
ENCODING 8568
SWIDTH 362 0
DWIDTH 16 0
BBX 16 16 0 -2
BITMAP
1018
0830
0C20
7FFE
0180
0180
0180
0180
0183
0180
0180
0180
0180
0180
0180
0100
ENDCHAR
STARTCHAR 2179
ENCODING 8569
SWIDTH 362 0
DWIDTH 16 0
BBX 16 16 0 -2
BITMAP
1800
19FF
3183
2182
4D82
0982
1982
3182
3182
719E
9184
1180
1180
1181
11FF
10FF
ENDCHAR
STARTCHAR 217a
ENCODING 8570
SWIDTH 362 0
DWIDTH 16 0
BBX 16 16 0 -2
BITMAP
1902
1183
1182
1582
FD82
1182
1182
1D82
7982
F182
1182
1182
1182
1182
F1FE
2002
ENDCHAR
STARTCHAR 217b
ENCODING 8571
SWIDTH 362 0
DWIDTH 16 0
BBX 16 16 0 -2
BITMAP
1803
11C3
1182
1582
FD82
1182
1182
1D82
7982
F182
11FE
1002
1002
1002
F002
2002
ENDCHAR
STARTCHAR 217c
ENCODING 8572
SWIDTH 362 0
DWIDTH 16 0
BBX 16 16 0 -2
BITMAP
2004
7FFE
6004
6004
600C
618C
6184
6184
7FFC
6184
0180
0180
0180
0180
0180
0100
ENDCHAR
STARTCHAR 217d
ENCODING 8573
SWIDTH 362 0
DWIDTH 16 0
BBX 16 16 0 -2
BITMAP
0180
6186
6186
6186
6186
4384
0380
07C0
05A0
0D90
1988
3187
6183
C180
0180
0100
ENDCHAR
STARTCHAR 217e
ENCODING 8574
SWIDTH 362 0
DWIDTH 16 0
BBX 16 16 0 -2
BITMAP
001E
01F0
0180
0180
0180
7FFF
0380
03C0
07C0
05A0
0DB0
199C
318F
6183
8180
0100
ENDCHAR
STARTCHAR 2221
ENCODING 8737
SWIDTH 362 0
DWIDTH 16 0
BBX 16 16 0 -2
BITMAP
0000
4006
7FFE
4666
4666
4666
4666
4666
4666
4666
4666
4666
4666
7FFE
4000
0000
ENDCHAR
STARTCHAR 2222
ENCODING 8738
SWIDTH 362 0
DWIDTH 16 0
BBX 16 16 0 -2
BITMAP
8800
FDFC
C98C
D98C
D18C
D18C
D98C
C98C
CD8C
CD8C
CD8C
FD0C
D90C
C30D
C20F
C407
ENDCHAR
STARTCHAR 2223
ENCODING 8739
SWIDTH 362 0
DWIDTH 16 0
BBX 16 16 0 -2
BITMAP
88C0
FCC0
C8C0
D8C0
D3FC
D0CC
D8CC
C8CC
CCCC
CCCC
CC8C
FD8C
D90C
C30D
C60F
CC07
ENDCHAR
STARTCHAR 2224
ENCODING 8740
SWIDTH 362 0
DWIDTH 16 0
BBX 16 16 0 -2
BITMAP
0002
FFFF
0180
4184
7FFE
6106
6386
6346
6626
6436
681E
7016
6006
6006
7FFE
4004
ENDCHAR
STARTCHAR 2225
ENCODING 8741
SWIDTH 362 0
DWIDTH 16 0
BBX 16 16 0 -2
BITMAP
003C
07C0
040C
040C
0404
77FC
6404
67FC
6404
7FFE
0C06
0C06
0806
1806
307C
C008
ENDCHAR
STARTCHAR 2226
ENCODING 8742
SWIDTH 362 0
DWIDTH 16 0
BBX 16 16 0 -2
BITMAP
0008
01FC
3F00
301C
35FC
3680
3680
36CC
3658
3670
3620
3630
2618
67CC
4707
8602
ENDCHAR
STARTCHAR 2227
ENCODING 8743
SWIDTH 362 0
DWIDTH 16 0
BBX 16 16 0 -2
BITMAP
003C
0FE0
7980
0180
0184
0D8E
1998
31F0
C1C0
05A0
0DB0
199C
618F
C183
0180
0100
ENDCHAR
STARTCHAR 2228
ENCODING 8744
SWIDTH 362 0
DWIDTH 16 0
BBX 16 16 0 -2
BITMAP
0600
7E00
0C02
0DFF
1932
1132
3132
61FE
6132
C132
C132
81FE
8001
C001
FFFF
3FFF
ENDCHAR
STARTCHAR 2229
ENCODING 8745
SWIDTH 362 0
DWIDTH 16 0
BBX 16 16 0 -2
BITMAP
1C70
1860
1860
3263
33FF
7662
7460
B060
3070
30F0
30F0
30B0
31B0
3331
363F
3C1F
ENDCHAR
STARTCHAR 222a
ENCODING 8746
SWIDTH 362 0
DWIDTH 16 0
BBX 16 16 0 -2
BITMAP
1C02
1BFF
1B00
3302
337F
7342
7342
B342
3342
335E
3246
3240
3641
3441
347F
387F
ENDCHAR
STARTCHAR 222b
ENCODING 8747
SWIDTH 362 0
DWIDTH 16 0
BBX 16 16 0 -2
BITMAP
1D18
1988
1904
3306
3203
77FD
7080
B184
31FE
3006
3006
3004
300C
300C
31F8
3030
ENDCHAR
STARTCHAR 222c
ENCODING 8748
SWIDTH 362 0
DWIDTH 16 0
BBX 16 16 0 -2
BITMAP
0180
0183
FFFF
7FFE
6186
6186
619E
418C
0100
0180
0180
03C0
0660
0C38
300F
E007
ENDCHAR
STARTCHAR 222d
ENCODING 8749
SWIDTH 362 0
DWIDTH 16 0
BBX 16 16 0 -2
BITMAP
0C02
1BFF
18C0
10C0
3088
30FC
708C
D18C
918C
1188
11F8
1018
1018
1018
101B
1000
ENDCHAR
STARTCHAR 222e
ENCODING 8750
SWIDTH 362 0
DWIDTH 16 0
BBX 16 16 0 -2
BITMAP
1C02
1BFF
1B04
33C6
3364
732C
733C
B318
3318
331C
3334
3366
33C2
3300
33FF
31FF
ENDCHAR
STARTCHAR 222f
ENCODING 8751
SWIDTH 362 0
DWIDTH 16 0
BBX 16 16 0 -2
BITMAP
1C00
1BFF
1B03
3302
3302
7342
7322
B332
331A
330A
3302
3302
3302
3302
33FE
3200
ENDCHAR
STARTCHAR 2230
ENCODING 8752
SWIDTH 362 0
DWIDTH 16 0
BBX 16 16 0 -2
BITMAP
0C30
1830
1820
103F
3020
3020
7036
D186
9086
108C
104C
1078
1030
107C
118F
1703
ENDCHAR
STARTCHAR 2231
ENCODING 8753
SWIDTH 362 0
DWIDTH 16 0
BBX 16 16 0 -2
BITMAP
1998
3318
3318
2218
6618
6618
EE18
EE18
6618
663C
6634
6624
6666
6646
66C3
6783
ENDCHAR
STARTCHAR 2232
ENCODING 8754
SWIDTH 362 0
DWIDTH 16 0
BBX 16 16 0 -2
BITMAP
0660
0660
4662
7E7F
4662
4662
4662
4662
FE7E
0462
0C60
0C60
0861
1861
307F
C03F
ENDCHAR
STARTCHAR 2233
ENCODING 8755
SWIDTH 362 0
DWIDTH 16 0
BBX 16 16 0 -2
BITMAP
1004
1FFC
1800
1810
1FF8
1800
1800
FFFF
0000
0C70
0C60
0C60
0861
1861
307F
C03F
ENDCHAR
STARTCHAR 2234
ENCODING 8756
SWIDTH 362 0
DWIDTH 16 0
BBX 16 16 0 -2
BITMAP
0440
0E20
0C18
180E
3007
FFFF
0180
0180
0180
FFFF
0300
0220
0418
080C
3006
6003
ENDCHAR
STARTCHAR 2235
ENCODING 8757
SWIDTH 362 0
DWIDTH 16 0
BBX 16 16 0 -2
BITMAP
0440
0E20
0C18
198E
3187
C183
3FFC
218C
218C
218C
3FFC
2188
0180
0180
0180
0100
ENDCHAR
STARTCHAR 2236
ENCODING 8758
SWIDTH 362 0
DWIDTH 16 0
BBX 16 16 0 -2
BITMAP
1010
1FF8
1818
1918
19F8
1918
591E
7FFE
4006
4006
4006
4006
4006
4006
403E
400C
ENDCHAR
STARTCHAR 2237
ENCODING 8759
SWIDTH 362 0
DWIDTH 16 0
BBX 16 16 0 -2
BITMAP
0000
7FFF
C003
80C6
0640
0C20
0838
1A1C
330F
6202
0600
0410
0C18
19FC
3E0C
1000
ENDCHAR
STARTCHAR 2238
ENCODING 8760
SWIDTH 362 0
DWIDTH 16 0
BBX 16 16 0 -2
BITMAP
0000
C060
6030
2038
0998
1180
1180
3580
2584
6586
E583
CD83
6D85
698C
60FC
0000
ENDCHAR
STARTCHAR 2239
ENCODING 8761
SWIDTH 362 0
DWIDTH 16 0
BBX 16 16 0 -2
BITMAP
1C03
1803
1832
FFB2
1832
1832
1B32
6332
2332
1232
1E32
0C32
1E02
3302
619E
C006
ENDCHAR
STARTCHAR 223a
ENCODING 8762
SWIDTH 362 0
DWIDTH 16 0
BBX 16 16 0 -2
BITMAP
0C03
0C03
0DB2
0C32
0832
7FB2
49B2
49B2
49B2
49B2
49B2
49B2
4F82
4B02
081E
0806
ENDCHAR
STARTCHAR 223b
ENCODING 8763
SWIDTH 362 0
DWIDTH 16 0
BBX 16 16 0 -2
BITMAP
0403
3203
3132
21B2
60B2
4032
BF32
1132
1132
1132
3132
3132
2102
6302
4F1E
8606
ENDCHAR
STARTCHAR 223c
ENCODING 8764
SWIDTH 362 0
DWIDTH 16 0
BBX 16 16 0 -2
BITMAP
3303
3303
331A
3312
7F92
3312
3312
3312
33D2
3312
3312
3312
2302
6302
431E
8306
ENDCHAR
STARTCHAR 223d
ENCODING 8765
SWIDTH 362 0
DWIDTH 16 0
BBX 16 16 0 -2
BITMAP
0303
6303
1E32
0C32
1F32
31B2
E0B2
0032
0332
6332
1E32
0E32
0E02
1B02
319E
C086
ENDCHAR
STARTCHAR 223e
ENCODING 8766
SWIDTH 362 0
DWIDTH 16 0
BBX 16 16 0 -2
BITMAP
0C03
0D03
0FB2
7832
0832
0932
7FB2
0832
0832
FFB2
0832
1832
1802
3002
601E
C006
ENDCHAR
STARTCHAR 223f
ENCODING 8767
SWIDTH 362 0
DWIDTH 16 0
BBX 16 16 0 -2
BITMAP
1018
1810
FF10
0010
267F
7E13
6613
6613
6613
6633
6633
6623
67E3
4743
C2DE
818C
ENDCHAR
STARTCHAR 2240
ENCODING 8768
SWIDTH 362 0
DWIDTH 16 0
BBX 16 16 0 -2
BITMAP
6018
6010
7F10
C010
827F
0013
0613
7E13
0413
1833
3033
6023
C163
C343
FFDE
018C
ENDCHAR
STARTCHAR 2241
ENCODING 8769
SWIDTH 362 0
DWIDTH 16 0
BBX 16 16 0 -2
BITMAP
0618
7F10
1810
1810
187F
7F13
1813
1813
1B13
1833
1833
1823
1863
1843
78DE
318C
ENDCHAR
STARTCHAR 2242
ENCODING 8770
SWIDTH 362 0
DWIDTH 16 0
BBX 16 16 0 -2
BITMAP
0718
7C10
6010
6010
617F
7F13
6613
6613
6613
6633
6633
4623
4663
4643
C6DE
858C
ENDCHAR
STARTCHAR 2243
ENCODING 8771
SWIDTH 362 0
DWIDTH 16 0
BBX 16 16 0 -2
BITMAP
4002
7FFF
4020
4330
4618
440C
49C6
5182
4100
4330
4218
443C
4FEC
4C04
C003
4000
ENDCHAR
STARTCHAR 2244
ENCODING 8772
SWIDTH 362 0
DWIDTH 16 0
BBX 16 16 0 -2
BITMAP
0180
0180
0182
FFFF
0180
199C
1198
159A
FDFE
1198
1198
1198
1198
1198
0180
0100
ENDCHAR
STARTCHAR 2245
ENCODING 8773
SWIDTH 362 0
DWIDTH 16 0
BBX 16 16 0 -2
BITMAP
0606
3E1F
5878
1818
1818
1818
FF7F
1818
1818
1818
1818
1018
3018
2018
4018
8018
ENDCHAR
STARTCHAR 2246
ENCODING 8774
SWIDTH 362 0
DWIDTH 16 0
BBX 16 16 0 -2
BITMAP
CC22
CC3F
CC22
CC22
CC22
CCA2
FFA2
CC22
CC22
CC22
CC22
CC3E
FCA6
EFA0
C7A0
0020
ENDCHAR
STARTCHAR 2247
ENCODING 8775
SWIDTH 362 0
DWIDTH 16 0
BBX 16 16 0 -2
BITMAP
4002
7FFF
60C0
60C0
61E0
6330
6618
6E0F
7B13
6210
6210
4210
4610
C410
8C10
9810
ENDCHAR
STARTCHAR 2248
ENCODING 8776
SWIDTH 362 0
DWIDTH 16 0
BBX 16 16 0 -2
BITMAP
0180
0300
0600
0C10
1808
3FFC
3E04
0000
1008
1818
1018
3010
2434
4662
FFFF
C341
ENDCHAR
STARTCHAR 2249
ENCODING 8777
SWIDTH 362 0
DWIDTH 16 0
BBX 16 16 0 -2
BITMAP
0018
3C30
07C0
03F0
0E1C
3C06
4700
0603
FFFF
04C0
0CC0
0D80
190C
3206
6FFE
8602
ENDCHAR
STARTCHAR 224a
ENCODING 8778
SWIDTH 362 0
DWIDTH 16 0
BBX 16 16 0 -2
BITMAP
1818
1018
3010
2424
4642
FBFF
C341
0020
0FF0
0C30
0C20
0C20
0821
1821
303F
C01F
ENDCHAR
STARTCHAR 224b
ENCODING 8779
SWIDTH 362 0
DWIDTH 16 0
BBX 16 16 0 -2
BITMAP
007C
7F80
020C
3108
1990
0820
1FF0
0810
0830
0460
0340
0180
03C0
0678
181F
E007
ENDCHAR
STARTCHAR 224c
ENCODING 8780
SWIDTH 362 0
DWIDTH 16 0
BBX 16 16 0 -2
BITMAP
0300
0180
FFFF
3000
3000
3000
3FFC
1FFC
0000
3FFC
300C
300C
300C
300C
3FFC
3008
ENDCHAR
STARTCHAR 224d
ENCODING 8781
SWIDTH 362 0
DWIDTH 16 0
BBX 16 16 0 -2
BITMAP
0008
7FFC
0008
0008
7FF8
6002
6002
3FFE
1FFC
2000
3FFC
200C
200C
200C
3FFC
2008
ENDCHAR
STARTCHAR 224e
ENCODING 8782
SWIDTH 362 0
DWIDTH 16 0
BBX 16 16 0 -2
BITMAP
0002
FFFF
0100
01C0
0130
0118
0100
0100
0100
3FFC
200C
200C
200C
200C
3FFC
2008
ENDCHAR
STARTCHAR 224f
ENCODING 8783
SWIDTH 362 0
DWIDTH 16 0
BBX 16 16 0 -2
BITMAP
0180
0100
0100
01FC
0100
0100
0102
FFFF
0000
3FFC
200C
200C
200C
200C
3FFC
2008
ENDCHAR
STARTCHAR 2250
ENCODING 8784
SWIDTH 362 0
DWIDTH 16 0
BBX 16 16 0 -2
BITMAP
0004
01FE
D800
CC00
CC03
CCC0
C8C0
C8C0
C8FE
C806
C806
F806
C806
0006
007C
0008
ENDCHAR
STARTCHAR 2251
ENCODING 8785
SWIDTH 362 0
DWIDTH 16 0
BBX 16 16 0 -2
BITMAP
300E
303C
31E0
3060
3060
7C60
3063
33E0
3060
3060
3C60
3860
E061
4061
007F
003F
ENDCHAR
STARTCHAR 2252
ENCODING 8786
SWIDTH 362 0
DWIDTH 16 0
BBX 16 16 0 -2
BITMAP
0008
3FFC
0008
1FF8
0008
FFFF
0600
0FFC
180C
3618
6330
0160
00C0
0300
0C00
F000
ENDCHAR
STARTCHAR 2253
ENCODING 8787
SWIDTH 362 0
DWIDTH 16 0
BBX 16 16 0 -2
BITMAP
0300
0300
FFFF
0620
0C30
0818
11CE
2187
C180
1998
118C
3186
6186
C180
0780
0300
ENDCHAR
STARTCHAR 2254
ENCODING 8788
SWIDTH 362 0
DWIDTH 16 0
BBX 16 16 0 -2
BITMAP
0380
0700
1870
0CC0
0700
0E08
38FC
3E06
0182
0180
FFFF
0300
0630
0C0C
1806
E003
ENDCHAR
STARTCHAR 2255
ENCODING 8789
SWIDTH 362 0
DWIDTH 16 0
BBX 16 16 0 -2
BITMAP
2030
6013
61FF
6900
FD00
E900
6900
6900
4900
D900
F900
3300
3B00
6F00
C200
0400
ENDCHAR
STARTCHAR 2256
ENCODING 8790
SWIDTH 362 0
DWIDTH 16 0
BBX 16 16 0 -2
BITMAP
2002
61FE
6030
6830
FC30
E830
6BFF
6830
4830
D830
F830
3030
3830
6C30
C1F0
0060
ENDCHAR
STARTCHAR 2257
ENCODING 8791
SWIDTH 362 0
DWIDTH 16 0
BBX 16 16 0 -2
BITMAP
2030
6030
6060
6C60
FC40
ECD8
6C98
6D90
4D30
CA20
F860
3044
3CC2
658F
C1F9
0181
ENDCHAR
STARTCHAR 2258
ENCODING 8792
SWIDTH 362 0
DWIDTH 16 0
BBX 16 16 0 -2
BITMAP
7020
6064
6466
7EFF
4466
C464
8CCC
0CCC
08B8
183E
1C63
1781
3300
6180
40FF
803E
ENDCHAR
STARTCHAR 2259
ENCODING 8793
SWIDTH 362 0
DWIDTH 16 0
BBX 16 16 0 -2
BITMAP
2002
63FF
60CC
68CC
FCCC
E8CC
68CC
68CC
48CC
D8CC
F88C
318C
398C
6F0C
C20C
040C
ENDCHAR
STARTCHAR 225a
ENCODING 8794
SWIDTH 362 0
DWIDTH 16 0
BBX 16 16 0 -2
BITMAP
0100
7FFF
4003
C002
BFFC
1800
1804
1FFE
3006
6006
0006
0006
0006
0004
007C
0018
ENDCHAR
STARTCHAR 225b
ENCODING 8795
SWIDTH 362 0
DWIDTH 16 0
BBX 16 16 0 -2
BITMAP
0300
4180
7FFF
C403
8604
0600
0638
0418
0C18
0C10
0810
1FF0
0030
0030
0022
FFFF
ENDCHAR
STARTCHAR 225c
ENCODING 8796
SWIDTH 362 0
DWIDTH 16 0
BBX 16 16 0 -2
BITMAP
0180
0180
018C
0180
0180
0183
FFFF
0180
0180
1190
3188
3184
6186
C182
8F80
0300
ENDCHAR
STARTCHAR 225d
ENCODING 8797
SWIDTH 362 0
DWIDTH 16 0
BBX 16 16 0 -2
BITMAP
3000
30FF
3018
3018
FE18
3CFF
3C18
3C18
3C18
2C18
2C18
6CF8
6C31
4C01
CFFF
87FF
ENDCHAR
STARTCHAR 225e
ENCODING 8798
SWIDTH 362 0
DWIDTH 16 0
BBX 16 16 0 -2
BITMAP
4004
7FFE
6006
6006
6006
6004
6000
6804
6FFE
6806
4806
4806
C806
C806
8FFE
0804
ENDCHAR
STARTCHAR 225f
ENCODING 8799
SWIDTH 362 0
DWIDTH 16 0
BBX 16 16 0 -2
BITMAP
0830
0C20
0C63
0180
0180
7186
6184
6184
6184
7FFC
0304
0300
0600
0C00
1800
7000
ENDCHAR
STARTCHAR 2260
ENCODING 8800
SWIDTH 362 0
DWIDTH 16 0
BBX 16 16 0 -2
BITMAP
1002
18FE
1010
1410
D610
D610
D633
D630
D610
D610
D610
D610
FE10
0010
0010
0010
ENDCHAR
STARTCHAR 2261
ENCODING 8801
SWIDTH 362 0
DWIDTH 16 0
BBX 16 16 0 -2
BITMAP
0180
7186
6184
6184
7FFC
0000
1FF0
1830
1830
1B30
19B0
18B0
1830
3031
603F
C01F
ENDCHAR
STARTCHAR 2262
ENCODING 8802
SWIDTH 362 0
DWIDTH 16 0
BBX 16 16 0 -2
BITMAP
108C
3188
2310
3108
118C
0000
3FFC
2004
2004
2004
3FFC
2004
2004
2004
203C
2008
ENDCHAR
STARTCHAR 2263
ENCODING 8803
SWIDTH 362 0
DWIDTH 16 0
BBX 16 16 0 -2
BITMAP
0004
05FE
FE44
1044
1044
11C4
10C4
1064
1074
1054
10C4
16C4
F884
C185
0107
0207
ENDCHAR
STARTCHAR 2264
ENCODING 8804
SWIDTH 362 0
DWIDTH 16 0
BBX 16 16 0 -2
BITMAP
1802
11FF
1410
FE10
D610
D610
D633
D630
D610
D610
D610
DC10
1010
1010
1010
1010
ENDCHAR
STARTCHAR 2265
ENCODING 8805
SWIDTH 362 0
DWIDTH 16 0
BBX 16 16 0 -2
BITMAP
1802
10FF
1433
FE33
D633
D6B3
D6F3
D673
D623
D623
D663
DC43
10C2
1186
133C
1608
ENDCHAR
STARTCHAR 2266
ENCODING 8806
SWIDTH 362 0
DWIDTH 16 0
BBX 16 16 0 -2
BITMAP
0100
0083
FFFF
3000
3000
3FFC
1FFE
0180
218C
618C
6184
6184
6184
61BC
619C
0100
ENDCHAR
STARTCHAR 2267
ENCODING 8807
SWIDTH 362 0
DWIDTH 16 0
BBX 16 16 0 -2
BITMAP
1008
1818
3018
2030
6020
C643
C6E6
6C34
1C1C
1808
1018
3034
6622
DF6F
F3F1
4040
ENDCHAR
STARTCHAR 2268
ENCODING 8808
SWIDTH 362 0
DWIDTH 16 0
BBX 16 16 0 -2
BITMAP
0180
4083
7FFF
6002
7FFF
60C0
60C0
60E0
60D8
60CC
60C6
40C0
40C0
C0C0
80C0
80C0
ENDCHAR
STARTCHAR 2269
ENCODING 8809
SWIDTH 362 0
DWIDTH 16 0
BBX 16 16 0 -2
BITMAP
0180
4083
7FFF
6000
6C06
6C06
6C06
6C06
6C06
6C06
6C06
4C06
4C06
CFFE
8C06
8000
ENDCHAR
STARTCHAR 226a
ENCODING 8810
SWIDTH 362 0
DWIDTH 16 0
BBX 16 16 0 -2
BITMAP
0802
FCFE
0810
0810
4810
4810
C033
CC30
FC10
0C10
0C10
0C10
0C10
0C10
F810
3010
ENDCHAR
STARTCHAR 226b
ENCODING 8811
SWIDTH 362 0
DWIDTH 16 0
BBX 16 16 0 -2
BITMAP
0802
FCFE
0810
0810
4810
4810
C1FF
CC10
FC10
0C10
0C10
0C10
0C10
0C10
F8F0
3020
ENDCHAR
STARTCHAR 226c
ENCODING 8812
SWIDTH 362 0
DWIDTH 16 0
BBX 16 16 0 -2
BITMAP
0406
FE7E
0606
0606
4646
4466
C060
C642
FEFF
0602
0602
0602
0602
0606
7C7C
1808
ENDCHAR
STARTCHAR 226d
ENCODING 8813
SWIDTH 362 0
DWIDTH 16 0
BBX 16 16 0 -2
BITMAP
1818
1990
3190
2190
4DBF
0BB3
1993
3192
3192
7194
9190
1180
1181
1181
11FF
10FF
ENDCHAR
STARTCHAR 226e
ENCODING 8814
SWIDTH 362 0
DWIDTH 16 0
BBX 16 16 0 -2
BITMAP
1830
1830
3020
2020
4C20
0820
1BFE
3020
3020
7020
9020
1020
1020
1020
1033
1000
ENDCHAR
STARTCHAR 226f
ENCODING 8815
SWIDTH 362 0
DWIDTH 16 0
BBX 16 16 0 -2
BITMAP
0004
3FFE
0204
0204
0604
0404
0C0C
187C
6018
0180
0CC0
4C46
4803
CC1B
8FF1
07F0
ENDCHAR
STARTCHAR 2270
ENCODING 8816
SWIDTH 362 0
DWIDTH 16 0
BBX 16 16 0 -2
BITMAP
30C0
30C0
3082
30FF
7983
FD03
F243
B063
3033
3003
3003
3003
3003
3006
307E
300C
ENDCHAR
STARTCHAR 2271
ENCODING 8817
SWIDTH 362 0
DWIDTH 16 0
BBX 16 16 0 -2
BITMAP
0000
3FFC
0000
0000
0000
0000
0006
0000
0100
0980
0CC0
4804
4802
CC1B
8FF1
07F0
ENDCHAR
STARTCHAR 2272
ENCODING 8818
SWIDTH 362 0
DWIDTH 16 0
BBX 16 16 0 -2
BITMAP
0C30
0C3C
7FB6
0C32
0C30
FFFF
0030
0036
0016
0016
001C
0018
0019
002D
00C7
0303
ENDCHAR
STARTCHAR 2273
ENCODING 8819
SWIDTH 362 0
DWIDTH 16 0
BBX 16 16 0 -2
BITMAP
3002
33FF
3302
3302
FB02
3302
3302
3B02
7302
F302
3302
3302
3302
3302
F31E
6306
ENDCHAR
STARTCHAR 2274
ENCODING 8820
SWIDTH 362 0
DWIDTH 16 0
BBX 16 16 0 -2
BITMAP
3030
3030
3030
33FF
FB33
3333
3333
3B33
7333
F333
3333
3333
3337
3232
F030
6030
ENDCHAR
STARTCHAR 2275
ENCODING 8821
SWIDTH 362 0
DWIDTH 16 0
BBX 16 16 0 -2
BITMAP
3006
31FE
3006
3006
F906
3186
3180
3902
73FF
F002
3002
3002
3002
3006
F0FC
2018
ENDCHAR
STARTCHAR 2276
ENCODING 8822
SWIDTH 362 0
DWIDTH 16 0
BBX 16 16 0 -2
BITMAP
300C
300C
300C
300C
F9FF
300C
300C
388C
70CC
F04C
300C
300C
300C
300C
F07C
2018
ENDCHAR
STARTCHAR 2277
ENCODING 8823
SWIDTH 362 0
DWIDTH 16 0
BBX 16 16 0 -2
BITMAP
0030
6030
4020
43FF
4020
7C20
4036
4186
4086
40CC
404C
5C38
7030
607C
018F
0603
ENDCHAR
STARTCHAR 2278
ENCODING 8824
SWIDTH 362 0
DWIDTH 16 0
BBX 16 16 0 -2
BITMAP
2008
3FFC
3008
3008
3FF8
3008
3008
3008
3000
3008
3FFC
3000
3002
3002
3FFE
1FFE
ENDCHAR
STARTCHAR 2279
ENCODING 8825
SWIDTH 362 0
DWIDTH 16 0
BBX 16 16 0 -2
BITMAP
0030
0030
FC20
CC20
CDFF
CC23
CC23
FC23
CC63
CC63
CC63
CCC3
FCC3
8183
033E
060C
ENDCHAR
STARTCHAR 227a
ENCODING 8826
SWIDTH 362 0
DWIDTH 16 0
BBX 16 16 0 -2
BITMAP
1C07
1806
1876
FF66
1866
1866
1C66
3E66
3B66
7B66
5866
D866
9806
1806
181E
180C
ENDCHAR
STARTCHAR 227b
ENCODING 8827
SWIDTH 362 0
DWIDTH 16 0
BBX 16 16 0 -2
BITMAP
2008
3FFC
3008
3008
3078
301A
3002
3FFE
1FFC
0180
0183
0180
1990
398C
6186
C102
ENDCHAR
STARTCHAR 227c
ENCODING 8828
SWIDTH 362 0
DWIDTH 16 0
BBX 16 16 0 -2
BITMAP
0002
FDFF
2060
2040
7CC0
6CC2
4CFF
CC03
B802
1802
1802
3006
3006
600C
40FC
8038
ENDCHAR
STARTCHAR 227d
ENCODING 8829
SWIDTH 362 0
DWIDTH 16 0
BBX 16 16 0 -2
BITMAP
0670
7E60
3060
3460
3E60
6660
6460
6C70
FC70
98D0
18D0
1088
318C
2306
4607
9C03
ENDCHAR
STARTCHAR 227e
ENCODING 8830
SWIDTH 362 0
DWIDTH 16 0
BBX 16 16 0 -2
BITMAP
00F8
1F00
0108
3FFC
0104
7FFE
0101
01FF
01FF
0C60
0C60
0C60
0860
1861
307F
C03F
ENDCHAR
STARTCHAR 2321
ENCODING 8993
SWIDTH 362 0
DWIDTH 16 0
BBX 16 16 0 -2
BITMAP
00F8
3F80
2180
3FFC
2180
20C0
2072
3C1E
3186
0180
0183
0180
0180
0180
0180
0100
ENDCHAR
STARTCHAR 2322
ENCODING 8994
SWIDTH 362 0
DWIDTH 16 0
BBX 16 16 0 -2
BITMAP
2002
33FF
1063
0063
8863
4963
79E3
10E3
3063
3043
60C3
E0C3
6182
6306
663C
2C08
ENDCHAR
STARTCHAR 2323
ENCODING 8995
SWIDTH 362 0
DWIDTH 16 0
BBX 16 16 0 -2
BITMAP
2004
300E
1018
0430
84C0
4C06
680E
1818
1030
30C0
3107
600E
601C
3030
30C0
2300
ENDCHAR
STARTCHAR 2324
ENCODING 8996
SWIDTH 362 0
DWIDTH 16 0
BBX 16 16 0 -2
BITMAP
0010
7FF8
0418
0C3F
0C03
1802
3006
619C
8188
218C
1B98
0BC0
0660
0C38
300F
E007
ENDCHAR
STARTCHAR 2325
ENCODING 8997
SWIDTH 362 0
DWIDTH 16 0
BBX 16 16 0 -2
BITMAP
0180
0180
03C0
0660
0C30
181E
3187
C183
319C
19B0
03C0
0260
0430
0818
300F
E003
ENDCHAR
STARTCHAR 2326
ENCODING 8998
SWIDTH 362 0
DWIDTH 16 0
BBX 16 16 0 -2
BITMAP
1807
78C6
7886
7C86
7E86
D886
9886
9886
1C86
F886
D8FE
1806
1806
1806
1806
1006
ENDCHAR
STARTCHAR 2327
ENCODING 8999
SWIDTH 362 0
DWIDTH 16 0
BBX 16 16 0 -2
BITMAP
08C0
58C0
3082
31FF
5183
9B03
1A83
1843
3823
6833
C803
0803
0803
1806
783E
300C
ENDCHAR
STARTCHAR 2328
ENCODING 9000
SWIDTH 362 0
DWIDTH 16 0
BBX 16 16 0 -2
BITMAP
080E
587C
31E0
3060
5060
9860
1862
1BFF
3860
6860
C860
0860
0861
1861
787F
303F
ENDCHAR
STARTCHAR 2329
ENCODING 9001
SWIDTH 362 0
DWIDTH 16 0
BBX 16 16 0 -2
BITMAP
0007
0DC6
FD86
3186
3186
3186
3986
3186
3186
3186
31FE
3C06
F006
C006
0006
0006
ENDCHAR
STARTCHAR 232a
ENCODING 9002
SWIDTH 362 0
DWIDTH 16 0
BBX 16 16 0 -2
BITMAP
0020
0C10
FC10
30D8
30D8
3088
3888
3088
318C
318C
3184
3D06
F306
C306
0203
0401
ENDCHAR
STARTCHAR 232b
ENCODING 9003
SWIDTH 362 0
DWIDTH 16 0
BBX 16 16 0 -2
BITMAP
0600
0C00
0800
7FFE
6186
6186
6186
6186
6186
6186
6186
6186
6186
6186
7FFE
4000
ENDCHAR
STARTCHAR 232c
ENCODING 9004
SWIDTH 362 0
DWIDTH 16 0
BBX 16 16 0 -2
BITMAP
1018
0830
0C20
7FFF
0180
0180
0180
0180
018E
0180
0180
0180
0180
0180
0183
0000
ENDCHAR
STARTCHAR 232d
ENCODING 9005
SWIDTH 362 0
DWIDTH 16 0
BBX 16 16 0 -2
BITMAP
0040
0620
0C30
0818
100E
2007
C818
1818
1B18
18D8
1818
18F8
1F98
1218
3078
6030
ENDCHAR
STARTCHAR 232e
ENCODING 9006
SWIDTH 362 0
DWIDTH 16 0
BBX 16 16 0 -2
BITMAP
1C18
1A13
FE7F
1810
1010
1818
1018
1018
1018
1018
1018
3FF8
0018
0018
0018
0010
ENDCHAR
STARTCHAR 232f
ENCODING 9007
SWIDTH 362 0
DWIDTH 16 0
BBX 16 16 0 -2
BITMAP
1C18
1A13
FE7F
1810
0000
0FF0
0830
0830
0830
0830
0830
1830
1831
3031
603F
C01F
ENDCHAR
STARTCHAR 2330
ENCODING 9008
SWIDTH 362 0
DWIDTH 16 0
BBX 16 16 0 -2
BITMAP
0000
43FC
30CC
10CC
00C8
30CF
F882
3082
7982
7902
1B06
363C
3008
7800
CFFF
01FC
ENDCHAR
STARTCHAR 2331
ENCODING 9009
SWIDTH 362 0
DWIDTH 16 0
BBX 16 16 0 -2
BITMAP
1846
187E
1846
1A44
FE48
1848
1844
1E42
7843
D843
1843
1843
185E
1844
F840
3040
ENDCHAR
STARTCHAR 2332
ENCODING 9010
SWIDTH 362 0
DWIDTH 16 0
BBX 16 16 0 -2
BITMAP
0646
3E7E
5846
1844
1848
1848
FF44
1842
1843
1843
1043
1043
305E
2044
4040
8040
ENDCHAR
STARTCHAR 2333
ENCODING 9011
SWIDTH 362 0
DWIDTH 16 0
BBX 16 16 0 -2
BITMAP
0C46
0C7E
1846
3444
6648
E448
3C44
1842
3743
6643
FE43
C443
0C5E
1844
3040
C040
ENDCHAR
STARTCHAR 2334
ENCODING 9012
SWIDTH 362 0
DWIDTH 16 0
BBX 16 16 0 -2
BITMAP
8802
FDFE
C830
D830
D030
D030
D833
C830
CC30
CC30
CC30
FC30
D830
C030
C030
C030
ENDCHAR
STARTCHAR 2335
ENCODING 9013
SWIDTH 362 0
DWIDTH 16 0
BBX 16 16 0 -2
BITMAP
0002
7FFF
0660
0660
4666
6666
6666
6666
6666
7E7E
0660
0460
0C60
0860
1060
6060
ENDCHAR
STARTCHAR 2336
ENCODING 9014
SWIDTH 362 0
DWIDTH 16 0
BBX 16 16 0 -2
BITMAP
1C70
1860
1860
FF60
1860
1860
1860
7F60
0060
4360
7F60
4360
4361
4361
7F7F
423F
ENDCHAR
STARTCHAR 2337
ENCODING 9015
SWIDTH 362 0
DWIDTH 16 0
BBX 16 16 0 -2
BITMAP
0300
0183
FFFF
0600
0C10
1818
30FC
3E06
3000
318C
3188
3188
3188
2188
418F
8107
ENDCHAR
STARTCHAR 2338
ENCODING 9016
SWIDTH 362 0
DWIDTH 16 0
BBX 16 16 0 -2
BITMAP
1C30
1830
1820
37FF
3020
7020
7022
B3FE
3070
3070
30E8
31AC
3327
3623
3C20
3020
ENDCHAR
STARTCHAR 2339
ENCODING 9017
SWIDTH 362 0
DWIDTH 16 0
BBX 16 16 0 -2
BITMAP
1B00
3302
32FF
22D3
6FD2
66D2
E6D2
E6D6
669E
658E
6F8C
638C
63DC
6672
6C63
68C1
ENDCHAR
STARTCHAR 233a
ENCODING 9018
SWIDTH 362 0
DWIDTH 16 0
BBX 16 16 0 -2
BITMAP
0180
0380
0660
0C30
181C
300F
DFF8
1198
1198
1198
1198
1FF8
1180
0180
0180
0100
ENDCHAR
STARTCHAR 233b
ENCODING 9019
SWIDTH 362 0
DWIDTH 16 0
BBX 16 16 0 -2
BITMAP
003E
3FC0
20C0
20C0
20C4
20FE
20C0
20C0
3FFF
2318
6310
6210
6610
4411
CC1F
B01F
ENDCHAR
STARTCHAR 233c
ENCODING 9020
SWIDTH 362 0
DWIDTH 16 0
BBX 16 16 0 -2
BITMAP
0202
C3FF
6222
2222
0B32
0B32
1222
1222
33FE
2222
E020
C020
6020
6020
6020
0020
ENDCHAR
STARTCHAR 233d
ENCODING 9021
SWIDTH 362 0
DWIDTH 16 0
BBX 16 16 0 -2
BITMAP
0204
C3FE
6206
2206
0B06
0B34
1220
1222
33FF
2230
E210
C218
6218
62CD
6387
0303
ENDCHAR
STARTCHAR 233e
ENCODING 9022
SWIDTH 362 0
DWIDTH 16 0
BBX 16 16 0 -2
BITMAP
0C03
0C03
4DB2
7FB2
4D32
4C32
4C32
7FB2
5332
5332
4E32
4E32
CE02
DB02
B19E
4006
ENDCHAR
STARTCHAR 233f
ENCODING 9023
SWIDTH 362 0
DWIDTH 16 0
BBX 16 16 0 -2
BITMAP
0C03
0C03
081A
0892
0F92
0812
0812
0812
CD92
C192
C192
C192
C182
C182
FF9E
C086
ENDCHAR
STARTCHAR 2340
ENCODING 9024
SWIDTH 362 0
DWIDTH 16 0
BBX 16 16 0 -2
BITMAP
0C03
1C03
1E32
3332
21B2
6032
FF32
0032
0132
7FB2
0332
2232
3C02
1C02
0C1E
0606
ENDCHAR
STARTCHAR 2341
ENCODING 9025
SWIDTH 362 0
DWIDTH 16 0
BBX 16 16 0 -2
BITMAP
7003
6003
619A
7F92
C192
8192
7D92
6D92
6D92
6D92
7D92
4192
0182
0102
1F1E
0606
ENDCHAR
STARTCHAR 2342
ENCODING 9026
SWIDTH 362 0
DWIDTH 16 0
BBX 16 16 0 -2
BITMAP
0383
7F03
691A
6912
6912
6912
6912
6912
6992
6992
7992
5992
52C2
F3C2
FF7E
B166
ENDCHAR
STARTCHAR 2343
ENCODING 9027
SWIDTH 362 0
DWIDTH 16 0
BBX 16 16 0 -2
BITMAP
0C03
0C03
0932
7FB2
0832
0832
09B2
FFB2
1C32
1E32
3B32
29B2
4802
8802
081E
0806
ENDCHAR
STARTCHAR 2344
ENCODING 9028
SWIDTH 362 0
DWIDTH 16 0
BBX 16 16 0 -2
BITMAP
3618
3418
3F98
3D98
35FF
359B
FF9B
B41B
B59B
FF93
35B3
35B3
27A3
6563
445E
848C
ENDCHAR
STARTCHAR 2345
ENCODING 9029
SWIDTH 362 0
DWIDTH 16 0
BBX 16 16 0 -2
BITMAP
3070
3060
3060
31FF
FE60
3660
3660
3640
367E
36C8
2688
2688
6788
4708
FC08
887F
ENDCHAR
STARTCHAR 2346
ENCODING 9030
SWIDTH 362 0
DWIDTH 16 0
BBX 16 16 0 -2
BITMAP
0030
FE30
2020
2020
61FF
6023
7C23
E423
E463
E463
6463
64C3
7CC3
6583
433E
060C
ENDCHAR
STARTCHAR 2347
ENCODING 9031
SWIDTH 362 0
DWIDTH 16 0
BBX 16 16 0 -2
BITMAP
1030
3030
2020
FC22
C5FF
C423
C422
C422
FC62
C462
C462
C4C2
FCC2
C586
033C
0608
ENDCHAR
STARTCHAR 2348
ENCODING 9032
SWIDTH 362 0
DWIDTH 16 0
BBX 16 16 0 -2
BITMAP
4198
7F98
4018
7F98
487F
4C1B
491B
5F9B
499B
4993
49B3
49B3
59A3
D1E3
B7DE
E38C
ENDCHAR
STARTCHAR 2349
ENCODING 9033
SWIDTH 362 0
DWIDTH 16 0
BBX 16 16 0 -2
BITMAP
0218
FF10
6210
3610
1C7F
1E13
3313
6D13
8C13
0933
7F33
0823
0863
0F43
FCDE
418C
ENDCHAR
STARTCHAR 234a
ENCODING 9034
SWIDTH 362 0
DWIDTH 16 0
BBX 16 16 0 -2
BITMAP
4002
7FFF
4000
4FFC
4C0C
4C08
4C08
4C08
4FF8
4000
4618
4C0C
580C
5004
C003
4000
ENDCHAR
STARTCHAR 234b
ENCODING 9035
SWIDTH 362 0
DWIDTH 16 0
BBX 16 16 0 -2
BITMAP
4002
7FFF
4200
4610
4608
4C0C
5806
57F8
4418
4418
4418
4418
47F8
4400
C003
4000
ENDCHAR
STARTCHAR 234c
ENCODING 9036
SWIDTH 362 0
DWIDTH 16 0
BBX 16 16 0 -2
BITMAP
0130
FFB0
11B0
11B0
31B0
31B8
2F3C
4236
8033
7FB1
4130
4130
4130
4130
7F30
4130
ENDCHAR
STARTCHAR 234d
ENCODING 9037
SWIDTH 362 0
DWIDTH 16 0
BBX 16 16 0 -2
BITMAP
0180
0182
01FF
0180
4186
7FFE
6016
6C36
6366
61C6
61C6
6376
6636
7C16
6006
6006
ENDCHAR
STARTCHAR 234e
ENCODING 9038
SWIDTH 362 0
DWIDTH 16 0
BBX 16 16 0 -2
BITMAP
0812
0C1F
07D3
1193
1193
1313
1313
5613
5693
DCD3
DC53
981F
3896
3910
5F90
8010
ENDCHAR
STARTCHAR 234f
ENCODING 9039
SWIDTH 362 0
DWIDTH 16 0
BBX 16 16 0 -2
BITMAP
0180
0183
FFFF
218C
3FFC
218C
318C
2188
01B0
0C30
0430
0660
03C0
03E0
0E3F
F00F
ENDCHAR
STARTCHAR 2350
ENCODING 9040
SWIDTH 362 0
DWIDTH 16 0
BBX 16 16 0 -2
BITMAP
600C
600C
6FF4
6C24
6FE4
6C04
6FF4
6004
0030
0C30
0430
0660
03C0
03E0
0E3F
F00F
ENDCHAR
STARTCHAR 2351
ENCODING 9041
SWIDTH 362 0
DWIDTH 16 0
BBX 16 16 0 -2
BITMAP
0030
0030
D820
D823
DBFF
DE22
D820
D860
D878
D870
D8D0
F8D0
C190
0311
061F
0C1F
ENDCHAR
STARTCHAR 2352
ENCODING 9042
SWIDTH 362 0
DWIDTH 16 0
BBX 16 16 0 -2
BITMAP
0002
03FF
D830
D833
DBFF
DB33
DB33
DB33
DB33
DB33
DB33
FB33
C33F
0232
0030
0030
ENDCHAR
STARTCHAR 2353
ENCODING 9043
SWIDTH 362 0
DWIDTH 16 0
BBX 16 16 0 -2
BITMAP
001E
01F0
D860
D860
D862
DBFE
D860
D860
D862
DBFF
D860
F860
C061
0061
007F
003F
ENDCHAR
STARTCHAR 2354
ENCODING 9044
SWIDTH 362 0
DWIDTH 16 0
BBX 16 16 0 -2
BITMAP
001E
03F8
D820
D820
D820
D823
DFFF
D870
D870
D870
D8D8
F8C8
C18C
0306
0603
0C01
ENDCHAR
STARTCHAR 2355
ENCODING 9045
SWIDTH 362 0
DWIDTH 16 0
BBX 16 16 0 -2
BITMAP
01C0
0180
D982
D9FF
DB03
DA03
DCC3
D8C3
D993
D93B
DBDB
F903
C003
0006
007E
000C
ENDCHAR
STARTCHAR 2356
ENCODING 9046
SWIDTH 362 0
DWIDTH 16 0
BBX 16 16 0 -2
BITMAP
0098
00C8
D884
D986
DB03
DBFD
DCC0
D884
D9FE
D806
D806
F804
C00C
000C
00F8
0030
ENDCHAR
STARTCHAR 2357
ENCODING 9047
SWIDTH 362 0
DWIDTH 16 0
BBX 16 16 0 -2
BITMAP
000E
01F8
D900
D903
D9FF
D903
D903
D903
D9FF
D900
DB00
FB00
C200
0600
0C00
1800
ENDCHAR
STARTCHAR 2358
ENCODING 9048
SWIDTH 362 0
DWIDTH 16 0
BBX 16 16 0 -2
BITMAP
0102
01FF
D900
D900
D906
D946
D946
D946
D924
DB2C
DB18
FA18
C23C
0466
0CC3
0301
ENDCHAR
STARTCHAR 2359
ENCODING 9049
SWIDTH 362 0
DWIDTH 16 0
BBX 16 16 0 -2
BITMAP
00CC
0186
D983
DB03
DA85
D884
D88C
D8CC
D848
D838
D830
F838
C04C
0086
0303
0601
ENDCHAR
STARTCHAR 235a
ENCODING 9050
SWIDTH 362 0
DWIDTH 16 0
BBX 16 16 0 -2
BITMAP
00F8
7F80
6180
7FFC
60C0
60C0
6062
7C3C
300E
0008
3FFC
300C
3008
3008
3FF8
3008
ENDCHAR
STARTCHAR 235b
ENCODING 9051
SWIDTH 362 0
DWIDTH 16 0
BBX 16 16 0 -2
BITMAP
1018
1FF8
1018
1018
1018
1FF8
0000
7FFC
0180
0180
0188
3FFC
0180
0180
0183
0000
ENDCHAR
STARTCHAR 235c
ENCODING 9052
SWIDTH 362 0
DWIDTH 16 0
BBX 16 16 0 -2
BITMAP
0002
03FF
D88C
D88C
D88C
D88C
D8CF
D8CC
D88C
D88C
D88C
F98C
C18C
030C
020C
040C
ENDCHAR
STARTCHAR 235d
ENCODING 9053
SWIDTH 362 0
DWIDTH 16 0
BBX 16 16 0 -2
BITMAP
1DC0
1980
1986
31FE
7180
D180
9182
10FE
107E
0000
3FFC
300C
300C
300C
3FFC
3008
ENDCHAR
STARTCHAR 235e
ENCODING 9054
SWIDTH 362 0
DWIDTH 16 0
BBX 16 16 0 -2
BITMAP
20CC
30CC
208C
208C
FBFE
208C
208C
208C
20CF
20CC
208C
398C
718C
C10C
030C
060C
ENDCHAR
STARTCHAR 235f
ENCODING 9055
SWIDTH 362 0
DWIDTH 16 0
BBX 16 16 0 -2
BITMAP
3040
3020
3222
33FF
FF33
3333
333B
336B
334F
33CF
3387
3F03
7303
E303
031F
0306
ENDCHAR
STARTCHAR 2360
ENCODING 9056
SWIDTH 362 0
DWIDTH 16 0
BBX 16 16 0 -2
BITMAP
0004
7FFE
2180
6180
7FFE
0340
0641
0C43
307F
C180
0180
018C
3FFC
0180
0182
FFFF
ENDCHAR
STARTCHAR 2361
ENCODING 9057
SWIDTH 362 0
DWIDTH 16 0
BBX 16 16 0 -2
BITMAP
0006
7FFE
088C
188C
1118
2230
2310
1188
188C
0100
0180
018C
3FFC
0180
0182
FFFF
ENDCHAR
STARTCHAR 2362
ENCODING 9058
SWIDTH 362 0
DWIDTH 16 0
BBX 16 16 0 -2
BITMAP
0300
0302
7FFE
0C30
181C
3007
FFFC
318C
3188
3188
3FF8
3000
3002
3002
3FFE
1FFE
ENDCHAR
STARTCHAR 2363
ENCODING 9059
SWIDTH 362 0
DWIDTH 16 0
BBX 16 16 0 -2
BITMAP
0300
0302
7FFE
0C30
191C
3187
C186
0180
318C
318C
3188
3FF8
0188
0182
01FE
00FE
ENDCHAR
STARTCHAR 2364
ENCODING 9060
SWIDTH 362 0
DWIDTH 16 0
BBX 16 16 0 -2
BITMAP
0300
0302
7FFE
0D30
199C
3387
C660
0C30
1C3F
6C37
8C20
0C20
0820
1820
3020
6020
ENDCHAR
STARTCHAR 2365
ENCODING 9061
SWIDTH 362 0
DWIDTH 16 0
BBX 16 16 0 -2
BITMAP
0180
0180
0183
0180
2198
118C
398C
2D9E
45F2
8340
0260
0630
0C18
180E
3007
C003
ENDCHAR
STARTCHAR 2366
ENCODING 9062
SWIDTH 362 0
DWIDTH 16 0
BBX 16 16 0 -2
BITMAP
0300
0302
7FFE
0C30
181C
3007
C002
0C00
0C10
0FF8
0818
1810
1830
1030
0022
FFFF
ENDCHAR
STARTCHAR 2367
ENCODING 9063
SWIDTH 362 0
DWIDTH 16 0
BBX 16 16 0 -2
BITMAP
2030
6030
6030
69FF
FC30
E830
6832
6BFF
4830
D870
F878
3048
38CC
6D86
C303
0601
ENDCHAR
STARTCHAR 2368
ENCODING 9064
SWIDTH 362 0
DWIDTH 16 0
BBX 16 16 0 -2
BITMAP
0030
7E30
2626
2626
26FF
2626
2626
FE66
6466
6444
64CC
6438
641E
6427
7E43
0180
ENDCHAR
STARTCHAR 2369
ENCODING 9065
SWIDTH 362 0
DWIDTH 16 0
BBX 16 16 0 -2
BITMAP
2000
61FF
6193
6D92
FD92
ED92
6D92
6DFE
4D82
C980
F980
3180
3D81
6783
C0FF
0000
ENDCHAR
STARTCHAR 236a
ENCODING 9066
SWIDTH 362 0
DWIDTH 16 0
BBX 16 16 0 -2
BITMAP
2018
6010
6010
6D13
FDFF
ED93
6D93
6D93
4D93
C9FF
F910
3010
3C10
6610
C010
0010
ENDCHAR
STARTCHAR 236b
ENCODING 9067
SWIDTH 362 0
DWIDTH 16 0
BBX 16 16 0 -2
BITMAP
2088
60FC
60CC
6CCC
FCCC
EC87
6D00
6FFE
4C86
C8CC
F848
3038
3C38
667E
C0C7
0703
ENDCHAR
STARTCHAR 236c
ENCODING 9068
SWIDTH 362 0
DWIDTH 16 0
BBX 16 16 0 -2
BITMAP
1018
0E70
01E0
073C
3C0E
4600
0C03
0C00
0FFC
181C
3030
6063
DFFF
0060
03E0
00C0
ENDCHAR
STARTCHAR 236d
ENCODING 9069
SWIDTH 362 0
DWIDTH 16 0
BBX 16 16 0 -2
BITMAP
0804
7DFE
080C
1048
3030
3033
33FF
3832
F030
7030
3030
3030
3030
3030
F0F0
6060
ENDCHAR
STARTCHAR 236e
ENCODING 9070
SWIDTH 362 0
DWIDTH 16 0
BBX 16 16 0 -2
BITMAP
0100
7FFF
4003
C006
FFFE
0180
3184
31FE
3184
3184
3FFC
0004
000C
000C
01F8
0030
ENDCHAR
STARTCHAR 236f
ENCODING 9071
SWIDTH 362 0
DWIDTH 16 0
BBX 16 16 0 -2
BITMAP
0100
7FFF
4003
C186
8198
0188
0182
7FFF
0180
0380
0340
0660
0430
0818
300F
E003
ENDCHAR
STARTCHAR 2370
ENCODING 9072
SWIDTH 362 0
DWIDTH 16 0
BBX 16 16 0 -2
BITMAP
0100
7FFF
4003
C186
8380
0640
0C30
183F
6C37
CC20
0C20
0C20
0820
1820
3020
6020
ENDCHAR
STARTCHAR 2371
ENCODING 9073
SWIDTH 362 0
DWIDTH 16 0
BBX 16 16 0 -2
BITMAP
0206
7E06
0006
00FF
0006
FF46
2466
2426
2406
2406
6406
643C
640D
4401
C7FF
87FF
ENDCHAR
STARTCHAR 2372
ENCODING 9074
SWIDTH 362 0
DWIDTH 16 0
BBX 16 16 0 -2
BITMAP
0180
1180
1998
118C
3186
6182
C100
0100
0180
218C
3998
1BD0
0660
0C38
180F
E003
ENDCHAR
STARTCHAR 2373
ENCODING 9075
SWIDTH 362 0
DWIDTH 16 0
BBX 16 16 0 -2
BITMAP
3018
3018
3018
30FF
FE18
3C38
3C3C
3C7C
3C5F
2C9B
2D18
6C18
6C11
4C01
CFFF
87FF
ENDCHAR
STARTCHAR 2374
ENCODING 9076
SWIDTH 362 0
DWIDTH 16 0
BBX 16 16 0 -2
BITMAP
301C
3018
3018
31FB
FE7F
3C7C
3C78
3C5C
3CDF
2D9B
2C18
6C38
6C01
4C01
CFFF
87FF
ENDCHAR
STARTCHAR 2375
ENCODING 9077
SWIDTH 362 0
DWIDTH 16 0
BBX 16 16 0 -2
BITMAP
0180
7186
6184
7FFC
0304
0200
0C00
3800
0100
FFFF
0000
0800
0C18
180C
3006
C002
ENDCHAR
STARTCHAR 2376
ENCODING 9078
SWIDTH 362 0
DWIDTH 16 0
BBX 16 16 0 -2
BITMAP
0180
7186
6184
7FFC
0300
0600
1800
7FFE
0180
0180
0188
3FFC
0180
0180
0182
FFFF
ENDCHAR
STARTCHAR 2377
ENCODING 9079
SWIDTH 362 0
DWIDTH 16 0
BBX 16 16 0 -2
BITMAP
0180
7186
6184
7FFC
0300
0C00
1C60
0C30
181C
300F
7FFF
C618
0418
0818
30F0
6020
ENDCHAR
STARTCHAR 2378
ENCODING 9080
SWIDTH 362 0
DWIDTH 16 0
BBX 16 16 0 -2
BITMAP
20C0
30C0
20C2
A1B0
AD90
AD10
AE10
AC13
ADFF
AC10
AC10
AC10
FC10
0010
0010
0010
ENDCHAR
STARTCHAR 2379
ENCODING 9081
SWIDTH 362 0
DWIDTH 16 0
BBX 16 16 0 -2
BITMAP
0180
6186
6184
6184
7FFC
0004
2008
3FFC
3008
3008
3008
3008
3008
3008
3FF8
3008
ENDCHAR
STARTCHAR 237a
ENCODING 9082
SWIDTH 362 0
DWIDTH 16 0
BBX 16 16 0 -2
BITMAP
0180
7186
6184
7FFC
0004
0400
5ECE
60C6
6086
6086
6086
6686
788E
709C
2080
0080
ENDCHAR
STARTCHAR 237b
ENCODING 9083
SWIDTH 362 0
DWIDTH 16 0
BBX 16 16 0 -2
BITMAP
0180
7186
6184
6184
7FFC
0300
0180
3FFC
001C
0070
01E0
0700
3800
7E01
47FE
0000
ENDCHAR
STARTCHAR 237c
ENCODING 9084
SWIDTH 362 0
DWIDTH 16 0
BBX 16 16 0 -2
BITMAP
2030
3030
2030
A033
AD33
ADB6
ADB4
AC30
AC30
AC78
AC68
AC4C
FCC4
0186
0303
0601
ENDCHAR
STARTCHAR 237d
ENCODING 9085
SWIDTH 362 0
DWIDTH 16 0
BBX 16 16 0 -2
BITMAP
0180
7186
6184
7FFC
0000
007C
3FFC
3000
3002
3FFF
3020
3020
2020
6020
4020
8020
ENDCHAR
STARTCHAR 237e
ENCODING 9086
SWIDTH 362 0
DWIDTH 16 0
BBX 16 16 0 -2
BITMAP
2008
3FFC
200C
200C
3FFC
200C
300C
3008
0000
30C6
318C
6308
4318
318C
10C6
18C2
ENDCHAR
STARTCHAR 2421
ENCODING 9249
SWIDTH 362 0
DWIDTH 16 0
BBX 16 16 0 -2
BITMAP
3018
3010
3410
FE94
B4D2
B593
B591
B510
B412
B416
B414
BC08
3010
3020
30C0
3300
ENDCHAR
STARTCHAR 2422
ENCODING 9250
SWIDTH 362 0
DWIDTH 16 0
BBX 16 16 0 -2
BITMAP
3004
33FE
3084
FC8C
B48C
B48E
B4FF
B4A2
B4A6
B5B6
BD9C
BD1C
331C
3336
3663
3D81
ENDCHAR
STARTCHAR 2423
ENCODING 9251
SWIDTH 362 0
DWIDTH 16 0
BBX 16 16 0 -2
BITMAP
00FE
7F00
6006
6003
6002
7FFE
60C2
60C4
7FFE
78C6
78C6
58C6
58C6
D8FC
98CC
80C0
ENDCHAR
STARTCHAR 2424
ENCODING 9252
SWIDTH 362 0
DWIDTH 16 0
BBX 16 16 0 -2
BITMAP
3018
3010
3010
FDFF
B410
B410
B410
B5FF
B430
B438
BC28
BC6C
30C4
3086
3103
3601
ENDCHAR
STARTCHAR 2425
ENCODING 9253
SWIDTH 362 0
DWIDTH 16 0
BBX 16 16 0 -2
BITMAP
0180
318C
1998
09B0
41A4
7FFE
6186
67C6
67A6
6DB6
699E
7196
6186
6186
61BE
410C
ENDCHAR
STARTCHAR 2426
ENCODING 9254
SWIDTH 362 0
DWIDTH 16 0
BBX 16 16 0 -2
BITMAP
0008
3FFC
0180
0183
FFFF
2180
3FFC
218C
318C
318C
218C
3FFC
2180
0180
0180
0100
ENDCHAR
STARTCHAR 2427
ENCODING 9255
SWIDTH 362 0
DWIDTH 16 0
BBX 16 16 0 -2
BITMAP
1018
3010
3010
2010
60D6
C4D3
CC91
6D10
3913
1016
3016
280C
6C18
DE30
E2C0
4380
ENDCHAR
STARTCHAR 2428
ENCODING 9256
SWIDTH 362 0
DWIDTH 16 0
BBX 16 16 0 -2
BITMAP
0180
4083
7FFF
60C0
60E0
6190
630C
6607
7B1B
6218
6218
4218
4618
C418
8C18
9818
ENDCHAR
STARTCHAR 2429
ENCODING 9257
SWIDTH 362 0
DWIDTH 16 0
BBX 16 16 0 -2
BITMAP
0018
0010
F010
3110
3190
619F
7990
5990
1990
9990
5190
77FF
3000
7800
4FFF
87FE
ENDCHAR
STARTCHAR 242a
ENCODING 9258
SWIDTH 362 0
DWIDTH 16 0
BBX 16 16 0 -2
BITMAP
0184
03FE
0F0C
19D8
6C60
06C0
0700
7800
0C30
0C30
FFFF
0C30
0830
1830
3030
C030
ENDCHAR
STARTCHAR 242b
ENCODING 9259
SWIDTH 362 0
DWIDTH 16 0
BBX 16 16 0 -2
BITMAP
4630
6436
4422
4420
45FF
FC20
0420
0420
7C30
4430
4410
4418
4418
C40D
C407
8403
ENDCHAR
STARTCHAR 242c
ENCODING 9260
SWIDTH 362 0
DWIDTH 16 0
BBX 16 16 0 -2
BITMAP
1800
1BFF
3030
2030
4C30
0830
1830
3032
31FE
7030
9030
1030
1030
1030
1033
1000
ENDCHAR
STARTCHAR 242d
ENCODING 9261
SWIDTH 362 0
DWIDTH 16 0
BBX 16 16 0 -2
BITMAP
3030
3030
3030
31FF
7830
FC30
F030
B3FF
3030
3070
3078
3048
30CC
3186
3303
3601
ENDCHAR
STARTCHAR 242e
ENCODING 9262
SWIDTH 362 0
DWIDTH 16 0
BBX 16 16 0 -2
BITMAP
3030
3030
3033
3030
7830
FFFF
F333
B333
3333
3333
3333
3333
333F
3336
3030
3030
ENDCHAR
STARTCHAR 242f
ENCODING 9263
SWIDTH 362 0
DWIDTH 16 0
BBX 16 16 0 -2
BITMAP
3002
31FF
3188
3188
7988
FD08
F3FF
B038
3028
3068
30C8
3088
3108
3208
3C78
3018
ENDCHAR
STARTCHAR 2430
ENCODING 9264
SWIDTH 362 0
DWIDTH 16 0
BBX 16 16 0 -2
BITMAP
3102
31FF
3100
3100
7906
FD46
F146
B146
3124
332C
3318
3218
323C
3466
3CC3
3301
ENDCHAR
STARTCHAR 2431
ENCODING 9265
SWIDTH 362 0
DWIDTH 16 0
BBX 16 16 0 -2
BITMAP
0600
0630
0C33
0C30
0820
1860
1FC0
0378
1C1C
6104
0880
4CC4
4802
CC1B
CFF1
07F0
ENDCHAR
STARTCHAR 2432
ENCODING 9266
SWIDTH 362 0
DWIDTH 16 0
BBX 16 16 0 -2
BITMAP
3006
3186
206C
3038
383E
B8C7
A383
A004
2106
2084
20CC
2078
2030
2078
20CF
2703
ENDCHAR
STARTCHAR 2433
ENCODING 9267
SWIDTH 362 0
DWIDTH 16 0
BBX 16 16 0 -2
BITMAP
301E
31F8
2020
3020
3820
B823
A3FF
A070
2070
2070
20D8
20C8
218C
2306
2603
2C01
ENDCHAR
STARTCHAR 2434
ENCODING 9268
SWIDTH 362 0
DWIDTH 16 0
BBX 16 16 0 -2
BITMAP
00F8
7F00
6006
6006
6006
7FFE
6004
6FFE
6806
6806
6FFE
4800
4802
CC02
8FFE
8000
ENDCHAR
STARTCHAR 2435
ENCODING 9269
SWIDTH 362 0
DWIDTH 16 0
BBX 16 16 0 -2
BITMAP
3030
3032
303F
31F0
F830
3030
31FF
3830
7030
F033
33FF
3030
3030
3030
F030
6030
ENDCHAR
STARTCHAR 2436
ENCODING 9270
SWIDTH 362 0
DWIDTH 16 0
BBX 16 16 0 -2
BITMAP
3030
3030
3033
3030
F830
33FF
3333
3B33
7333
F333
3333
3333
333F
3336
F030
6030
ENDCHAR
STARTCHAR 2437
ENCODING 9271
SWIDTH 362 0
DWIDTH 16 0
BBX 16 16 0 -2
BITMAP
3300
3303
227F
221B
FBDB
231B
221B
321B
721B
E213
23F3
23B3
2323
2066
E0DE
618C
ENDCHAR
STARTCHAR 2438
ENCODING 9272
SWIDTH 362 0
DWIDTH 16 0
BBX 16 16 0 -2
BITMAP
3030
3030
3020
303F
F820
3020
3036
3986
7086
F08C
304C
3078
3030
307C
F18F
6703
ENDCHAR
STARTCHAR 2439
ENCODING 9273
SWIDTH 362 0
DWIDTH 16 0
BBX 16 16 0 -2
BITMAP
3040
3020
3333
3333
FB33
333B
336B
3B4F
73CF
F387
3303
3303
3303
3303
F31F
6306
ENDCHAR
STARTCHAR 243a
ENCODING 9274
SWIDTH 362 0
DWIDTH 16 0
BBX 16 16 0 -2
BITMAP
3180
3182
31FE
3300
FFFE
3000
300E
3806
7006
F006
3006
3006
3006
3007
F003
6001
ENDCHAR
STARTCHAR 243b
ENCODING 9275
SWIDTH 362 0
DWIDTH 16 0
BBX 16 16 0 -2
BITMAP
30F8
30D0
3090
3190
F990
339F
3390
3F90
7190
F190
3190
3190
3191
3191
F19F
611F
ENDCHAR
STARTCHAR 243c
ENCODING 9276
SWIDTH 362 0
DWIDTH 16 0
BBX 16 16 0 -2
BITMAP
3002
31FF
3030
3030
F830
3030
33FF
3830
703C
F038
3078
3058
30D8
3199
F31F
260F
ENDCHAR
STARTCHAR 243d
ENCODING 9277
SWIDTH 362 0
DWIDTH 16 0
BBX 16 16 0 -2
BITMAP
0180
0183
FFFF
1FF8
0C38
0760
03C0
0E7F
798F
4184
7FFE
6184
6184
61BC
619C
0100
ENDCHAR
STARTCHAR 243e
ENCODING 9278
SWIDTH 362 0
DWIDTH 16 0
BBX 16 16 0 -2
BITMAP
0270
7E60
1860
1863
187F
1846
FFC6
18A6
1824
183C
1818
1818
183C
1866
18C7
1183
ENDCHAR
STARTCHAR 243f
ENCODING 9279
SWIDTH 362 0
DWIDTH 16 0
BBX 16 16 0 -2
BITMAP
0060
FE60
C660
C643
C6FF
C6C6
FEC4
C244
C06C
C02C
C038
C638
DC38
F06C
C0C7
0303
ENDCHAR
STARTCHAR 2440
ENCODING 9280
SWIDTH 362 0
DWIDTH 16 0
BBX 16 16 0 -2
BITMAP
7030
6030
7F20
4063
807F
7E66
06E6
0CA4
1834
301C
6018
C018
811C
FF26
FF47
0183
ENDCHAR
STARTCHAR 2441
ENCODING 9281
SWIDTH 362 0
DWIDTH 16 0
BBX 16 16 0 -2
BITMAP
2006
3004
2064
3E24
6604
6484
4CC4
FC64
9804
1804
19FF
1004
3004
6004
4004
8004
ENDCHAR
STARTCHAR 2442
ENCODING 9282
SWIDTH 362 0
DWIDTH 16 0
BBX 16 16 0 -2
BITMAP
2030
3030
FE28
606C
60C7
6C9B
7F10
6410
6410
6410
6410
4410
4410
CC10
FC10
9810
ENDCHAR
STARTCHAR 2443
ENCODING 9283
SWIDTH 362 0
DWIDTH 16 0
BBX 16 16 0 -2
BITMAP
2008
3FFC
3008
3008
3FF8
3008
3008
3830
0C30
0830
FFFF
0830
1830
3030
6030
C030
ENDCHAR
STARTCHAR 2444
ENCODING 9284
SWIDTH 362 0
DWIDTH 16 0
BBX 16 16 0 -2
BITMAP
2008
3FFC
3008
3FF8
3008
3008
3FF8
0100
0183
3000
3000
3000
3000
3000
3FFE
0000
ENDCHAR
STARTCHAR 2445
ENCODING 9285
SWIDTH 362 0
DWIDTH 16 0
BBX 16 16 0 -2
BITMAP
18C0
10C0
10C0
FCC0
13FC
30CC
38CC
3DCC
74EC
70FC
D0BC
918C
118C
130D
120F
1407
ENDCHAR
STARTCHAR 2446
ENCODING 9286
SWIDTH 362 0
DWIDTH 16 0
BBX 16 16 0 -2
BITMAP
0180
0180
7FFE
0188
318C
1998
09B0
FFFF
0380
03C0
05A0
0998
118E
2187
C180
0100
ENDCHAR
STARTCHAR 2447
ENCODING 9287
SWIDTH 362 0
DWIDTH 16 0
BBX 16 16 0 -2
BITMAP
1802
10FF
1003
FC03
11C3
3183
3983
3D83
7580
7180
D180
9180
1181
1181
11FF
10FF
ENDCHAR
STARTCHAR 2448
ENCODING 9288
SWIDTH 362 0
DWIDTH 16 0
BBX 16 16 0 -2
BITMAP
3030
3030
3020
FC60
30C4
3186
798C
7CC8
7030
F030
B060
B0C4
30C2
319F
33E1
3101
ENDCHAR
STARTCHAR 2449
ENCODING 9289
SWIDTH 362 0
DWIDTH 16 0
BBX 16 16 0 -2
BITMAP
0018
3C30
07C0
03F0
0E1C
3806
4190
0198
018F
0180
0980
1998
118E
2187
C183
0100
ENDCHAR
STARTCHAR 244a
ENCODING 9290
SWIDTH 362 0
DWIDTH 16 0
BBX 16 16 0 -2
BITMAP
0060
0460
FE40
06C3
06FF
0692
4710
4410
4030
4038
4028
466C
5CC4
7086
4103
0601
ENDCHAR
STARTCHAR 244b
ENCODING 9291
SWIDTH 362 0
DWIDTH 16 0
BBX 16 16 0 -2
BITMAP
0070
7F60
6360
6243
627F
62DA
7E98
6218
6018
6018
603C
4024
4064
C0C6
8183
8701
ENDCHAR
STARTCHAR 244c
ENCODING 9292
SWIDTH 362 0
DWIDTH 16 0
BBX 16 16 0 -2
BITMAP
0030
FC30
6020
6820
7C32
4C30
C820
D870
B870
1870
10D8
30CC
218C
6106
4303
8601
ENDCHAR
STARTCHAR 244d
ENCODING 9293
SWIDTH 362 0
DWIDTH 16 0
BBX 16 16 0 -2
BITMAP
1000
18FF
1A03
1842
5846
7E46
4644
E46C
BC2C
9C38
0838
1838
106C
20C6
4183
8701
ENDCHAR
STARTCHAR 244e
ENCODING 9294
SWIDTH 362 0
DWIDTH 16 0
BBX 16 16 0 -2
BITMAP
0800
7CFE
B086
3086
3086
FC86
3086
3086
3486
FC86
30C6
30C6
3081
3001
3FFF
1FFF
ENDCHAR
STARTCHAR 244f
ENCODING 9295
SWIDTH 362 0
DWIDTH 16 0
BBX 16 16 0 -2
BITMAP
4002
27FF
0630
0630
8E30
D630
5630
1630
3630
2638
6668
E648
66CC
6486
6907
2E03
ENDCHAR
STARTCHAR 2450
ENCODING 9296
SWIDTH 362 0
DWIDTH 16 0
BBX 16 16 0 -2
BITMAP
2030
3030
1030
0030
89B0
4930
7936
1130
3130
3130
6330
E330
6330
67B0
64FF
283E
ENDCHAR
STARTCHAR 2451
ENCODING 9297
SWIDTH 362 0
DWIDTH 16 0
BBX 16 16 0 -2
BITMAP
2002
37FF
1030
0020
8860
4860
78E8
10A4
31A6
3323
6221
E420
6020
6020
6020
2020
ENDCHAR
STARTCHAR 2452
ENCODING 9298
SWIDTH 362 0
DWIDTH 16 0
BBX 16 16 0 -2
BITMAP
0008
3FFC
0180
0182
7FFF
0180
0180
0180
0100
0180
218C
1918
03C0
0660
181F
E007
ENDCHAR
STARTCHAR 2453
ENCODING 9299
SWIDTH 362 0
DWIDTH 16 0
BBX 16 16 0 -2
BITMAP
0300
0302
7FFF
0630
0C18
180E
3187
C183
318C
1998
0BC0
0260
0430
0818
300F
E003
ENDCHAR
STARTCHAR 2454
ENCODING 9300
SWIDTH 362 0
DWIDTH 16 0
BBX 16 16 0 -2
BITMAP
3030
3030
3030
3033
F933
31B6
30B4
3830
7030
F068
306C
30C4
3086
3186
F303
6603
ENDCHAR
STARTCHAR 2455
ENCODING 9301
SWIDTH 362 0
DWIDTH 16 0
BBX 16 16 0 -2
BITMAP
1882
7983
7992
7D92
7F92
D992
9992
9992
1D92
F992
D992
1912
1912
1B12
1A02
1C02
ENDCHAR
STARTCHAR 2456
ENCODING 9302
SWIDTH 362 0
DWIDTH 16 0
BBX 16 16 0 -2
BITMAP
0870
5860
3060
31FE
5066
9866
1866
1866
3BFF
6860
C848
08C4
08C6
1983
7B03
3601
ENDCHAR
STARTCHAR 2457
ENCODING 9303
SWIDTH 362 0
DWIDTH 16 0
BBX 16 16 0 -2
BITMAP
1218
DB10
7210
6210
F210
1210
1BFF
3A10
3A10
5A10
9A10
1A10
1A11
1BD1
739F
231F
ENDCHAR
STARTCHAR 2458
ENCODING 9304
SWIDTH 362 0
DWIDTH 16 0
BBX 16 16 0 -2
BITMAP
0800
59FF
3103
3102
5102
9902
1902
19FE
3902
6902
C902
0902
0902
19FE
7902
3100
ENDCHAR
STARTCHAR 2459
ENCODING 9305
SWIDTH 362 0
DWIDTH 16 0
BBX 16 16 0 -2
BITMAP
080E
59F0
3110
3110
5110
9910
19FF
1910
3918
6918
C918
0908
090C
1945
7987
3103
ENDCHAR
STARTCHAR 245a
ENCODING 9306
SWIDTH 362 0
DWIDTH 16 0
BBX 16 16 0 -2
BITMAP
0830
5830
3020
3123
53FF
9B22
1A20
1860
3878
6870
C8D0
08D0
0890
1991
7B1F
3C1F
ENDCHAR
STARTCHAR 245b
ENCODING 9307
SWIDTH 362 0
DWIDTH 16 0
BBX 16 16 0 -2
BITMAP
0800
59FF
3133
3132
5132
9932
1932
19FE
3902
6900
C900
0900
0901
1903
79FF
3000
ENDCHAR
STARTCHAR 245c
ENCODING 9308
SWIDTH 362 0
DWIDTH 16 0
BBX 16 16 0 -2
BITMAP
0004
0FFE
FC44
3044
3044
3044
385C
33FC
3044
3044
3044
3C44
F044
C045
0047
0047
ENDCHAR
STARTCHAR 245d
ENCODING 9309
SWIDTH 362 0
DWIDTH 16 0
BBX 16 16 0 -2
BITMAP
0030
0C30
FC30
3030
3030
3032
39FF
3030
3030
3030
3030
3C30
F030
C030
0033
0000
ENDCHAR
STARTCHAR 245e
ENCODING 9310
SWIDTH 362 0
DWIDTH 16 0
BBX 16 16 0 -2
BITMAP
0402
FFFF
1040
1040
104E
10C6
10C6
10E6
10D6
10DC
1084
1084
1084
109D
F1E7
2187
ENDCHAR
STARTCHAR 245f
ENCODING 9311
SWIDTH 362 0
DWIDTH 16 0
BBX 16 16 0 -2
BITMAP
0033
0033
CC26
FC64
B44C
B4C8
B498
FD30
B530
B498
B44C
FC64
8436
0033
0013
0013
ENDCHAR
STARTCHAR 2460
ENCODING 9312
SWIDTH 362 0
DWIDTH 16 0
BBX 16 16 0 -2
BITMAP
0080
20C3
3FFF
A000
E00C
E20C
220C
2308
6118
E1B0
60F0
60E0
60F0
4198
C60F
9C06
ENDCHAR
STARTCHAR 2461
ENCODING 9313
SWIDTH 362 0
DWIDTH 16 0
BBX 16 16 0 -2
BITMAP
0080
30C3
3FFF
B20C
F30C
720C
320C
320C
320C
F20C
B20C
23FC
600C
600C
400C
800C
ENDCHAR
STARTCHAR 2462
ENCODING 9314
SWIDTH 362 0
DWIDTH 16 0
BBX 16 16 0 -2
BITMAP
0080
30C3
3FFF
B000
F7FF
7100
3300
3300
33FE
F006
B006
2006
6006
6004
40FC
8018
ENDCHAR
STARTCHAR 2463
ENCODING 9315
SWIDTH 362 0
DWIDTH 16 0
BBX 16 16 0 -2
BITMAP
0648
7E5C
0632
6437
3C18
180C
303F
D81B
1818
1818
1818
18F0
1832
1804
1FFC
0FFC
ENDCHAR
STARTCHAR 2464
ENCODING 9316
SWIDTH 362 0
DWIDTH 16 0
BBX 16 16 0 -2
BITMAP
0007
FD86
CD86
C986
C986
F986
C986
C986
C986
C986
C9FE
C806
C806
C806
0006
0006
ENDCHAR
STARTCHAR 2465
ENCODING 9317
SWIDTH 362 0
DWIDTH 16 0
BBX 16 16 0 -2
BITMAP
1800
3000
3006
3003
6042
5FE2
D862
1FE2
1862
1862
1FE2
1862
1FE6
1006
007C
0018
ENDCHAR
STARTCHAR 2466
ENCODING 9318
SWIDTH 362 0
DWIDTH 16 0
BBX 16 16 0 -2
BITMAP
2008
3FFC
300C
3FFC
300C
3FFC
300C
3FFC
3000
3000
300C
3000
3000
3002
3FFE
1FFE
ENDCHAR
STARTCHAR 2467
ENCODING 9319
SWIDTH 362 0
DWIDTH 16 0
BBX 16 16 0 -2
BITMAP
0000
7DFF
2183
2182
6182
6182
7D82
ED82
ED82
ED9E
6D84
6D80
7D80
6981
41FF
00FF
ENDCHAR
STARTCHAR 2468
ENCODING 9320
SWIDTH 362 0
DWIDTH 16 0
BBX 16 16 0 -2
BITMAP
00F8
3F80
0182
7FFF
07E0
0DB8
1986
7103
8000
0180
0100
0380
0660
0C38
300F
E007
ENDCHAR
STARTCHAR 2469
ENCODING 9321
SWIDTH 362 0
DWIDTH 16 0
BBX 16 16 0 -2
BITMAP
0180
4083
7FFF
CC62
9874
303E
4000
7FFF
0180
0180
0180
0180
0180
0180
1F80
0300
ENDCHAR
STARTCHAR 246a
ENCODING 9322
SWIDTH 362 0
DWIDTH 16 0
BBX 16 16 0 -2
BITMAP
4004
7FFE
6666
6666
7FFE
4000
0003
0180
0180
0180
0180
0180
0180
0180
1F80
0300
ENDCHAR
STARTCHAR 246b
ENCODING 9323
SWIDTH 362 0
DWIDTH 16 0
BBX 16 16 0 -2
BITMAP
4004
7FFE
6186
63C6
6636
7C16
4304
0180
FFFF
3000
3000
3000
3000
3000
3FFE
0000
ENDCHAR
STARTCHAR 246c
ENCODING 9324
SWIDTH 362 0
DWIDTH 16 0
BBX 16 16 0 -2
BITMAP
0460
0463
FC7F
0560
0180
0180
7FFC
0180
0180
0183
FFFF
0180
0180
0180
0180
0100
ENDCHAR
STARTCHAR 246d
ENCODING 9325
SWIDTH 362 0
DWIDTH 16 0
BBX 16 16 0 -2
BITMAP
0202
FEFF
6C06
6C0C
6C18
6C30
6C20
6C60
7CC0
6CC0
6D80
6D80
FD81
CD81
0DFF
0CFF
ENDCHAR
STARTCHAR 246e
ENCODING 9326
SWIDTH 362 0
DWIDTH 16 0
BBX 16 16 0 -2
BITMAP
4802
7DFF
4C10
4C10
7C10
5C10
4DFF
4C10
4C10
7C10
4C10
4C10
CC10
CC10
BCF0
9820
ENDCHAR
STARTCHAR 246f
ENCODING 9327
SWIDTH 362 0
DWIDTH 16 0
BBX 16 16 0 -2
BITMAP
4908
7DFC
498C
498C
698C
59CC
49AC
49BC
598C
798C
498C
490C
C90C
CB0D
BA0F
9C07
ENDCHAR
STARTCHAR 2470
ENCODING 9328
SWIDTH 362 0
DWIDTH 16 0
BBX 16 16 0 -2
BITMAP
4807
7D66
4936
4916
6884
588C
488C
48C8
5858
7870
6830
4870
C8D8
C98C
BB07
9E03
ENDCHAR
STARTCHAR 2471
ENCODING 9329
SWIDTH 362 0
DWIDTH 16 0
BBX 16 16 0 -2
BITMAP
4006
7FFE
60C0
60C0
60C0
6FFC
6C0C
6C0C
6C0C
6C0C
6FFC
60C0
60C0
60C0
60C6
4000
ENDCHAR
STARTCHAR 2472
ENCODING 9330
SWIDTH 362 0
DWIDTH 16 0
BBX 16 16 0 -2
BITMAP
0002
FFFF
0300
320C
3FFC
300C
300C
3FFC
300C
300C
300C
3FFC
300C
300C
300C
300C
ENDCHAR
STARTCHAR 2473
ENCODING 9331
SWIDTH 362 0
DWIDTH 16 0
BBX 16 16 0 -2
BITMAP
1870
1860
7F60
4360
4360
4360
7F60
4360
4360
4360
7F60
4360
4361
4361
7F7F
423F
ENDCHAR
STARTCHAR 2474
ENCODING 9332
SWIDTH 362 0
DWIDTH 16 0
BBX 16 16 0 -2
BITMAP
0200
0F00
787E
6006
6006
6006
6006
6206
7E7E
6006
6006
6006
6006
6206
7E7E
4002
ENDCHAR
STARTCHAR 2475
ENCODING 9333
SWIDTH 362 0
DWIDTH 16 0
BBX 16 16 0 -2
BITMAP
1C18
1A13
FE7F
1810
0004
7FFC
0180
0180
0180
FFFF
0180
0180
0180
0180
0180
0100
ENDCHAR
STARTCHAR 2476
ENCODING 9334
SWIDTH 362 0
DWIDTH 16 0
BBX 16 16 0 -2
BITMAP
1C18
1A13
FE7F
1810
0018
7FF8
0618
0618
0658
7FF8
0618
0618
0618
0619
061F
040F
ENDCHAR
STARTCHAR 2477
ENCODING 9335
SWIDTH 362 0
DWIDTH 16 0
BBX 16 16 0 -2
BITMAP
1C18
1A13
FE7F
1810
0060
0040
00C6
00C0
01C0
03C0
0640
0C40
1840
3040
E040
0040
ENDCHAR
STARTCHAR 2478
ENCODING 9336
SWIDTH 362 0
DWIDTH 16 0
BBX 16 16 0 -2
BITMAP
1C18
1A13
FE7F
1810
0000
FFFF
0460
0460
0C60
0C60
0C60
0860
1861
3061
607F
C03F
ENDCHAR
STARTCHAR 2479
ENCODING 9337
SWIDTH 362 0
DWIDTH 16 0
BBX 16 16 0 -2
BITMAP
1C18
1A13
FE7F
1910
0180
0180
0182
7FFF
0180
0380
0340
0660
0430
0818
300F
E003
ENDCHAR
STARTCHAR 247a
ENCODING 9338
SWIDTH 362 0
DWIDTH 16 0
BBX 16 16 0 -2
BITMAP
1C18
1810
FF7F
1810
1810
200C
3FFC
200C
200C
200C
200C
200C
200C
200C
3FFC
2008
ENDCHAR
STARTCHAR 247b
ENCODING 9339
SWIDTH 362 0
DWIDTH 16 0
BBX 16 16 0 -2
BITMAP
1C18
1A13
FE7F
1910
0180
0180
7FFC
6184
6184
6184
6184
6184
6184
61BC
619C
0100
ENDCHAR
STARTCHAR 247c
ENCODING 9340
SWIDTH 362 0
DWIDTH 16 0
BBX 16 16 0 -2
BITMAP
1C18
1A13
FE7F
1810
001C
0FFC
7A00
0200
0202
FFFF
0200
0200
0202
0202
03FE
01FE
ENDCHAR
STARTCHAR 247d
ENCODING 9341
SWIDTH 362 0
DWIDTH 16 0
BBX 16 16 0 -2
BITMAP
1810
FF7F
1810
3000
3006
3FFE
6000
C008
9FFC
0070
0380
0E00
3802
6002
7FFE
3FFE
ENDCHAR
STARTCHAR 247e
ENCODING 9342
SWIDTH 362 0
DWIDTH 16 0
BBX 16 16 0 -2
BITMAP
0040
4060
37FF
1300
0300
3300
FB00
3300
7B00
7B00
1B00
31FF
3000
7800
CFFF
01FC
ENDCHAR
STARTCHAR 2521
ENCODING 9505
SWIDTH 362 0
DWIDTH 16 0
BBX 16 16 0 -2
BITMAP
0006
43FE
3020
1020
0020
3022
FBFE
3020
7820
7820
1820
3020
3020
7800
CFFF
01FC
ENDCHAR
STARTCHAR 2522
ENCODING 9506
SWIDTH 362 0
DWIDTH 16 0
BBX 16 16 0 -2
BITMAP
0000
43FF
318C
118C
018C
318C
F98C
318C
798C
790C
1B0C
320C
340C
7800
CFFF
01FC
ENDCHAR
STARTCHAR 2523
ENCODING 9507
SWIDTH 362 0
DWIDTH 16 0
BBX 16 16 0 -2
BITMAP
0004
41FE
3000
1000
03FF
3180
F984
31FE
7806
7806
1806
300C
30FC
7818
CFFF
01FC
ENDCHAR
STARTCHAR 2524
ENCODING 9508
SWIDTH 362 0
DWIDTH 16 0
BBX 16 16 0 -2
BITMAP
0204
43FE
3306
1306
0306
3306
FBFE
3300
7B00
7B00
1B02
33FE
31FE
7800
CFFF
01FC
ENDCHAR
STARTCHAR 2525
ENCODING 9509
SWIDTH 362 0
DWIDTH 16 0
BBX 16 16 0 -2
BITMAP
0122
7FBF
3132
3136
3134
313C
3136
FFF2
2333
2331
2331
233F
2337
2330
33B0
0030
ENDCHAR
STARTCHAR 2526
ENCODING 9510
SWIDTH 362 0
DWIDTH 16 0
BBX 16 16 0 -2
BITMAP
0C22
0C3F
0832
FFB6
0834
083C
0FB6
23B2
3333
1331
0E31
0E3F
0E37
1B30
61B0
C030
ENDCHAR
STARTCHAR 2527
ENCODING 9511
SWIDTH 362 0
DWIDTH 16 0
BBX 16 16 0 -2
BITMAP
0C22
0C3F
0DB2
0C36
0834
FFBC
C9B6
C9B2
C9B3
C9B1
C9B1
C9BF
CFB7
C930
0830
0830
ENDCHAR
STARTCHAR 2528
ENCODING 9512
SWIDTH 362 0
DWIDTH 16 0
BBX 16 16 0 -2
BITMAP
0C22
0C3F
0832
0A36
6B34
69BC
48B6
C832
89B3
0931
0B31
063F
0C37
1830
3030
C030
ENDCHAR
STARTCHAR 2529
ENCODING 9513
SWIDTH 362 0
DWIDTH 16 0
BBX 16 16 0 -2
BITMAP
0122
FFBF
1C22
1826
3024
222C
C326
6622
3423
1C21
1821
103F
3227
6720
FDA0
4120
ENDCHAR
STARTCHAR 252a
ENCODING 9514
SWIDTH 362 0
DWIDTH 16 0
BBX 16 16 0 -2
BITMAP
0322
1FBF
6832
0836
0834
083C
08B6
FFB2
0833
0831
0831
083F
0837
0FB0
F830
4030
ENDCHAR
STARTCHAR 252b
ENCODING 9515
SWIDTH 362 0
DWIDTH 16 0
BBX 16 16 0 -2
BITMAP
1004
1FFC
1800
1818
1FF8
1800
1818
1800
1800
FFFF
0C00
0C00
1808
3004
7FFE
6002
ENDCHAR
STARTCHAR 252c
ENCODING 9516
SWIDTH 362 0
DWIDTH 16 0
BBX 16 16 0 -2
BITMAP
98C0
F8C0
D9FF
D100
F302
E600
D000
D9FE
C81C
C830
C860
F8C0
D101
C301
C3FF
C1FF
ENDCHAR
STARTCHAR 252d
ENCODING 9517
SWIDTH 362 0
DWIDTH 16 0
BBX 16 16 0 -2
BITMAP
9888
F8FC
D88C
D08C
F18C
E107
D300
DBFC
C884
C88C
C848
F878
D038
C07E
C187
C703
ENDCHAR
STARTCHAR 252e
ENCODING 9518
SWIDTH 362 0
DWIDTH 16 0
BBX 16 16 0 -2
BITMAP
9830
F830
D820
D020
F022
E7F6
D0B8
D8B0
C9A8
C9A8
C92C
FB26
D223
C623
CDE0
C060
ENDCHAR
STARTCHAR 252f
ENCODING 9519
SWIDTH 362 0
DWIDTH 16 0
BBX 16 16 0 -2
BITMAP
3226
3666
2666
2666
3E7E
2206
2016
2FF6
2006
2606
3E7E
6666
6666
4666
C666
8224
ENDCHAR
STARTCHAR 2530
ENCODING 9520
SWIDTH 362 0
DWIDTH 16 0
BBX 16 16 0 -2
BITMAP
1070
1860
FF60
4360
6660
2460
2560
FF60
1860
1860
1B60
1860
1861
1861
187F
183F
ENDCHAR
STARTCHAR 2531
ENCODING 9521
SWIDTH 362 0
DWIDTH 16 0
BBX 16 16 0 -2
BITMAP
188E
18F0
FE82
18FF
3E8C
F98C
590C
320C
0408
3FF8
00F0
0380
1C02
7002
7FFE
7FFE
ENDCHAR
STARTCHAR 2532
ENCODING 9522
SWIDTH 362 0
DWIDTH 16 0
BBX 16 16 0 -2
BITMAP
0006
0000
0C0C
1818
3030
6060
C6C6
3C3C
1818
3434
6262
FFFF
E3E3
0000
0003
0000
ENDCHAR
STARTCHAR 2533
ENCODING 9523
SWIDTH 362 0
DWIDTH 16 0
BBX 16 16 0 -2
BITMAP
0180
7FFF
0180
3FFC
218C
218C
239C
27E8
0DB8
319F
E186
000C
3FFC
0000
0002
FFFF
ENDCHAR
STARTCHAR 2534
ENCODING 9524
SWIDTH 362 0
DWIDTH 16 0
BBX 16 16 0 -2
BITMAP
0200
0300
0183
0000
0000
7FFE
6006
6006
67E6
6466
6466
67E6
6006
6006
7FFE
4004
ENDCHAR
STARTCHAR 2535
ENCODING 9525
SWIDTH 362 0
DWIDTH 16 0
BBX 16 16 0 -2
BITMAP
1C18
1818
1810
1830
3C3C
2666
4243
8091
1C18
1818
1818
1C38
362C
2266
42C3
8183
ENDCHAR
STARTCHAR 2536
ENCODING 9526
SWIDTH 362 0
DWIDTH 16 0
BBX 16 16 0 -2
BITMAP
1C18
1816
1812
3010
37FF
7010
7018
B7D8
3198
3198
3188
31EC
378D
3407
3007
3003
ENDCHAR
STARTCHAR 2537
ENCODING 9527
SWIDTH 362 0
DWIDTH 16 0
BBX 16 16 0 -2
BITMAP
1C14
1812
1810
37FF
3010
7190
7193
B192
31DE
379E
319C
310C
331D
363D
30C7
3183
ENDCHAR
STARTCHAR 2538
ENCODING 9528
SWIDTH 362 0
DWIDTH 16 0
BBX 16 16 0 -2
BITMAP
1C70
1860
1866
3060
3060
77FF
7060
B060
336C
3366
3263
3663
3C61
3060
31E0
30C0
ENDCHAR
STARTCHAR 2539
ENCODING 9529
SWIDTH 362 0
DWIDTH 16 0
BBX 16 16 0 -2
BITMAP
1CD8
18D8
18D8
30D8
32DE
76DB
76DA
B6DA
36DA
37FE
36DA
36DA
36DA
36DA
37FE
3602
ENDCHAR
STARTCHAR 253a
ENCODING 9530
SWIDTH 362 0
DWIDTH 16 0
BBX 16 16 0 -2
BITMAP
3198
2D90
29B0
69B3
69BF
E9A6
E9F6
69D6
6996
6F9C
698C
618C
619C
61B6
61A3
41C3
ENDCHAR
STARTCHAR 253b
ENCODING 9531
SWIDTH 362 0
DWIDTH 16 0
BBX 16 16 0 -2
BITMAP
1C60
1820
1BFF
3603
340C
700C
700F
B00C
3108
3188
3088
3008
3008
3008
3078
3018
ENDCHAR
STARTCHAR 253c
ENCODING 9532
SWIDTH 362 0
DWIDTH 16 0
BBX 16 16 0 -2
BITMAP
1C00
1FFF
1E00
3600
36FE
7610
7610
B610
36FE
3610
3610
3612
36FE
3600
3603
3600
ENDCHAR
STARTCHAR 253d
ENCODING 9533
SWIDTH 362 0
DWIDTH 16 0
BBX 16 16 0 -2
BITMAP
1D80
1900
1BFF
3200
3706
7136
7136
B136
37FF
3326
3326
3326
33FF
3006
303C
3008
ENDCHAR
STARTCHAR 253e
ENCODING 9534
SWIDTH 362 0
DWIDTH 16 0
BBX 16 16 0 -2
BITMAP
0180
0380
0660
0C30
181C
3FFF
C000
0004
7FFE
0180
1988
19FC
1980
1980
1983
0000
ENDCHAR
STARTCHAR 253f
ENCODING 9535
SWIDTH 362 0
DWIDTH 16 0
BBX 16 16 0 -2
BITMAP
1C1C
1818
DADA
D8D8
D8D8
D8D8
D8D8
FFFF
1818
1C1C
141C
343C
352C
266D
46CF
8307
ENDCHAR
STARTCHAR 2540
ENCODING 9536
SWIDTH 362 0
DWIDTH 16 0
BBX 16 16 0 -2
BITMAP
0070
C064
63FE
2066
0867
1066
1066
33FC
2060
63FE
E060
C063
67FF
6060
6060
0060
ENDCHAR
STARTCHAR 2541
ENCODING 9537
SWIDTH 362 0
DWIDTH 16 0
BBX 16 16 0 -2
BITMAP
01C0
C180
61FC
238C
0A88
0C58
1070
1078
30CE
2307
E7FC
C104
6104
6104
61FC
0104
ENDCHAR
STARTCHAR 2542
ENCODING 9538
SWIDTH 362 0
DWIDTH 16 0
BBX 16 16 0 -2
BITMAP
0402
C7FF
6672
2662
0E62
17FE
1662
3662
2672
665A
E6DA
C68A
670A
6602
67FE
0402
ENDCHAR
STARTCHAR 2543
ENCODING 9539
SWIDTH 362 0
DWIDTH 16 0
BBX 16 16 0 -2
BITMAP
00C0
C0FC
6198
2110
0BFE
1066
1066
37FF
2066
6066
E3FE
C060
6060
6060
61E0
00C0
ENDCHAR
STARTCHAR 2544
ENCODING 9540
SWIDTH 362 0
DWIDTH 16 0
BBX 16 16 0 -2
BITMAP
0004
7FFE
6C06
6C06
6FF6
6986
7186
6196
6FFE
6186
6D96
6D96
4D97
4FF3
C013
8001
ENDCHAR
STARTCHAR 2545
ENCODING 9541
SWIDTH 362 0
DWIDTH 16 0
BBX 16 16 0 -2
BITMAP
2008
7FFC
600C
7FFC
630C
626C
6FEC
6C6C
6C6C
6FEC
6C6C
6C6C
6C65
4C67
C003
8003
ENDCHAR
STARTCHAR 2546
ENCODING 9542
SWIDTH 362 0
DWIDTH 16 0
BBX 16 16 0 -2
BITMAP
0400
6EFC
388C
3C88
6488
F488
3088
FE88
2088
2C88
6888
7888
5588
FF89
B30F
0207
ENDCHAR
STARTCHAR 2547
ENCODING 9543
SWIDTH 362 0
DWIDTH 16 0
BBX 16 16 0 -2
BITMAP
0C03
0C03
08B2
FFB2
0832
0832
0932
7FB2
0032
7FB2
41B2
41B2
4182
4182
7F9E
4106
ENDCHAR
STARTCHAR 2548
ENCODING 9544
SWIDTH 362 0
DWIDTH 16 0
BBX 16 16 0 -2
BITMAP
0C03
1C03
1E32
3332
21B2
40B2
8132
7F32
0032
4132
7FB2
41B2
4182
4182
7F9E
4106
ENDCHAR
STARTCHAR 2549
ENCODING 9545
SWIDTH 362 0
DWIDTH 16 0
BBX 16 16 0 -2
BITMAP
1F03
1E03
1E1A
DE92
7E92
7F12
3E12
1E12
3F92
DE92
DE92
1612
3602
2642
47DE
8386
ENDCHAR
STARTCHAR 254a
ENCODING 9546
SWIDTH 362 0
DWIDTH 16 0
BBX 16 16 0 -2
BITMAP
7003
6003
619A
6C12
CC12
8C12
0C92
7FD2
0C12
4C92
4C92
4C92
4C82
4C82
FF9E
0086
ENDCHAR
STARTCHAR 254b
ENCODING 9547
SWIDTH 362 0
DWIDTH 16 0
BBX 16 16 0 -2
BITMAP
1803
1903
3FB2
2332
5E32
0C32
1832
3C32
CDB2
18F2
31B2
6F32
0602
0C02
301E
E006
ENDCHAR
STARTCHAR 254c
ENCODING 9548
SWIDTH 362 0
DWIDTH 16 0
BBX 16 16 0 -2
BITMAP
3003
3103
3F9A
6112
7312
9E12
0E12
1B12
3192
60D2
FF92
6192
6182
6182
7F9E
6086
ENDCHAR
STARTCHAR 254d
ENCODING 9549
SWIDTH 362 0
DWIDTH 16 0
BBX 16 16 0 -2
BITMAP
1803
1C03
1332
21B2
40B2
8032
7FB2
0832
0832
0932
7F32
0832
0802
0B82
FE1E
4006
ENDCHAR
STARTCHAR 254e
ENCODING 9550
SWIDTH 362 0
DWIDTH 16 0
BBX 16 16 0 -2
BITMAP
0C03
0C03
1B1A
3192
20D2
4152
BF12
0012
0092
7FD2
1812
3012
2102
4382
FCDE
4046
ENDCHAR
STARTCHAR 254f
ENCODING 9551
SWIDTH 362 0
DWIDTH 16 0
BBX 16 16 0 -2
BITMAP
4318
6610
2410
FF10
267F
2613
2613
2613
FF13
2633
2633
6623
6663
4643
C6DE
858C
ENDCHAR
STARTCHAR 2550
ENCODING 9552
SWIDTH 362 0
DWIDTH 16 0
BBX 16 16 0 -2
BITMAP
0183
FFB3
3122
3FA2
7322
DE22
8C22
181E
6304
0304
7FFE
0206
0406
0804
307C
E018
ENDCHAR
STARTCHAR 2551
ENCODING 9553
SWIDTH 362 0
DWIDTH 16 0
BBX 16 16 0 -2
BITMAP
3000
3002
3FFF
2183
6302
4382
8462
0FFA
301A
0FF2
0832
0822
0FE6
0806
007C
0018
ENDCHAR
STARTCHAR 2552
ENCODING 9554
SWIDTH 362 0
DWIDTH 16 0
BBX 16 16 0 -2
BITMAP
3000
3002
3FFF
2103
6B62
4C32
8B22
0922
3FFA
0822
1922
1822
11E6
2066
007C
0018
ENDCHAR
STARTCHAR 2553
ENCODING 9555
SWIDTH 362 0
DWIDTH 16 0
BBX 16 16 0 -2
BITMAP
2008
3FFC
218C
218C
3FFC
218C
318C
368C
0CC0
0880
18C3
00C0
0080
0080
0080
0080
ENDCHAR
STARTCHAR 2554
ENCODING 9556
SWIDTH 362 0
DWIDTH 16 0
BBX 16 16 0 -2
BITMAP
00C0
60C6
60FE
68C4
6FFE
6A1E
69B6
68E6
68F6
699E
6E0E
6FFE
6804
6000
6003
4000
ENDCHAR
STARTCHAR 2555
ENCODING 9557
SWIDTH 362 0
DWIDTH 16 0
BBX 16 16 0 -2
BITMAP
1B1C
1B18
1A18
DAD8
7ADC
7B9E
3B1B
1B1B
3B99
DAD8
DA58
1218
3218
2258
43D8
81D8
ENDCHAR
STARTCHAR 2556
ENCODING 9558
SWIDTH 362 0
DWIDTH 16 0
BBX 16 16 0 -2
BITMAP
0322
633F
1E33
1E33
6333
D133
1833
18B3
FFB3
1633
3633
3C3F
6D36
59B0
FFB0
90B0
ENDCHAR
STARTCHAR 2557
ENCODING 9559
SWIDTH 362 0
DWIDTH 16 0
BBX 16 16 0 -2
BITMAP
3022
303F
33B3
6C33
C833
8833
08B3
FFF3
0833
69B3
49B3
49BF
49B6
49B0
FFB0
0130
ENDCHAR
STARTCHAR 2558
ENCODING 9560
SWIDTH 362 0
DWIDTH 16 0
BBX 16 16 0 -2
BITMAP
4002
7FFF
60C0
60C0
60CC
60C0
60C0
7FFF
6040
6648
664C
4C46
4842
D042
83C0
8080
ENDCHAR
STARTCHAR 2559
ENCODING 9561
SWIDTH 362 0
DWIDTH 16 0
BBX 16 16 0 -2
BITMAP
0180
0183
FFFF
218C
3FFC
218C
3FFC
218C
318C
330C
0300
0600
0C18
180C
3FFC
3006
ENDCHAR
STARTCHAR 255a
ENCODING 9562
SWIDTH 362 0
DWIDTH 16 0
BBX 16 16 0 -2
BITMAP
0102
FFFF
C142
C162
FF26
CC26
CC26
FFB4
ED1C
ED18
ED18
ED3C
ED34
AF66
8CC3
0D83
ENDCHAR
STARTCHAR 255b
ENCODING 9563
SWIDTH 362 0
DWIDTH 16 0
BBX 16 16 0 -2
BITMAP
0060
0030
D833
D830
D830
D830
D830
D830
D9FF
D830
D830
F830
C030
0030
0033
0000
ENDCHAR
STARTCHAR 255c
ENCODING 9564
SWIDTH 362 0
DWIDTH 16 0
BBX 16 16 0 -2
BITMAP
0080
07C6
F8C4
D8CC
DACC
DECC
DE08
DE18
DFD8
D8D8
D8D0
F8F2
D0F3
00FF
07B1
0300
ENDCHAR
STARTCHAR 255d
ENCODING 9565
SWIDTH 362 0
DWIDTH 16 0
BBX 16 16 0 -2
BITMAP
00C0
00CC
D884
D880
DBFF
D980
D986
D9C6
D9C4
D92C
D93C
FB18
C338
0266
04C3
0B01
ENDCHAR
STARTCHAR 255e
ENCODING 9566
SWIDTH 362 0
DWIDTH 16 0
BBX 16 16 0 -2
BITMAP
0002
03FF
D842
D8C2
D8C2
D886
D9BE
DB0C
DA06
D9FE
D906
F906
C106
0106
01FE
0102
ENDCHAR
STARTCHAR 255f
ENCODING 9567
SWIDTH 362 0
DWIDTH 16 0
BBX 16 16 0 -2
BITMAP
0000
03FE
DB06
DB06
DB06
DB06
DB06
DBFE
DB06
D800
D98C
F986
C302
0303
0603
0C01
ENDCHAR
STARTCHAR 2560
ENCODING 9568
SWIDTH 362 0
DWIDTH 16 0
BBX 16 16 0 -2
BITMAP
031C
0358
F358
F258
D65B
D7FB
DE5B
DE5B
D65A
D65E
D658
F648
C641
0641
067F
067F
ENDCHAR
STARTCHAR 2561
ENCODING 9569
SWIDTH 362 0
DWIDTH 16 0
BBX 16 16 0 -2
BITMAP
0030
0070
D850
D8C8
D98C
D937
DA33
DC20
D924
D926
DB23
FA23
C420
0020
01E0
0060
ENDCHAR
STARTCHAR 2562
ENCODING 9570
SWIDTH 362 0
DWIDTH 16 0
BBX 16 16 0 -2
BITMAP
0030
0030
D822
DFFF
D820
D9A6
D9A4
D984
D984
DFFF
D984
F984
C104
0304
0204
0404
ENDCHAR
STARTCHAR 2563
ENCODING 9571
SWIDTH 362 0
DWIDTH 16 0
BBX 16 16 0 -2
BITMAP
0002
03FF
D802
D812
D9FA
D802
D932
D932
D912
D912
D932
F932
C002
0002
003E
0006
ENDCHAR
STARTCHAR 2564
ENCODING 9572
SWIDTH 362 0
DWIDTH 16 0
BBX 16 16 0 -2
BITMAP
001E
03E0
DB03
DB03
DB03
DBFF
DB00
DBFE
DB06
DB18
DB30
FB60
C2C0
0781
05FF
08FF
ENDCHAR
STARTCHAR 2565
ENCODING 9573
SWIDTH 362 0
DWIDTH 16 0
BBX 16 16 0 -2
BITMAP
2060
3023
23FF
2602
F800
2003
23FF
2030
2030
2030
2030
3830
7030
C030
01F0
0060
ENDCHAR
STARTCHAR 2566
ENCODING 9574
SWIDTH 362 0
DWIDTH 16 0
BBX 16 16 0 -2
BITMAP
2060
3020
23FF
2203
FE34
2010
20D0
20D8
20D8
2088
208C
398C
7106
C307
0203
0401
ENDCHAR
STARTCHAR 2567
ENCODING 9575
SWIDTH 362 0
DWIDTH 16 0
BBX 16 16 0 -2
BITMAP
2030
3030
2020
27FF
F820
2020
2022
23FE
2070
20F0
20F8
39AC
7327
C623
0C20
0020
ENDCHAR
STARTCHAR 2568
ENCODING 9576
SWIDTH 362 0
DWIDTH 16 0
BBX 16 16 0 -2
BITMAP
20C0
30CC
2084
2080
FBFF
2180
2186
21C6
21C4
212C
213C
3B18
7338
C266
04C3
0B01
ENDCHAR
STARTCHAR 2569
ENCODING 9577
SWIDTH 362 0
DWIDTH 16 0
BBX 16 16 0 -2
BITMAP
200E
33FC
2364
2364
FB64
2364
2364
2364
2364
2366
2366
3A46
72DA
C69F
05EF
0881
ENDCHAR
STARTCHAR 256a
ENCODING 9578
SWIDTH 362 0
DWIDTH 16 0
BBX 16 16 0 -2
BITMAP
0600
0C10
1808
3FFC
3D06
0180
0302
0E60
0C30
199F
6187
DFFC
0180
0180
0183
0000
ENDCHAR
STARTCHAR 256b
ENCODING 9579
SWIDTH 362 0
DWIDTH 16 0
BBX 16 16 0 -2
BITMAP
0004
3FFC
1998
0D90
0DA6
7FFE
0180
0180
0180
0100
0180
018C
3FFC
0180
0182
FFFF
ENDCHAR
STARTCHAR 256c
ENCODING 9580
SWIDTH 362 0
DWIDTH 16 0
BBX 16 16 0 -2
BITMAP
1C02
187F
1B42
1862
1826
1826
FF26
1C34
181C
1818
7F18
183C
1834
1F66
F8C3
4183
ENDCHAR
STARTCHAR 256d
ENCODING 9581
SWIDTH 362 0
DWIDTH 16 0
BBX 16 16 0 -2
BITMAP
2206
3303
2202
23FE
FA22
2260
2264
23FE
2264
2264
2264
3A64
76C4
C6C5
0587
0307
ENDCHAR
STARTCHAR 256e
ENCODING 9582
SWIDTH 362 0
DWIDTH 16 0
BBX 16 16 0 -2
BITMAP
2000
33DF
225B
225B
FA5B
225B
225B
225B
22DB
225B
2203
3A03
7203
C203
03FF
0202
ENDCHAR
STARTCHAR 256f
ENCODING 9583
SWIDTH 362 0
DWIDTH 16 0
BBX 16 16 0 -2
BITMAP
0006
0100
0180
210C
1B18
06E0
0C1C
180E
E403
2C10
1FF8
1C30
33E0
63E0
0E7F
F00F
ENDCHAR
STARTCHAR 2570
ENCODING 9584
SWIDTH 362 0
DWIDTH 16 0
BBX 16 16 0 -2
BITMAP
0018
71D0
6190
6990
7DFF
4D10
CB10
DA10
B810
19FF
1010
3010
2010
6010
4010
83FF
ENDCHAR
STARTCHAR 2571
ENCODING 9585
SWIDTH 362 0
DWIDTH 16 0
BBX 16 16 0 -2
BITMAP
0100
0302
7FFF
0630
0C18
182E
3427
C24B
3FF8
0180
0184
7FFE
0180
0180
0180
0100
ENDCHAR
STARTCHAR 2572
ENCODING 9586
SWIDTH 362 0
DWIDTH 16 0
BBX 16 16 0 -2
BITMAP
0100
0302
7FFF
0630
0C18
180E
300F
FFFF
1000
1FF8
1018
1018
1FF8
1000
1004
3FFE
ENDCHAR
STARTCHAR 2573
ENCODING 9587
SWIDTH 362 0
DWIDTH 16 0
BBX 16 16 0 -2
BITMAP
0100
0302
7FFF
0630
0C18
180E
3FF7
C813
0810
0FF0
0810
0810
0FF0
0810
0C36
0000
ENDCHAR
STARTCHAR 2574
ENCODING 9588
SWIDTH 362 0
DWIDTH 16 0
BBX 16 16 0 -2
BITMAP
0100
0302
7FFF
0630
0F18
1A0E
3437
C87B
1F88
1C20
0422
7FFE
0C20
0820
1020
6020
ENDCHAR
STARTCHAR 2575
ENCODING 9589
SWIDTH 362 0
DWIDTH 16 0
BBX 16 16 0 -2
BITMAP
0100
0302
7FFF
0630
0C18
187E
3FF7
D8C3
18C0
1FFC
1840
1860
1E32
1C1E
186E
0000
ENDCHAR
STARTCHAR 2576
ENCODING 9590
SWIDTH 362 0
DWIDTH 16 0
BBX 16 16 0 -2
BITMAP
0300
0302
7FFE
0C10
180E
307F
DFF8
1110
1110
1110
1310
3318
3218
266C
6FF6
CC16
ENDCHAR
STARTCHAR 2577
ENCODING 9591
SWIDTH 362 0
DWIDTH 16 0
BBX 16 16 0 -2
BITMAP
0300
0600
3FFC
300C
300C
3FFC
300C
300C
3FFC
0180
0303
07C0
0460
083C
300F
C002
ENDCHAR
STARTCHAR 2578
ENCODING 9592
SWIDTH 362 0
DWIDTH 16 0
BBX 16 16 0 -2
BITMAP
1818
1818
1818
7E7F
1818
1818
1A18
FFFF
1818
1838
343C
3664
2666
62C3
4183
8301
ENDCHAR
STARTCHAR 2579
ENCODING 9593
SWIDTH 362 0
DWIDTH 16 0
BBX 16 16 0 -2
BITMAP
0180
0306
7FFE
4666
3C38
1FFC
3007
FFFF
0800
1818
1FF8
0018
0018
0018
03F0
0060
ENDCHAR
STARTCHAR 257a
ENCODING 9594
SWIDTH 362 0
DWIDTH 16 0
BBX 16 16 0 -2
BITMAP
1860
1060
1E64
7046
7C44
4DFF
CCC4
FCCC
988C
1988
1998
30F0
303C
6066
4183
8301
ENDCHAR
STARTCHAR 257b
ENCODING 9595
SWIDTH 362 0
DWIDTH 16 0
BBX 16 16 0 -2
BITMAP
2030
6030
6030
6C33
FC3F
EC30
6C30
6C30
4D36
C983
F982
3182
3D82
6782
C1FE
0102
ENDCHAR
STARTCHAR 257c
ENCODING 9596
SWIDTH 362 0
DWIDTH 16 0
BBX 16 16 0 -2
BITMAP
401C
61D8
6198
7B18
FB3F
FEDB
7EDB
5B9B
D91B
D39B
F2DB
37D3
3E73
4823
C05E
018C
ENDCHAR
STARTCHAR 257d
ENCODING 9597
SWIDTH 362 0
DWIDTH 16 0
BBX 16 16 0 -2
BITMAP
2018
6013
6013
69FF
FD10
E910
6913
6913
4912
D91E
F91C
310C
39DD
6DB7
C163
01C1
ENDCHAR
STARTCHAR 257e
ENCODING 9598
SWIDTH 362 0
DWIDTH 16 0
BBX 16 16 0 -2
BITMAP
2018
6193
6193
69FF
FD00
E9FF
6900
6900
4900
D900
F900
3100
3B00
6F00
C200
0600
ENDCHAR
STARTCHAR 2621
ENCODING 9761
SWIDTH 362 0
DWIDTH 16 0
BBX 16 16 0 -2
BITMAP
2060
63C3
637F
6B7B
FF7B
EB7B
6B7B
6B7B
4B7B
DBFB
FBDB
335F
38DE
6C98
C118
0618
ENDCHAR
STARTCHAR 2622
ENCODING 9762
SWIDTH 362 0
DWIDTH 16 0
BBX 16 16 0 -2
BITMAP
0430
7E20
0C60
18CC
1086
1183
13FF
3D81
F000
51FE
1186
1186
1186
1186
F1FE
2182
ENDCHAR
STARTCHAR 2623
ENCODING 9763
SWIDTH 362 0
DWIDTH 16 0
BBX 16 16 0 -2
BITMAP
0188
1198
0990
49A0
FFFF
C003
8034
0070
00C0
0180
0183
0180
0180
0180
0F80
0300
ENDCHAR
STARTCHAR 2624
ENCODING 9764
SWIDTH 362 0
DWIDTH 16 0
BBX 16 16 0 -2
BITMAP
0C30
0C30
7FA0
0820
7FA0
C1A0
8620
0720
0C20
0820
0F20
FC20
0821
0821
783F
181F
ENDCHAR
STARTCHAR 2625
ENCODING 9765
SWIDTH 362 0
DWIDTH 16 0
BBX 16 16 0 -2
BITMAP
0300
4180
7FFF
C003
8000
7FFE
0400
0C10
0FF8
0818
1B10
11B0
00B0
0030
0033
0000
ENDCHAR
STARTCHAR 2626
ENCODING 9766
SWIDTH 362 0
DWIDTH 16 0
BBX 16 16 0 -2
BITMAP
1018
100C
1008
1FF8
1008
1FF8
0008
3FFC
0010
0012
7FFE
1810
0C10
0010
03F0
0060
ENDCHAR
STARTCHAR 2627
ENCODING 9767
SWIDTH 362 0
DWIDTH 16 0
BBX 16 16 0 -2
BITMAP
3018
3018
30FF
309B
FE98
3CFE
3CA6
3CA4
3C9C
2D98
2D3E
6E67
6D81
4C01
CFFF
87FF
ENDCHAR
STARTCHAR 2628
ENCODING 9768
SWIDTH 362 0
DWIDTH 16 0
BBX 16 16 0 -2
BITMAP
3060
3060
3063
3060
FE60
3C42
3CFE
3CC8
3C88
2D08
2E08
6C7F
6C00
4C01
CFFF
87FF
ENDCHAR
STARTCHAR 2629
ENCODING 9769
SWIDTH 362 0
DWIDTH 16 0
BBX 16 16 0 -2
BITMAP
4000
64FF
4618
C218
EC18
6C1A
6C7E
6C18
6C18
6C18
6C1B
6C00
4C00
4C01
CFFF
87FF
ENDCHAR
STARTCHAR 262a
ENCODING 9770
SWIDTH 362 0
DWIDTH 16 0
BBX 16 16 0 -2
BITMAP
4006
7FFE
6006
7FFE
6000
60FC
6FC0
60C0
60CE
601E
4070
41C0
CE00
F800
A7FF
81FE
ENDCHAR
STARTCHAR 262b
ENCODING 9771
SWIDTH 362 0
DWIDTH 16 0
BBX 16 16 0 -2
BITMAP
4006
7FFE
6006
7FFE
6610
660C
6C06
7B02
6B18
660C
4618
4930
D0E0
C1F0
871F
B807
ENDCHAR
STARTCHAR 262c
ENCODING 9772
SWIDTH 362 0
DWIDTH 16 0
BBX 16 16 0 -2
BITMAP
4006
7FFE
6006
7FFE
6040
607C
6FFC
6840
6840
6FFE
49C6
43C6
C646
CC4E
9840
A040
ENDCHAR
STARTCHAR 262d
ENCODING 9773
SWIDTH 362 0
DWIDTH 16 0
BBX 16 16 0 -2
BITMAP
218C
318C
318C
230C
0600
1808
3FFC
3188
3088
FFFF
2308
2188
300E
2018
01F0
0060
ENDCHAR
STARTCHAR 262e
ENCODING 9774
SWIDTH 362 0
DWIDTH 16 0
BBX 16 16 0 -2
BITMAP
2018
3013
2013
A1FF
AD10
AD10
AD13
AD13
AD12
AD1E
AD1C
AD0C
FDDD
01B7
0163
01C1
ENDCHAR
STARTCHAR 262f
ENCODING 9775
SWIDTH 362 0
DWIDTH 16 0
BBX 16 16 0 -2
BITMAP
2002
31FF
2182
A182
AD82
AD82
AD82
AD6E
AC68
AC48
ACC8
ACC8
FD88
0109
030F
0607
ENDCHAR
STARTCHAR 2630
ENCODING 9776
SWIDTH 362 0
DWIDTH 16 0
BBX 16 16 0 -2
BITMAP
200E
31F0
2183
A183
AD83
ADFF
AD80
ADFE
AD86
AD88
AD90
AD20
FF40
03C1
02FF
047F
ENDCHAR
STARTCHAR 2631
ENCODING 9777
SWIDTH 362 0
DWIDTH 16 0
BBX 16 16 0 -2
BITMAP
2184
6186
618C
600C
3FF8
3008
3008
3008
FFFF
3000
3FFC
000C
000C
0018
03F0
0060
ENDCHAR
STARTCHAR 2632
ENCODING 9778
SWIDTH 362 0
DWIDTH 16 0
BBX 16 16 0 -2
BITMAP
0018
0038
00E0
018C
7D98
05F0
0DB0
199F
6787
C100
0180
318C
318C
218C
318C
200C
ENDCHAR
STARTCHAR 2633
ENCODING 9779
SWIDTH 362 0
DWIDTH 16 0
BBX 16 16 0 -2
BITMAP
0180
7186
6184
7FFC
0000
7FFE
6000
6000
67F0
6610
6610
67F0
6400
6000
6006
6000
ENDCHAR
STARTCHAR 2634
ENCODING 9780
SWIDTH 362 0
DWIDTH 16 0
BBX 16 16 0 -2
BITMAP
0180
7186
6184
7FFC
0004
0000
3FFC
218C
218C
218C
3FFC
218C
218C
218C
3FFC
2008
ENDCHAR
STARTCHAR 2635
ENCODING 9781
SWIDTH 362 0
DWIDTH 16 0
BBX 16 16 0 -2
BITMAP
3030
3093
31FF
FF02
B400
B403
B5FF
B418
B418
B418
BC18
BC18
3018
3018
30F8
3030
ENDCHAR
STARTCHAR 2636
ENCODING 9782
SWIDTH 362 0
DWIDTH 16 0
BBX 16 16 0 -2
BITMAP
3060
3040
34FE
FEC6
B5EC
B53C
B418
B43C
B467
B4E3
B518
BC08
3000
3030
3018
300C
ENDCHAR
STARTCHAR 2637
ENCODING 9783
SWIDTH 362 0
DWIDTH 16 0
BBX 16 16 0 -2
BITMAP
3000
3F7E
2346
6646
5C5E
8C45
1863
317F
C180
7FFC
6184
6184
6184
61BC
619C
0100
ENDCHAR
STARTCHAR 2638
ENCODING 9784
SWIDTH 362 0
DWIDTH 16 0
BBX 16 16 0 -2
BITMAP
0180
4083
7FFF
6080
6042
7FFF
600C
640C
6608
6218
6318
4110
41B0
C020
9FFF
8000
ENDCHAR
STARTCHAR 2639
ENCODING 9785
SWIDTH 362 0
DWIDTH 16 0
BBX 16 16 0 -2
BITMAP
0180
4083
7FFF
6710
6618
7FFF
6600
670C
668C
6488
6458
4C70
4870
D8D8
B18F
AE03
ENDCHAR
STARTCHAR 263a
ENCODING 9786
SWIDTH 362 0
DWIDTH 16 0
BBX 16 16 0 -2
BITMAP
0180
4083
7FFF
6000
6FFC
6C0C
6C0C
6C0C
6FFC
6C0C
6C0C
4FFC
4C0C
C000
8003
8000
ENDCHAR
STARTCHAR 263b
ENCODING 9787
SWIDTH 362 0
DWIDTH 16 0
BBX 16 16 0 -2
BITMAP
0180
4083
7FFF
600C
6FFC
6C0C
6C0C
6C0C
6C0C
6FFC
6000
4610
4408
C804
9006
A002
ENDCHAR
STARTCHAR 263c
ENCODING 9788
SWIDTH 362 0
DWIDTH 16 0
BBX 16 16 0 -2
BITMAP
0180
4083
7FFF
6C00
6C00
6FFF
6980
6980
7186
6180
6180
4184
41FE
C180
8180
8180
ENDCHAR
STARTCHAR 263d
ENCODING 9789
SWIDTH 362 0
DWIDTH 16 0
BBX 16 16 0 -2
BITMAP
0180
4083
7FFF
60C0
61E0
6330
661C
6FFF
7803
67FC
6018
4030
41E0
C0C0
8070
8030
ENDCHAR
STARTCHAR 263e
ENCODING 9790
SWIDTH 362 0
DWIDTH 16 0
BBX 16 16 0 -2
BITMAP
0180
4083
7FFF
6600
6600
67FE
6C40
6840
7040
7FFF
60C0
4090
4188
C304
8606
9802
ENDCHAR
STARTCHAR 263f
ENCODING 9791
SWIDTH 362 0
DWIDTH 16 0
BBX 16 16 0 -2
BITMAP
0180
018C
7FFC
0180
0183
0C60
0C60
183F
603F
DC18
1810
FFFF
1810
3010
6010
C010
ENDCHAR
STARTCHAR 2640
ENCODING 9792
SWIDTH 362 0
DWIDTH 16 0
BBX 16 16 0 -2
BITMAP
0902
FDFF
0982
0982
4982
49FE
C190
CD90
FDFF
0D90
0D98
0D98
0D8D
0DAD
F9C7
3183
ENDCHAR
STARTCHAR 2641
ENCODING 9793
SWIDTH 362 0
DWIDTH 16 0
BBX 16 16 0 -2
BITMAP
0818
FC10
0810
09FF
4993
4992
C190
CDFE
FDC6
0DE4
0DAC
0D38
0D18
0F3C
FA47
3583
ENDCHAR
STARTCHAR 2642
ENCODING 9794
SWIDTH 362 0
DWIDTH 16 0
BBX 16 16 0 -2
BITMAP
0C10
0FF8
1810
1FF0
0033
1F40
3660
2C66
DFFE
3466
E466
0466
0466
047E
046C
0040
ENDCHAR
STARTCHAR 2643
ENCODING 9795
SWIDTH 362 0
DWIDTH 16 0
BBX 16 16 0 -2
BITMAP
1C02
1806
1804
1908
1FB0
1802
1806
180C
DB18
C330
C123
C102
C104
C108
FF10
C160
ENDCHAR
STARTCHAR 2644
ENCODING 9796
SWIDTH 362 0
DWIDTH 16 0
BBX 16 16 0 -2
BITMAP
007C
1F80
1000
1FFF
1010
1010
3010
3010
2010
4110
08C0
4C44
4802
CC1B
8FF1
07F0
ENDCHAR
STARTCHAR 2645
ENCODING 9797
SWIDTH 362 0
DWIDTH 16 0
BBX 16 16 0 -2
BITMAP
0180
03C0
0660
0C38
1C3F
6C37
8C30
0C30
1830
3030
4180
0CC4
4802
CC1B
CFF1
07F0
ENDCHAR
STARTCHAR 2646
ENCODING 9798
SWIDTH 362 0
DWIDTH 16 0
BBX 16 16 0 -2
BITMAP
3060
3023
23FF
3602
3800
B803
A3FF
A030
2030
2030
2030
2030
2030
2030
21F0
2060
ENDCHAR
STARTCHAR 2647
ENCODING 9799
SWIDTH 362 0
DWIDTH 16 0
BBX 16 16 0 -2
BITMAP
3030
3030
3030
33FF
7830
FC30
F032
B1FF
3030
3078
30FC
30BC
3137
3233
3430
3030
ENDCHAR
STARTCHAR 2648
ENCODING 9800
SWIDTH 362 0
DWIDTH 16 0
BBX 16 16 0 -2
BITMAP
3070
3060
3060
3063
7FFF
FC68
F0C8
B0CC
31B6
3333
3623
35FC
3020
3020
3020
3020
ENDCHAR
STARTCHAR 2649
ENCODING 9801
SWIDTH 362 0
DWIDTH 16 0
BBX 16 16 0 -2
BITMAP
3070
3060
3063
30C0
78C0
FC84
F182
B3FB
3358
3058
30D8
30D8
3098
3199
331F
360F
ENDCHAR
STARTCHAR 264a
ENCODING 9802
SWIDTH 362 0
DWIDTH 16 0
BBX 16 16 0 -2
BITMAP
3202
33FF
3333
3333
7B33
FF33
F333
B333
33FF
3232
3030
3030
3030
3030
3030
3030
ENDCHAR
STARTCHAR 264b
ENCODING 9803
SWIDTH 362 0
DWIDTH 16 0
BBX 16 16 0 -2
BITMAP
3106
31FE
3186
31B6
7996
FD86
F7FF
B106
3126
3136
3106
3106
33FF
3004
307C
3018
ENDCHAR
STARTCHAR 264c
ENCODING 9804
SWIDTH 362 0
DWIDTH 16 0
BBX 16 16 0 -2
BITMAP
3030
3030
31B3
3133
7932
FD32
F132
B3FE
3032
3030
3333
3333
3333
3333
3333
3303
ENDCHAR
STARTCHAR 264d
ENCODING 9805
SWIDTH 362 0
DWIDTH 16 0
BBX 16 16 0 -2
BITMAP
30C0
30C4
21FE
3184
3B4C
BA78
A030
A078
20CE
21C7
2638
2018
2000
2060
2018
2008
ENDCHAR
STARTCHAR 264e
ENCODING 9806
SWIDTH 362 0
DWIDTH 16 0
BBX 16 16 0 -2
BITMAP
31C7
3186
2186
3106
397F
BB06
A306
A726
2136
2116
2106
2106
2106
2106
211E
210C
ENDCHAR
STARTCHAR 264f
ENCODING 9807
SWIDTH 362 0
DWIDTH 16 0
BBX 16 16 0 -2
BITMAP
3006
31FF
3118
3118
7918
FD1B
F1FF
B118
3118
3118
3108
310C
31CD
3187
310F
3001
ENDCHAR
STARTCHAR 2650
ENCODING 9808
SWIDTH 362 0
DWIDTH 16 0
BBX 16 16 0 -2
BITMAP
0006
7FFE
0600
0610
3FF8
0418
0C18
0C1B
FFFF
0100
0C80
4CC0
4806
CC1B
CFF1
07F0
ENDCHAR
STARTCHAR 2651
ENCODING 9809
SWIDTH 362 0
DWIDTH 16 0
BBX 16 16 0 -2
BITMAP
3060
3070
2078
30CC
398E
BB07
AE03
A1FE
2020
2020
2020
2020
2020
2020
2033
2000
ENDCHAR
STARTCHAR 2652
ENCODING 9810
SWIDTH 362 0
DWIDTH 16 0
BBX 16 16 0 -2
BITMAP
3004
3CFE
2626
2026
FE26
20FE
2426
2626
3426
3CFE
1826
1826
3866
3E47
46C7
8383
ENDCHAR
STARTCHAR 2653
ENCODING 9811
SWIDTH 362 0
DWIDTH 16 0
BBX 16 16 0 -2
BITMAP
0034
0032
0032
FFFF
0C30
0C32
1B33
31B2
7E96
C314
3F9C
0318
021D
042D
08C7
0303
ENDCHAR
STARTCHAR 2654
ENCODING 9812
SWIDTH 362 0
DWIDTH 16 0
BBX 16 16 0 -2
BITMAP
3198
3196
3BD2
6E70
CC73
0030
0012
0016
0016
0014
001C
0018
001D
002D
00C7
0303
ENDCHAR
STARTCHAR 2655
ENCODING 9813
SWIDTH 362 0
DWIDTH 16 0
BBX 16 16 0 -2
BITMAP
00FE
7F00
6006
6003
6002
7FFE
6042
6060
60C3
60C0
6040
4444
4C42
C843
9041
8040
ENDCHAR
STARTCHAR 2656
ENCODING 9814
SWIDTH 362 0
DWIDTH 16 0
BBX 16 16 0 -2
BITMAP
00FE
7F00
6006
6003
6002
7FFE
6008
7FFC
6608
6618
67FE
448C
4C78
C838
90DF
A707
ENDCHAR
STARTCHAR 2657
ENCODING 9815
SWIDTH 362 0
DWIDTH 16 0
BBX 16 16 0 -2
BITMAP
4C0E
6DFE
4830
4830
4832
F9FF
0830
0830
7833
4830
4830
4830
4830
C830
C9F0
8860
ENDCHAR
STARTCHAR 2658
ENCODING 9816
SWIDTH 362 0
DWIDTH 16 0
BBX 16 16 0 -2
BITMAP
3060
3020
33FF
3203
FE34
3010
30D0
38D8
70D8
F088
308C
318C
3106
3307
F203
6401
ENDCHAR
STARTCHAR 2659
ENCODING 9817
SWIDTH 362 0
DWIDTH 16 0
BBX 16 16 0 -2
BITMAP
3000
3033
301A
30C6
F8C4
30CC
30C8
38D8
72D2
F2F3
36E1
32E1
30C2
31C4
F37E
6C00
ENDCHAR
STARTCHAR 265a
ENCODING 9818
SWIDTH 362 0
DWIDTH 16 0
BBX 16 16 0 -2
BITMAP
1818
1818
1A18
19FF
1818
FF18
DB1E
DA46
DA46
DA24
DA3C
DA18
DA18
DE2C
1847
1183
ENDCHAR
STARTCHAR 265b
ENCODING 9819
SWIDTH 362 0
DWIDTH 16 0
BBX 16 16 0 -2
BITMAP
CC1C
CC18
C818
C87F
C818
CB18
FF1E
C823
C822
C826
C81C
C81C
D918
ED3C
CF67
41C3
ENDCHAR
STARTCHAR 265c
ENCODING 9820
SWIDTH 362 0
DWIDTH 16 0
BBX 16 16 0 -2
BITMAP
1830
1830
1820
1B63
FFFF
9A66
18E6
18A4
1C34
1C1C
3C18
3C18
2D1C
6E26
4C47
8183
ENDCHAR
STARTCHAR 265d
ENCODING 9821
SWIDTH 362 0
DWIDTH 16 0
BBX 16 16 0 -2
BITMAP
CC30
CC30
CC20
CC63
CC7F
CD66
FFE6
CCA4
CC34
CC1C
CC18
CC18
DC9C
EF26
C7C7
4183
ENDCHAR
STARTCHAR 265e
ENCODING 9822
SWIDTH 362 0
DWIDTH 16 0
BBX 16 16 0 -2
BITMAP
1830
1830
3620
2363
437F
8066
7EE6
00A4
0234
7F1C
0218
0618
061C
0C26
0C47
1983
ENDCHAR
STARTCHAR 265f
ENCODING 9823
SWIDTH 362 0
DWIDTH 16 0
BBX 16 16 0 -2
BITMAP
3018
3010
7F10
401F
C210
0010
0636
7E47
0446
1824
302C
6018
C118
C32C
FF47
0383
ENDCHAR
STARTCHAR 2660
ENCODING 9824
SWIDTH 362 0
DWIDTH 16 0
BBX 16 16 0 -2
BITMAP
1818
1810
1B10
181F
DA10
DB10
DA36
DA47
DA46
FE24
1A2C
1818
1A18
1E2C
1C47
0983
ENDCHAR
STARTCHAR 2661
ENCODING 9825
SWIDTH 362 0
DWIDTH 16 0
BBX 16 16 0 -2
BITMAP
0030
0010
F998
D988
D98C
D90C
DB46
FA67
DA43
DCC1
D880
D988
F904
831E
03E6
0102
ENDCHAR
STARTCHAR 2662
ENCODING 9826
SWIDTH 362 0
DWIDTH 16 0
BBX 16 16 0 -2
BITMAP
0180
318C
3188
3188
3FF8
0180
FFFF
0000
1018
1018
1018
1FF8
1018
1018
1FF8
1008
ENDCHAR
STARTCHAR 2663
ENCODING 9827
SWIDTH 362 0
DWIDTH 16 0
BBX 16 16 0 -2
BITMAP
1C00
180C
1FFE
3364
6664
0CC4
198C
1378
0610
1FFC
100C
1008
1FF8
1008
1FF8
1008
ENDCHAR
STARTCHAR 2664
ENCODING 9828
SWIDTH 362 0
DWIDTH 16 0
BBX 16 16 0 -2
BITMAP
0802
7DFF
4860
4860
4860
7864
49FE
4846
4846
7846
48C6
48C6
C8C6
C8C6
B8C7
9800
ENDCHAR
STARTCHAR 2665
ENCODING 9829
SWIDTH 362 0
DWIDTH 16 0
BBX 16 16 0 -2
BITMAP
60C0
60C0
66C6
60C0
60C0
60C1
7EFF
707E
0180
0180
FFFF
0180
199C
3186
E182
0100
ENDCHAR
STARTCHAR 2666
ENCODING 9830
SWIDTH 362 0
DWIDTH 16 0
BBX 16 16 0 -2
BITMAP
3023
31F3
3032
FC32
3132
3132
7B02
7F32
73F2
F032
B032
B032
3032
3032
31E2
30C2
ENDCHAR
STARTCHAR 2667
ENCODING 9831
SWIDTH 362 0
DWIDTH 16 0
BBX 16 16 0 -2
BITMAP
301E
31FC
31A4
FDA4
31A4
31A4
79A4
7DA4
71A4
F1A4
B126
B126
3326
3222
3623
3C21
ENDCHAR
STARTCHAR 2668
ENCODING 9832
SWIDTH 362 0
DWIDTH 16 0
BBX 16 16 0 -2
BITMAP
0460
0463
FC7F
0460
0180
0180
0183
0380
0380
07C0
05B0
0998
118F
6187
8180
0100
ENDCHAR
STARTCHAR 2669
ENCODING 9833
SWIDTH 362 0
DWIDTH 16 0
BBX 16 16 0 -2
BITMAP
3030
3030
3033
FC30
3030
31FF
7933
7D32
7132
F132
B132
B132
313E
3136
3030
3030
ENDCHAR
STARTCHAR 266a
ENCODING 9834
SWIDTH 362 0
DWIDTH 16 0
BBX 16 16 0 -2
BITMAP
318C
310C
2108
F908
2108
6108
710C
7B9C
EB9C
A39C
A2D4
2656
2672
2423
2C43
3881
ENDCHAR
STARTCHAR 266b
ENCODING 9835
SWIDTH 362 0
DWIDTH 16 0
BBX 16 16 0 -2
BITMAP
00C0
18C0
18CC
18C0
1880
1883
FFFF
0180
0180
FFFF
0180
1990
198C
2186
C182
0100
ENDCHAR
STARTCHAR 266c
ENCODING 9836
SWIDTH 362 0
DWIDTH 16 0
BBX 16 16 0 -2
BITMAP
0670
7E60
6C60
6C63
6C7F
6CD2
6E90
6C10
6C30
6C38
6C38
6C2C
6C6C
4C46
CCC3
8D81
ENDCHAR
STARTCHAR 266d
ENCODING 9837
SWIDTH 362 0
DWIDTH 16 0
BBX 16 16 0 -2
BITMAP
3070
3060
7F60
4043
C2FF
00D2
0490
7E10
0C30
1838
3038
602C
C26C
C246
FEC3
0381
ENDCHAR
STARTCHAR 266e
ENCODING 9838
SWIDTH 362 0
DWIDTH 16 0
BBX 16 16 0 -2
BITMAP
7060
6060
6060
4343
7FFF
DAD2
9890
1810
1830
1838
3C38
342C
266C
62C6
4183
8301
ENDCHAR
STARTCHAR 266f
ENCODING 9839
SWIDTH 362 0
DWIDTH 16 0
BBX 16 16 0 -2
BITMAP
2C30
3630
6320
41E3
C1FF
7E5A
20D8
6218
7F18
0318
023C
0234
0264
0646
7CC3
0981
ENDCHAR
STARTCHAR 2670
ENCODING 9840
SWIDTH 362 0
DWIDTH 16 0
BBX 16 16 0 -2
BITMAP
1830
1830
3620
2363
437F
E65A
A6D8
2618
2618
2618
263C
6634
6624
4666
C643
8481
ENDCHAR
STARTCHAR 2671
ENCODING 9841
SWIDTH 362 0
DWIDTH 16 0
BBX 16 16 0 -2
BITMAP
3070
3060
3360
307F
325B
FF5E
0298
0218
1A18
F218
C23C
0234
0226
0646
3EC3
0D83
ENDCHAR
STARTCHAR 2672
ENCODING 9842
SWIDTH 362 0
DWIDTH 16 0
BBX 16 16 0 -2
BITMAP
301C
3018
3018
3018
3418
3678
F65A
3658
3658
3658
3658
3658
3658
3758
FCDB
4000
ENDCHAR
STARTCHAR 2673
ENCODING 9843
SWIDTH 362 0
DWIDTH 16 0
BBX 16 16 0 -2
BITMAP
0070
FC60
2060
21FE
7C66
6C66
4C66
CC66
BFFF
1860
1848
30C4
3086
6183
4303
8601
ENDCHAR
STARTCHAR 2674
ENCODING 9844
SWIDTH 362 0
DWIDTH 16 0
BBX 16 16 0 -2
BITMAP
0030
FC30
2020
203F
7C20
6C20
4C36
CD86
B886
188C
184C
3078
3030
607C
418F
8703
ENDCHAR
STARTCHAR 2675
ENCODING 9845
SWIDTH 362 0
DWIDTH 16 0
BBX 16 16 0 -2
BITMAP
0018
FC10
2010
2010
7D90
6D90
4D92
CD90
B990
1990
1990
3110
3310
6390
467F
8C3E
ENDCHAR
STARTCHAR 2676
ENCODING 9846
SWIDTH 362 0
DWIDTH 16 0
BBX 16 16 0 -2
BITMAP
000E
FDFC
2180
2180
7D80
6DFF
4D8C
CD8C
B98C
198C
198C
310C
330C
630C
420C
840C
ENDCHAR
STARTCHAR 2677
ENCODING 9847
SWIDTH 362 0
DWIDTH 16 0
BBX 16 16 0 -2
BITMAP
0000
FF83
210F
210F
7DCB
6D6B
4D3B
CD1B
B93B
192F
196F
31C7
3183
6103
43FF
8003
ENDCHAR
STARTCHAR 2678
ENCODING 9848
SWIDTH 362 0
DWIDTH 16 0
BBX 16 16 0 -2
BITMAP
1844
187E
1864
1B64
FF44
9AC7
1880
18FE
1C46
1C24
3C2C
3C38
2D18
6E2C
4C47
8183
ENDCHAR
STARTCHAR 2679
ENCODING 9849
SWIDTH 362 0
DWIDTH 16 0
BBX 16 16 0 -2
BITMAP
180C
18FE
1830
FF30
1836
1830
1E30
47FF
4630
2430
3C31
183F
1C1F
3600
63FF
C0FF
ENDCHAR
STARTCHAR 267a
ENCODING 9850
SWIDTH 362 0
DWIDTH 16 0
BBX 16 16 0 -2
BITMAP
4C1C
4DF0
4C60
4C60
4C62
4DFE
4060
4060
7C62
4DFF
4C60
4C60
CC61
CC61
8C7F
8C3F
ENDCHAR
STARTCHAR 267b
ENCODING 9851
SWIDTH 362 0
DWIDTH 16 0
BBX 16 16 0 -2
BITMAP
4206
2606
0606
07FE
8E46
D660
5668
17FC
366C
266C
666C
E64C
66CC
648D
6D0F
2E07
ENDCHAR
STARTCHAR 267c
ENCODING 9852
SWIDTH 362 0
DWIDTH 16 0
BBX 16 16 0 -2
BITMAP
2300
3300
1306
0300
8B00
4B00
7BFF
11FF
3030
3030
6036
E030
6020
6020
6020
27FF
ENDCHAR
STARTCHAR 267d
ENCODING 9853
SWIDTH 362 0
DWIDTH 16 0
BBX 16 16 0 -2
BITMAP
2030
3030
1022
03FF
8820
49A6
79A4
1184
3184
37FF
6184
E184
6104
6304
6204
2404
ENDCHAR
STARTCHAR 267e
ENCODING 9854
SWIDTH 362 0
DWIDTH 16 0
BBX 16 16 0 -2
BITMAP
4198
2110
0110
07D0
8B10
D310
5390
17D0
3710
2510
6510
E110
6111
6111
611F
211F
ENDCHAR
STARTCHAR 2721
ENCODING 10017
SWIDTH 362 0
DWIDTH 16 0
BBX 16 16 0 -2
BITMAP
2202
33FF
1203
020B
8AFF
4A4B
7A4B
127B
3233
3233
626F
E2C7
6303
6203
63FF
2202
ENDCHAR
STARTCHAR 2722
ENCODING 10018
SWIDTH 362 0
DWIDTH 16 0
BBX 16 16 0 -2
BITMAP
2030
3030
1063
0060
88C0
48C4
7986
13FB
33D8
30D8
60D8
E098
6198
6119
631F
260F
ENDCHAR
STARTCHAR 2723
ENCODING 10019
SWIDTH 362 0
DWIDTH 16 0
BBX 16 16 0 -2
BITMAP
200E
30F8
1320
0020
8822
4FFF
7870
1070
30F8
30B8
61AC
E326
6623
6C21
6020
2020
ENDCHAR
STARTCHAR 2724
ENCODING 10020
SWIDTH 362 0
DWIDTH 16 0
BBX 16 16 0 -2
BITMAP
2206
3303
1202
03FE
8A02
4A0C
7A7E
1244
3244
3244
6244
E6C4
66C4
6485
7907
2607
ENDCHAR
STARTCHAR 2725
ENCODING 10021
SWIDTH 362 0
DWIDTH 16 0
BBX 16 16 0 -2
BITMAP
2030
3030
1336
0336
8B26
4B26
7BFE
1326
3326
3326
67FF
E306
6306
6306
631E
230C
ENDCHAR
STARTCHAR 2726
ENCODING 10022
SWIDTH 362 0
DWIDTH 16 0
BBX 16 16 0 -2
BITMAP
21C0
3180
1182
01FF
8B32
4A30
7830
11B0
31B6
3133
6333
E231
6430
6030
61F0
2060
ENDCHAR
STARTCHAR 2727
ENCODING 10023
SWIDTH 362 0
DWIDTH 16 0
BBX 16 16 0 -2
BITMAP
3040
3020
3222
33FF
BF33
FB33
733B
336B
334F
33CF
3387
7B03
6F03
4F03
C31F
8306
ENDCHAR
STARTCHAR 2728
ENCODING 10024
SWIDTH 362 0
DWIDTH 16 0
BBX 16 16 0 -2
BITMAP
30C0
30C0
3080
31FF
BDEB
F96B
736B
327B
305B
30DB
30B3
79B3
6F63
4CC3
C19E
800C
ENDCHAR
STARTCHAR 2729
ENCODING 10025
SWIDTH 362 0
DWIDTH 16 0
BBX 16 16 0 -2
BITMAP
1C18
1810
FFFF
1810
1810
1FF0
1810
0180
0180
218C
1B90
0BC0
0660
0C38
300F
E007
ENDCHAR
STARTCHAR 272a
ENCODING 10026
SWIDTH 362 0
DWIDTH 16 0
BBX 16 16 0 -2
BITMAP
0180
018C
0F98
0FF0
0DE0
19B8
378F
C302
0180
218C
3998
1BD0
0660
0C38
300F
E007
ENDCHAR
STARTCHAR 272b
ENCODING 10027
SWIDTH 362 0
DWIDTH 16 0
BBX 16 16 0 -2
BITMAP
0180
218C
1B18
0AE0
0418
180E
3003
D980
1980
3180
31FE
7180
F181
3183
31FF
30FE
ENDCHAR
STARTCHAR 272c
ENCODING 10028
SWIDTH 362 0
DWIDTH 16 0
BBX 16 16 0 -2
BITMAP
007E
7FC0
000C
210C
1198
1010
000C
0180
0180
0180
FFFF
0180
0180
0180
018C
0000
ENDCHAR
STARTCHAR 272d
ENCODING 10029
SWIDTH 362 0
DWIDTH 16 0
BBX 16 16 0 -2
BITMAP
4C30
6C30
4830
4830
48B3
FFF7
08FC
08F8
48B8
48BC
49B4
4936
4B33
CE31
CCF0
8860
ENDCHAR
STARTCHAR 272e
ENCODING 10030
SWIDTH 362 0
DWIDTH 16 0
BBX 16 16 0 -2
BITMAP
4C88
4CFC
4CCC
4CCC
4C8C
4D87
4100
42FE
7C86
4CCC
4C48
4C38
CC38
CC7E
8CC7
8F03
ENDCHAR
STARTCHAR 272f
ENCODING 10031
SWIDTH 362 0
DWIDTH 16 0
BBX 16 16 0 -2
BITMAP
180C
780C
786C
7C2C
7E0C
D80C
98CC
984C
1C0C
F80F
D9FF
180C
180C
180C
180C
100C
ENDCHAR
STARTCHAR 2730
ENCODING 10032
SWIDTH 362 0
DWIDTH 16 0
BBX 16 16 0 -2
BITMAP
1830
7030
5020
5123
FFFF
D322
9220
1060
3C78
F070
D0D0
10D0
1090
1191
131F
161F
ENDCHAR
STARTCHAR 2731
ENCODING 10033
SWIDTH 362 0
DWIDTH 16 0
BBX 16 16 0 -2
BITMAP
1870
786C
7866
7C62
7E63
D860
9862
9866
1C66
F824
D83C
1838
1838
186D
18C7
1303
ENDCHAR
STARTCHAR 2732
ENCODING 10034
SWIDTH 362 0
DWIDTH 16 0
BBX 16 16 0 -2
BITMAP
1810
78C8
78CC
7C84
7F86
D903
9B03
9A66
1C66
F866
D846
18C6
1886
198C
1B7C
1E18
ENDCHAR
STARTCHAR 2733
ENCODING 10035
SWIDTH 362 0
DWIDTH 16 0
BBX 16 16 0 -2
BITMAP
1830
7030
5033
5030
FC30
D1FF
9133
1132
3D32
F132
D132
1132
113E
1136
1030
1030
ENDCHAR
STARTCHAR 2734
ENCODING 10036
SWIDTH 362 0
DWIDTH 16 0
BBX 16 16 0 -2
BITMAP
1818
1E1A
1A1B
1818
1A1B
1818
1818
1818
1C18
1438
363C
3264
2244
40C6
C183
0303
ENDCHAR
STARTCHAR 2735
ENCODING 10037
SWIDTH 362 0
DWIDTH 16 0
BBX 16 16 0 -2
BITMAP
081E
59F0
3110
3110
5110
9910
19FF
1910
3918
6918
C918
090C
094D
19C7
798F
3001
ENDCHAR
STARTCHAR 2736
ENCODING 10038
SWIDTH 362 0
DWIDTH 16 0
BBX 16 16 0 -2
BITMAP
101C
F198
6318
6318
B23F
34DB
36DB
3B9B
791B
DB9B
9ADB
1FD3
1E73
3023
F05E
618C
ENDCHAR
STARTCHAR 2737
ENCODING 10039
SWIDTH 362 0
DWIDTH 16 0
BBX 16 16 0 -2
BITMAP
1818
1012
3613
3010
1033
FE30
D610
D638
D638
D628
D66C
D66C
D6C4
DCC6
1183
1303
ENDCHAR
STARTCHAR 2738
ENCODING 10040
SWIDTH 362 0
DWIDTH 16 0
BBX 16 16 0 -2
BITMAP
0830
5836
3032
3030
53FF
9830
19B6
19B6
39B6
69B6
C9B6
09B6
0936
1B37
7E30
3030
ENDCHAR
STARTCHAR 2739
ENCODING 10041
SWIDTH 362 0
DWIDTH 16 0
BBX 16 16 0 -2
BITMAP
1300
F300
6300
635B
B7FF
337B
337B
3B7B
7B7B
DB7B
9B7B
1A7B
1E7B
345B
FFDF
6988
ENDCHAR
STARTCHAR 273a
ENCODING 10042
SWIDTH 362 0
DWIDTH 16 0
BBX 16 16 0 -2
BITMAP
0830
5830
3030
3136
51FE
99B6
19B6
19B6
39B6
6BFF
C820
0860
0846
1883
7903
3601
ENDCHAR
STARTCHAR 273b
ENCODING 10043
SWIDTH 362 0
DWIDTH 16 0
BBX 16 16 0 -2
BITMAP
0030
0C34
FC26
3020
3033
3030
3820
3070
3070
3070
30D8
3CC8
F18C
C306
0603
0C01
ENDCHAR
STARTCHAR 273c
ENCODING 10044
SWIDTH 362 0
DWIDTH 16 0
BBX 16 16 0 -2
BITMAP
0060
0C43
FCFF
30C3
3083
311E
3A04
31FE
3086
3046
306C
3C38
F038
C06C
00C7
0703
ENDCHAR
STARTCHAR 273d
ENCODING 10045
SWIDTH 362 0
DWIDTH 16 0
BBX 16 16 0 -2
BITMAP
0330
0318
031B
0300
0180
00E1
003B
000F
0002
7FFF
1830
1B30
1111
3191
7E1F
601F
ENDCHAR
STARTCHAR 273e
ENCODING 10046
SWIDTH 362 0
DWIDTH 16 0
BBX 16 16 0 -2
BITMAP
6602
66FF
6618
6618
FF18
6618
661B
6618
6618
7E18
6618
6618
6618
6618
7E18
4410
ENDCHAR
STARTCHAR 273f
ENCODING 10047
SWIDTH 362 0
DWIDTH 16 0
BBX 16 16 0 -2
BITMAP
0002
01FF
FC10
D410
D410
D410
D433
FC30
D410
D410
D410
D410
FC10
8010
0010
0010
ENDCHAR
STARTCHAR 2740
ENCODING 10048
SWIDTH 362 0
DWIDTH 16 0
BBX 16 16 0 -2
BITMAP
1870
1860
1860
FF7F
DBC3
DAC3
DB83
DB33
DA13
DA13
FE03
9803
1803
1806
183E
100C
ENDCHAR
STARTCHAR 2741
ENCODING 10049
SWIDTH 362 0
DWIDTH 16 0
BBX 16 16 0 -2
BITMAP
0180
2180
3FFC
218C
318C
318C
218C
3FFC
2C30
0C30
0C33
0C30
0820
1820
3020
C020
ENDCHAR
STARTCHAR 2742
ENCODING 10050
SWIDTH 362 0
DWIDTH 16 0
BBX 16 16 0 -2
BITMAP
00DB
00DB
98D2
ACB6
A9B4
A92C
AB48
FED8
AA48
A96C
A9B4
F8B6
88D2
00DB
007B
004B
ENDCHAR
STARTCHAR 2743
ENCODING 10051
SWIDTH 362 0
DWIDTH 16 0
BBX 16 16 0 -2
BITMAP
0080
20C3
3FFF
A000
F003
F0C0
2040
2040
6070
E04C
6046
6040
6040
4040
C040
8040
ENDCHAR
STARTCHAR 2744
ENCODING 10052
SWIDTH 362 0
DWIDTH 16 0
BBX 16 16 0 -2
BITMAP
0080
20C3
3FFF
A008
E0FC
E780
2180
2180
7186
F180
6180
6180
6181
4183
C1FF
80FE
ENDCHAR
STARTCHAR 2745
ENCODING 10053
SWIDTH 362 0
DWIDTH 16 0
BBX 16 16 0 -2
BITMAP
0080
20C3
3FFF
A180
E180
E188
2FFC
218C
6188
E1C8
6368
6328
6208
4609
CC0F
B007
ENDCHAR
STARTCHAR 2746
ENCODING 10054
SWIDTH 362 0
DWIDTH 16 0
BBX 16 16 0 -2
BITMAP
1860
1860
1860
7E60
5FFC
586C
586C
7EEC
466C
647C
5CDC
DCCC
968C
A38D
410F
0207
ENDCHAR
STARTCHAR 2747
ENCODING 10055
SWIDTH 362 0
DWIDTH 16 0
BBX 16 16 0 -2
BITMAP
0300
0180
FFFF
1000
1000
1000
1000
1FFC
0FFC
0008
3FFC
364C
3648
3648
36CF
0000
ENDCHAR
STARTCHAR 2748
ENCODING 10056
SWIDTH 362 0
DWIDTH 16 0
BBX 16 16 0 -2
BITMAP
0008
3FFC
0180
0180
0186
0180
0180
0180
0180
0100
3018
36CC
3648
3648
3648
FFFF
ENDCHAR
STARTCHAR 2749
ENCODING 10057
SWIDTH 362 0
DWIDTH 16 0
BBX 16 16 0 -2
BITMAP
0000
3FFC
0180
0180
0180
0180
0186
7FFE
0000
0008
3FFC
364C
3648
3648
3648
FFFF
ENDCHAR
STARTCHAR 274a
ENCODING 10058
SWIDTH 362 0
DWIDTH 16 0
BBX 16 16 0 -2
BITMAP
0002
FDFF
CC23
C823
C823
F923
C8A3
C8E3
C863
C863
C863
C8C3
C8C3
C983
033E
060C
ENDCHAR
STARTCHAR 274b
ENCODING 10059
SWIDTH 362 0
DWIDTH 16 0
BBX 16 16 0 -2
BITMAP
0084
FDFE
CD84
C984
C984
F9A4
C9B4
C9B4
C994
C984
C984
C984
C984
CB05
0607
0C07
ENDCHAR
STARTCHAR 274c
ENCODING 10060
SWIDTH 362 0
DWIDTH 16 0
BBX 16 16 0 -2
BITMAP
00C0
FCC0
CCC0
C8C0
CBFC
F8C4
C8C4
C8C4
C8E4
C8B4
C8B4
C984
C904
CB05
0607
0C07
ENDCHAR
STARTCHAR 274d
ENCODING 10061
SWIDTH 362 0
DWIDTH 16 0
BBX 16 16 0 -2
BITMAP
000E
FCF8
CD30
C830
C830
F830
CBFF
C830
C830
C830
C830
C830
C830
C830
0030
0030
ENDCHAR
STARTCHAR 274e
ENCODING 10062
SWIDTH 362 0
DWIDTH 16 0
BBX 16 16 0 -2
BITMAP
0004
7E0E
461C
4638
4660
7E86
4606
460C
4618
4630
46C3
4603
4606
461C
0030
01C0
ENDCHAR
STARTCHAR 274f
ENCODING 10063
SWIDTH 362 0
DWIDTH 16 0
BBX 16 16 0 -2
BITMAP
0006
FDFE
CC06
C966
C9B6
F894
C88C
C8CC
C858
C870
C830
C870
C8D8
C98E
0307
0E03
ENDCHAR
STARTCHAR 2750
ENCODING 10064
SWIDTH 362 0
DWIDTH 16 0
BBX 16 16 0 -2
BITMAP
0008
3FFC
3008
3FF8
3008
3FF8
3008
3FF8
0C30
0C30
FFFF
0C20
0820
1820
3020
C020
ENDCHAR
STARTCHAR 2751
ENCODING 10065
SWIDTH 362 0
DWIDTH 16 0
BBX 16 16 0 -2
BITMAP
0460
FE60
0C40
78FF
30C3
FE83
3703
3063
7033
7013
D003
9003
1003
1006
F03E
200C
ENDCHAR
STARTCHAR 2752
ENCODING 10066
SWIDTH 362 0
DWIDTH 16 0
BBX 16 16 0 -2
BITMAP
19C0
F980
1982
19B0
5930
5A30
C030
DBFF
F830
1830
1828
1864
18C6
1883
F103
2601
ENDCHAR
STARTCHAR 2753
ENCODING 10067
SWIDTH 362 0
DWIDTH 16 0
BBX 16 16 0 -2
BITMAP
0006
FDFE
2006
20A6
60B6
6094
7CCC
EC4C
EC58
EC70
6C30
6C70
7C58
688E
4107
0603
ENDCHAR
STARTCHAR 2754
ENCODING 10068
SWIDTH 362 0
DWIDTH 16 0
BBX 16 16 0 -2
BITMAP
0040
FC30
2030
23FF
6180
6180
7D80
ED80
ED80
ED80
6D80
6D80
7D80
69FE
40FF
0000
ENDCHAR
STARTCHAR 2755
ENCODING 10069
SWIDTH 362 0
DWIDTH 16 0
BBX 16 16 0 -2
BITMAP
1C02
79FF
1006
1008
7C10
3010
3810
3C1E
77F0
7110
D010
9010
1010
1010
10F0
1020
ENDCHAR
STARTCHAR 2756
ENCODING 10070
SWIDTH 362 0
DWIDTH 16 0
BBX 16 16 0 -2
BITMAP
1CC0
78C0
10C0
10FF
7D83
3103
3B03
3C63
7433
7013
D003
9003
1003
1006
103E
100C
ENDCHAR
STARTCHAR 2757
ENCODING 10071
SWIDTH 362 0
DWIDTH 16 0
BBX 16 16 0 -2
BITMAP
1C60
7840
10C0
10FF
7D80
3300
38FC
3C0C
7418
7030
D060
90C0
1181
1181
11FF
10FF
ENDCHAR
STARTCHAR 2758
ENCODING 10072
SWIDTH 362 0
DWIDTH 16 0
BBX 16 16 0 -2
BITMAP
0180
4083
7FFF
CC62
9874
303E
4300
0180
FFFF
1000
1000
1000
1000
1000
1FFE
1FFE
ENDCHAR
STARTCHAR 2759
ENCODING 10073
SWIDTH 362 0
DWIDTH 16 0
BBX 16 16 0 -2
BITMAP
0180
4083
7FFF
CC62
9874
313E
4180
0180
0180
3FFC
0180
0180
0180
0180
0183
0000
ENDCHAR
STARTCHAR 275a
ENCODING 10074
SWIDTH 362 0
DWIDTH 16 0
BBX 16 16 0 -2
BITMAP
0180
4083
7FFF
CC62
9874
303E
4600
0C30
0C33
1C30
1820
1060
3FC0
0378
0C1E
7006
ENDCHAR
STARTCHAR 275b
ENCODING 10075
SWIDTH 362 0
DWIDTH 16 0
BBX 16 16 0 -2
BITMAP
0300
0186
7FFE
0830
0C30
0660
06C3
0830
0C30
0830
FFFF
0830
1830
1030
3030
6030
ENDCHAR
STARTCHAR 275c
ENCODING 10076
SWIDTH 362 0
DWIDTH 16 0
BBX 16 16 0 -2
BITMAP
10C0
18C0
30C0
20C8
4DFC
D8CC
70C8
30C8
6488
FE88
E088
0589
9789
9309
930F
0607
ENDCHAR
STARTCHAR 275d
ENCODING 10077
SWIDTH 362 0
DWIDTH 16 0
BBX 16 16 0 -2
BITMAP
4004
7FFE
6666
7FFE
7004
3004
3FFE
2006
4406
8306
0186
0006
0006
000C
01FC
0038
ENDCHAR
STARTCHAR 275e
ENCODING 10078
SWIDTH 362 0
DWIDTH 16 0
BBX 16 16 0 -2
BITMAP
4004
7FFE
6666
6666
7FFE
0300
0180
FFFF
1000
1000
1000
1000
1000
1000
1FFE
0000
ENDCHAR
STARTCHAR 275f
ENCODING 10079
SWIDTH 362 0
DWIDTH 16 0
BBX 16 16 0 -2
BITMAP
0180
0106
3FFC
0118
0132
FFFF
0180
0700
0E06
77B6
8DB6
1926
0366
06C6
0DFC
0108
ENDCHAR
STARTCHAR 2760
ENCODING 10080
SWIDTH 362 0
DWIDTH 16 0
BBX 16 16 0 -2
BITMAP
0180
0106
3FFC
0118
0132
FFFF
0180
07FC
1BC0
E044
07FE
0040
07FF
0041
007F
007E
ENDCHAR
STARTCHAR 2761
ENCODING 10081
SWIDTH 362 0
DWIDTH 16 0
BBX 16 16 0 -2
BITMAP
1000
1DFF
7C18
1018
3418
3018
1018
FE18
3018
3C18
7418
7618
D018
9018
10F8
1030
ENDCHAR
STARTCHAR 2762
ENCODING 10082
SWIDTH 362 0
DWIDTH 16 0
BBX 16 16 0 -2
BITMAP
0823
7DF3
4832
4832
6932
59B2
4902
4932
5BF2
7832
4832
4832
C832
C832
B9E2
98C2
ENDCHAR
STARTCHAR 2763
ENCODING 10083
SWIDTH 362 0
DWIDTH 16 0
BBX 16 16 0 -2
BITMAP
0802
7FFF
496C
496C
696C
596C
496C
496C
596C
794E
49C7
4900
C900
C900
B9FF
9800
ENDCHAR
STARTCHAR 2764
ENCODING 10084
SWIDTH 362 0
DWIDTH 16 0
BBX 16 16 0 -2
BITMAP
08C0
7CC0
4880
49FF
69B3
5936
4B30
4830
5830
7878
4868
484C
C8C4
C986
BB03
9E01
ENDCHAR
STARTCHAR 2765
ENCODING 10085
SWIDTH 362 0
DWIDTH 16 0
BBX 16 16 0 -2
BITMAP
0830
7C30
4820
4923
6BFF
5B22
4A20
4860
5878
7870
48D0
48D0
C890
C991
BB1F
9E1F
ENDCHAR
STARTCHAR 2766
ENCODING 10086
SWIDTH 362 0
DWIDTH 16 0
BBX 16 16 0 -2
BITMAP
0804
7DFE
4846
4846
6846
5846
4846
4BFF
58C4
78C4
48C4
48C4
C8C4
C8C4
B8CF
9800
ENDCHAR
STARTCHAR 2767
ENCODING 10087
SWIDTH 362 0
DWIDTH 16 0
BBX 16 16 0 -2
BITMAP
08C0
7CC0
48FF
4980
6906
5A00
4806
49FE
580C
7818
4860
48C0
C981
C901
B9FF
98FF
ENDCHAR
STARTCHAR 2768
ENCODING 10088
SWIDTH 362 0
DWIDTH 16 0
BBX 16 16 0 -2
BITMAP
0800
7DFE
4830
4830
6830
5830
4830
4BFF
5830
7830
4830
4830
C830
C830
B9FE
9800
ENDCHAR
STARTCHAR 2769
ENCODING 10089
SWIDTH 362 0
DWIDTH 16 0
BBX 16 16 0 -2
BITMAP
08D8
7CC8
48C4
4986
6903
5BFD
4CC0
48C4
58FE
7806
4806
4804
C80C
C80C
B8F8
9830
ENDCHAR
STARTCHAR 276a
ENCODING 10090
SWIDTH 362 0
DWIDTH 16 0
BBX 16 16 0 -2
BITMAP
0180
018C
01FC
4183
FFFF
C002
9838
1818
1A18
19D8
1818
19F8
1718
3418
20F8
4030
ENDCHAR
STARTCHAR 276b
ENCODING 10091
SWIDTH 362 0
DWIDTH 16 0
BBX 16 16 0 -2
BITMAP
30C0
318C
2318
21E0
20CC
231E
27F2
2200
23FC
2344
2364
2304
637C
67C4
443C
9808
ENDCHAR
STARTCHAR 276c
ENCODING 10092
SWIDTH 362 0
DWIDTH 16 0
BBX 16 16 0 -2
BITMAP
0206
FEFE
D806
D846
DE46
FE44
C64C
C62C
C638
FE30
D830
D838
D86C
DACE
FF87
0302
ENDCHAR
STARTCHAR 276d
ENCODING 10093
SWIDTH 362 0
DWIDTH 16 0
BBX 16 16 0 -2
BITMAP
0600
07F8
0C18
1818
3038
6070
0220
0F04
707E
6006
6006
7E7E
6006
6006
6006
6004
ENDCHAR
STARTCHAR 276e
ENCODING 10094
SWIDTH 362 0
DWIDTH 16 0
BBX 16 16 0 -2
BITMAP
0203
7E63
1862
1862
1862
FF62
1862
1862
1862
FF62
C37E
C202
C202
C202
FE02
C202
ENDCHAR
STARTCHAR 276f
ENCODING 10095
SWIDTH 362 0
DWIDTH 16 0
BBX 16 16 0 -2
BITMAP
1002
30FF
7C06
440C
7418
5418
4C18
FC18
C418
7418
5418
4418
C418
C418
BCF8
8830
ENDCHAR
STARTCHAR 2770
ENCODING 10096
SWIDTH 362 0
DWIDTH 16 0
BBX 16 16 0 -2
BITMAP
1807
1A06
7F76
6366
7A66
6A66
6366
FF66
E266
7266
6A66
4266
4206
4206
DE1E
860C
ENDCHAR
STARTCHAR 2771
ENCODING 10097
SWIDTH 362 0
DWIDTH 16 0
BBX 16 16 0 -2
BITMAP
1030
3030
7C30
4430
7430
5430
4C30
FC30
C438
7468
5468
444C
C4C4
C486
BD03
8E03
ENDCHAR
STARTCHAR 2772
ENCODING 10098
SWIDTH 362 0
DWIDTH 16 0
BBX 16 16 0 -2
BITMAP
1C18
1A13
FE7F
1910
0180
0182
7FFF
C186
C1C4
03C0
03C0
06C0
0CC1
18C1
30FF
C07F
ENDCHAR
STARTCHAR 2773
ENCODING 10099
SWIDTH 362 0
DWIDTH 16 0
BBX 16 16 0 -2
BITMAP
1810
FF7F
1810
0000
7F0C
030C
030C
7F0C
400C
C30C
FF8C
010C
010C
030C
7F0C
0E0C
ENDCHAR
STARTCHAR 2774
ENCODING 10100
SWIDTH 362 0
DWIDTH 16 0
BBX 16 16 0 -2
BITMAP
1C18
1A13
FE7F
1810
000C
0180
0180
0180
0183
03C0
0340
0660
0C30
1818
300F
C007
ENDCHAR
STARTCHAR 2775
ENCODING 10101
SWIDTH 362 0
DWIDTH 16 0
BBX 16 16 0 -2
BITMAP
1C18
1A13
FE7F
1810
0006
0C00
0C00
0FF8
0818
1818
1818
1FF0
1010
0030
0033
0000
ENDCHAR
STARTCHAR 2776
ENCODING 10102
SWIDTH 362 0
DWIDTH 16 0
BBX 16 16 0 -2
BITMAP
1C18
1A13
FE7F
0810
7FFE
6006
6FF6
6436
6266
63C6
61C6
63E6
663E
7C16
601E
400C
ENDCHAR
STARTCHAR 2777
ENCODING 10103
SWIDTH 362 0
DWIDTH 16 0
BBX 16 16 0 -2
BITMAP
1C18
1A13
FE7F
1990
0180
618C
7FFE
6184
6184
6184
7FFC
0180
0180
0180
0180
0100
ENDCHAR
STARTCHAR 2778
ENCODING 10104
SWIDTH 362 0
DWIDTH 16 0
BBX 16 16 0 -2
BITMAP
1810
FF7F
1810
0800
0C70
0860
1860
1878
386E
7866
D860
1860
1860
1860
1860
1060
ENDCHAR
STARTCHAR 2779
ENCODING 10105
SWIDTH 362 0
DWIDTH 16 0
BBX 16 16 0 -2
BITMAP
1810
FF7F
1810
1080
18C0
1880
30CC
30CC
708C
F08C
B08C
318C
318C
330D
360F
3C07
ENDCHAR
STARTCHAR 277a
ENCODING 10106
SWIDTH 362 0
DWIDTH 16 0
BBX 16 16 0 -2
BITMAP
1810
FF7F
1810
1008
1BFC
188C
3088
309F
7083
F183
B183
3183
3303
3303
363E
3C0C
ENDCHAR
STARTCHAR 277b
ENCODING 10107
SWIDTH 362 0
DWIDTH 16 0
BBX 16 16 0 -2
BITMAP
1810
FF7F
1810
0002
7FFE
6008
6FFC
6C0C
6C08
6C08
6C18
6C38
6C12
4C02
CFFE
87FE
ENDCHAR
STARTCHAR 277c
ENCODING 10108
SWIDTH 362 0
DWIDTH 16 0
BBX 16 16 0 -2
BITMAP
1810
FF7F
1810
000C
27FE
3188
2188
2188
2188
2188
218C
218C
618C
6186
4187
8103
ENDCHAR
STARTCHAR 277d
ENCODING 10109
SWIDTH 362 0
DWIDTH 16 0
BBX 16 16 0 -2
BITMAP
1810
FF7F
1810
0000
0460
0C30
1818
310E
6187
C303
0600
0C10
1808
31FC
7F06
2002
ENDCHAR
STARTCHAR 277e
ENCODING 10110
SWIDTH 362 0
DWIDTH 16 0
BBX 16 16 0 -2
BITMAP
1C18
1A13
FE7F
1810
0000
1818
1818
1818
1818
1818
343C
3224
2366
61C3
4183
8301
ENDCHAR
STARTCHAR 2821
ENCODING 10273
SWIDTH 362 0
DWIDTH 16 0
BBX 16 16 0 -2
BITMAP
1810
FF7F
1810
0180
01B8
0FF8
3980
0180
3FFC
0180
0182
FFFF
0180
0180
0180
0100
ENDCHAR
STARTCHAR 2822
ENCODING 10274
SWIDTH 362 0
DWIDTH 16 0
BBX 16 16 0 -2
BITMAP
4002
7FFF
40C0
40C0
4CCC
4CCC
4CCC
4CCC
4FFC
48C0
40CC
40FE
5FE6
4C00
C003
4000
ENDCHAR
STARTCHAR 2823
ENCODING 10275
SWIDTH 362 0
DWIDTH 16 0
BBX 16 16 0 -2
BITMAP
3002
331F
6200
4200
D7C3
B246
2246
6246
E246
E646
6646
6656
6476
6C76
782E
6004
ENDCHAR
STARTCHAR 2824
ENCODING 10276
SWIDTH 362 0
DWIDTH 16 0
BBX 16 16 0 -2
BITMAP
3002
319F
6100
4100
D103
B106
2306
6386
E3C6
E246
6666
6C66
6826
7006
601E
600C
ENDCHAR
STARTCHAR 2825
ENCODING 10277
SWIDTH 362 0
DWIDTH 16 0
BBX 16 16 0 -2
BITMAP
0004
63FE
3066
1066
03FE
F360
3262
23FF
7862
5862
187E
3066
3060
7800
CFFF
01FC
ENDCHAR
STARTCHAR 2826
ENCODING 10278
SWIDTH 362 0
DWIDTH 16 0
BBX 16 16 0 -2
BITMAP
0002
61FE
3000
1000
0000
F3FF
3060
20C0
78C4
5986
1B1F
33E3
3101
7800
CFFF
01FC
ENDCHAR
STARTCHAR 2827
ENCODING 10279
SWIDTH 362 0
DWIDTH 16 0
BBX 16 16 0 -2
BITMAP
0030
6032
33FE
1020
03FE
F326
3326
2326
7B26
5B26
1B3E
3224
3020
7800
CFFF
01FC
ENDCHAR
STARTCHAR 2828
ENCODING 10280
SWIDTH 362 0
DWIDTH 16 0
BBX 16 16 0 -2
BITMAP
008C
618C
318C
17FF
018C
F18C
318C
218C
798C
598C
198C
31FC
3000
7800
CFFF
01FC
ENDCHAR
STARTCHAR 2829
ENCODING 10281
SWIDTH 362 0
DWIDTH 16 0
BBX 16 16 0 -2
BITMAP
01A2
FFBF
4032
4036
4034
7F3C
4136
4132
4133
4131
7F31
403F
4037
4030
C1B0
0030
ENDCHAR
STARTCHAR 282a
ENCODING 10282
SWIDTH 362 0
DWIDTH 16 0
BBX 16 16 0 -2
BITMAP
3622
343F
3FB2
3DB6
35B4
35BC
FFB6
B432
B5B3
FFB1
35B1
35BF
27B7
6530
4430
8430
ENDCHAR
STARTCHAR 282b
ENCODING 10283
SWIDTH 362 0
DWIDTH 16 0
BBX 16 16 0 -2
BITMAP
0C22
0C3F
0832
0836
CDB4
CDBC
C9B6
C9B2
C9B3
FFB1
C9B1
C9BF
C9B7
C9B0
FFB0
8030
ENDCHAR
STARTCHAR 282c
ENCODING 10284
SWIDTH 362 0
DWIDTH 16 0
BBX 16 16 0 -2
BITMAP
0C22
183F
3232
2136
FFB4
40BC
3336
3332
3333
FFF1
3331
333F
2337
6330
4330
8330
ENDCHAR
STARTCHAR 282d
ENCODING 10285
SWIDTH 362 0
DWIDTH 16 0
BBX 16 16 0 -2
BITMAP
6022
603F
43B2
C1B6
81B4
FDBC
4DB6
49B2
49B3
49B1
4FB1
433F
40B7
40B0
7FB0
0030
ENDCHAR
STARTCHAR 282e
ENCODING 10286
SWIDTH 362 0
DWIDTH 16 0
BBX 16 16 0 -2
BITMAP
0022
003F
3226
3324
322C
322C
3226
3222
3223
3221
3223
33A3
FC3E
C024
0020
0020
ENDCHAR
STARTCHAR 282f
ENCODING 10287
SWIDTH 362 0
DWIDTH 16 0
BBX 16 16 0 -2
BITMAP
0C22
0C3F
6DB2
6DB6
6DB4
6DBC
FFF6
6DB2
6DB3
6DB1
FFF1
61BF
61B7
61B0
67B0
4130
ENDCHAR
STARTCHAR 2830
ENCODING 10288
SWIDTH 362 0
DWIDTH 16 0
BBX 16 16 0 -2
BITMAP
9B03
FB03
DB03
D3FF
F323
E330
D320
DBFE
CB26
CB26
CB26
FB66
D266
C2C7
C587
CB03
ENDCHAR
STARTCHAR 2831
ENCODING 10289
SWIDTH 362 0
DWIDTH 16 0
BBX 16 16 0 -2
BITMAP
99C0
F980
D982
D1FF
F303
E203
D1F3
D993
C993
C993
C9F3
F903
D003
C006
C07E
C00C
ENDCHAR
STARTCHAR 2832
ENCODING 10290
SWIDTH 362 0
DWIDTH 16 0
BBX 16 16 0 -2
BITMAP
9802
F9FF
D863
D043
F043
E0C3
D09E
D90C
CA02
C9FF
C982
F982
D182
C182
C1FE
C102
ENDCHAR
STARTCHAR 2833
ENCODING 10291
SWIDTH 362 0
DWIDTH 16 0
BBX 16 16 0 -2
BITMAP
981E
FBE0
DB03
D303
F303
E3FF
D300
DB7E
CB06
CB08
CB30
FB60
D2C0
C681
C4FF
C87F
ENDCHAR
STARTCHAR 2834
ENCODING 10292
SWIDTH 362 0
DWIDTH 16 0
BBX 16 16 0 -2
BITMAP
0008
3FFC
3008
3008
3FF8
0000
7FFC
6184
618C
618C
6184
7FFC
0180
0181
01FF
00FE
ENDCHAR
STARTCHAR 2835
ENCODING 10293
SWIDTH 362 0
DWIDTH 16 0
BBX 16 16 0 -2
BITMAP
1C30
1A30
1820
FF24
18FE
1A26
5B26
7E26
3826
1866
3E66
DB66
D8C6
18C7
7987
3303
ENDCHAR
STARTCHAR 2836
ENCODING 10294
SWIDTH 362 0
DWIDTH 16 0
BBX 16 16 0 -2
BITMAP
141C
3218
3018
207C
697A
6D7B
E559
E3DA
629A
621E
6606
6C0C
6418
6630
6660
61C0
ENDCHAR
STARTCHAR 2837
ENCODING 10295
SWIDTH 362 0
DWIDTH 16 0
BBX 16 16 0 -2
BITMAP
1C30
1A33
1B36
31FC
3068
70C6
7183
B701
31CC
318C
37FF
318C
318C
330C
360C
3C0C
ENDCHAR
STARTCHAR 2838
ENCODING 10296
SWIDTH 362 0
DWIDTH 16 0
BBX 16 16 0 -2
BITMAP
1C30
1830
1BFF
3020
33FF
7603
740C
B01C
3030
3020
37FF
3020
3020
3020
31E0
3060
ENDCHAR
STARTCHAR 2839
ENCODING 10297
SWIDTH 362 0
DWIDTH 16 0
BBX 16 16 0 -2
BITMAP
1002
3FFF
3658
2658
66D8
66D8
E658
E658
67D8
6658
6658
66D8
6F58
6C59
605F
604F
ENDCHAR
STARTCHAR 283a
ENCODING 10298
SWIDTH 362 0
DWIDTH 16 0
BBX 16 16 0 -2
BITMAP
1B07
337C
3260
2260
6FE0
627F
E266
E3E6
6766
6E66
6266
6266
6266
6246
6EC6
6684
ENDCHAR
STARTCHAR 283b
ENCODING 10299
SWIDTH 362 0
DWIDTH 16 0
BBX 16 16 0 -2
BITMAP
1C30
1B33
1A22
33FE
3004
73FE
7184
B18C
31FE
31C2
3126
313C
3318
323C
34C7
3383
ENDCHAR
STARTCHAR 283c
ENCODING 10300
SWIDTH 362 0
DWIDTH 16 0
BBX 16 16 0 -2
BITMAP
1C1E
19F0
1900
3100
3102
710C
710C
B10C
310C
310C
37FF
3100
3184
3302
3603
3C01
ENDCHAR
STARTCHAR 283d
ENCODING 10301
SWIDTH 362 0
DWIDTH 16 0
BBX 16 16 0 -2
BITMAP
1002
37FF
3098
2098
67FF
649B
E49B
E4DB
65FF
6537
6767
6443
6403
6403
641F
6406
ENDCHAR
STARTCHAR 283e
ENCODING 10302
SWIDTH 362 0
DWIDTH 16 0
BBX 16 16 0 -2
BITMAP
1C02
1BFF
1A22
3222
33FE
7222
7332
B362
3060
37FF
3063
3043
30C3
3183
331E
360C
ENDCHAR
STARTCHAR 283f
ENCODING 10303
SWIDTH 362 0
DWIDTH 16 0
BBX 16 16 0 -2
BITMAP
1D80
1980
19FF
338C
3658
7470
707C
B0DF
333B
3060
319C
3333
30C6
371C
3070
3780
ENDCHAR
STARTCHAR 2840
ENCODING 10304
SWIDTH 362 0
DWIDTH 16 0
BBX 16 16 0 -2
BITMAP
0410
7E18
0030
0066
02CF
FFF1
6C82
6C7F
6C42
6C42
6C42
6C42
4C00
4C01
CFFF
87FF
ENDCHAR
STARTCHAR 2841
ENCODING 10305
SWIDTH 362 0
DWIDTH 16 0
BBX 16 16 0 -2
BITMAP
0070
C060
6062
27FF
0B64
1364
136E
33EB
24F3
6070
E0D0
C0C8
618C
6306
6603
1C01
ENDCHAR
STARTCHAR 2842
ENCODING 10306
SWIDTH 362 0
DWIDTH 16 0
BBX 16 16 0 -2
BITMAP
0002
C7FF
6322
2336
0A26
164C
1264
3326
2122
6000
E7FE
C020
6020
6020
6033
0000
ENDCHAR
STARTCHAR 2843
ENCODING 10307
SWIDTH 362 0
DWIDTH 16 0
BBX 16 16 0 -2
BITMAP
0004
C1FE
6006
27FF
0806
11FC
1203
3603
240C
618C
E08C
C058
6030
6078
618F
0703
ENDCHAR
STARTCHAR 2844
ENCODING 10308
SWIDTH 362 0
DWIDTH 16 0
BBX 16 16 0 -2
BITMAP
0103
7F83
011A
FFD2
0112
7F12
C0D2
C0D2
8312
3312
1312
0E12
0E02
1B02
319E
C086
ENDCHAR
STARTCHAR 2845
ENCODING 10309
SWIDTH 362 0
DWIDTH 16 0
BBX 16 16 0 -2
BITMAP
0C03
0C03
FFB2
0932
7FB2
49B2
49B2
7FB2
49B2
49B2
7F32
0832
FF82
0802
081E
0806
ENDCHAR
STARTCHAR 2846
ENCODING 10310
SWIDTH 362 0
DWIDTH 16 0
BBX 16 16 0 -2
BITMAP
0D03
0D83
0C9A
0C12
0992
FF92
C992
C992
FF92
C992
CD92
CD92
C982
C982
C99E
C306
ENDCHAR
STARTCHAR 2847
ENCODING 10311
SWIDTH 362 0
DWIDTH 16 0
BBX 16 16 0 -2
BITMAP
0C03
0C03
0D9A
0C12
0812
FFD2
D6D2
D692
D692
D692
FF92
D692
D682
D682
D69E
C186
ENDCHAR
STARTCHAR 2848
ENCODING 10312
SWIDTH 362 0
DWIDTH 16 0
BBX 16 16 0 -2
BITMAP
0783
FC03
11B2
C9B2
6332
0232
0332
0332
FFB2
4332
2332
3332
0302
0302
1F1E
0606
ENDCHAR
STARTCHAR 2849
ENCODING 10313
SWIDTH 362 0
DWIDTH 16 0
BBX 16 16 0 -2
BITMAP
3018
1210
FF10
C210
C27F
C213
C213
FE13
C013
D333
CE33
CC23
C663
DB43
E3DE
C18C
ENDCHAR
STARTCHAR 284a
ENCODING 10314
SWIDTH 362 0
DWIDTH 16 0
BBX 16 16 0 -2
BITMAP
1A18
1B10
1910
FF10
187F
1813
5B13
7A13
3C13
1833
3F33
D9A3
D863
1843
78DE
318C
ENDCHAR
STARTCHAR 284b
ENCODING 10315
SWIDTH 362 0
DWIDTH 16 0
BBX 16 16 0 -2
BITMAP
0218
7F10
0610
3810
997F
FF93
D913
D913
FF13
D933
DB33
DB33
D923
D963
DF5E
CB8C
ENDCHAR
STARTCHAR 284c
ENCODING 10316
SWIDTH 362 0
DWIDTH 16 0
BBX 16 16 0 -2
BITMAP
3000
3002
3FFF
2602
6C22
DFF2
3C92
0CF2
1C72
3FE2
0C42
1382
07FA
3C3E
003E
000C
ENDCHAR
STARTCHAR 284d
ENCODING 10317
SWIDTH 362 0
DWIDTH 16 0
BBX 16 16 0 -2
BITMAP
6060
4360
7F60
4060
7F60
7F63
607F
4260
FE60
9860
1B60
1860
3C60
2761
437F
803F
ENDCHAR
STARTCHAR 284e
ENCODING 10318
SWIDTH 362 0
DWIDTH 16 0
BBX 16 16 0 -2
BITMAP
4002
7FFF
4210
5B18
5A10
5A10
5BFF
5210
4210
5E10
5A10
5A10
52FE
5200
C003
4000
ENDCHAR
STARTCHAR 284f
ENCODING 10319
SWIDTH 362 0
DWIDTH 16 0
BBX 16 16 0 -2
BITMAP
4002
7FFF
4C60
4C60
4F7F
4AC6
5BC6
5B24
6A2C
4A38
4A38
4A6C
48C7
4B83
C003
4000
ENDCHAR
STARTCHAR 2850
ENCODING 10320
SWIDTH 362 0
DWIDTH 16 0
BBX 16 16 0 -2
BITMAP
4002
7FFF
48C4
4CC6
48C4
4FFC
40C0
5FFE
40C0
40C0
4FFC
40C0
40C6
4000
C003
4000
ENDCHAR
STARTCHAR 2851
ENCODING 10321
SWIDTH 362 0
DWIDTH 16 0
BBX 16 16 0 -2
BITMAP
0180
0184
01FE
0180
418E
6106
6186
63C6
6636
6D9E
7186
63E6
6636
781E
6006
6004
ENDCHAR
STARTCHAR 2852
ENCODING 10322
SWIDTH 362 0
DWIDTH 16 0
BBX 16 16 0 -2
BITMAP
6018
6010
7F90
C010
C390
6198
6996
6D93
FF93
5191
4990
4990
FF90
0110
1F10
0610
ENDCHAR
STARTCHAR 2853
ENCODING 10323
SWIDTH 362 0
DWIDTH 16 0
BBX 16 16 0 -2
BITMAP
7000
66FF
7E6C
446C
CF6C
406C
566C
536C
526C
526C
566C
526C
D2CC
DCCD
918F
8307
ENDCHAR
STARTCHAR 2854
ENCODING 10324
SWIDTH 362 0
DWIDTH 16 0
BBX 16 16 0 -2
BITMAP
4002
7FFF
6060
6040
60C2
64CC
664C
664C
6F5A
79F2
60A0
41B0
4318
C60C
8C07
B003
ENDCHAR
STARTCHAR 2855
ENCODING 10325
SWIDTH 362 0
DWIDTH 16 0
BBX 16 16 0 -2
BITMAP
4002
7FFF
6004
6FFE
6C06
6FFE
6C06
6C06
6FFC
6460
6648
4444
4C42
D843
B3C0
8080
ENDCHAR
STARTCHAR 2856
ENCODING 10326
SWIDTH 362 0
DWIDTH 16 0
BBX 16 16 0 -2
BITMAP
1804
11FE
1046
7C44
104C
104C
107F
FE63
3072
30D6
28DC
44CC
DE9C
E3B6
0167
02C3
ENDCHAR
STARTCHAR 2857
ENCODING 10327
SWIDTH 362 0
DWIDTH 16 0
BBX 16 16 0 -2
BITMAP
1800
187F
1B43
1862
1826
FF26
AA26
AA34
AA1C
AA18
FE18
AA3C
AA24
AA66
AEC3
8383
ENDCHAR
STARTCHAR 2858
ENCODING 10328
SWIDTH 362 0
DWIDTH 16 0
BBX 16 16 0 -2
BITMAP
0060
0022
DBFE
D804
D98C
D888
D898
DFFF
D820
D820
D820
F820
C020
0020
0020
0020
ENDCHAR
STARTCHAR 2859
ENCODING 10329
SWIDTH 362 0
DWIDTH 16 0
BBX 16 16 0 -2
BITMAP
0018
001B
D81B
DBFF
DA18
DA18
DA1B
DA5B
DBFA
DA1E
DA1C
FA0C
C21C
0637
0463
08C1
ENDCHAR
STARTCHAR 285a
ENCODING 10330
SWIDTH 362 0
DWIDTH 16 0
BBX 16 16 0 -2
BITMAP
0030
0030
D822
CC3E
C820
C820
CBFF
C800
CBFF
C820
C838
F82C
C826
0020
0020
0020
ENDCHAR
STARTCHAR 285b
ENCODING 10331
SWIDTH 362 0
DWIDTH 16 0
BBX 16 16 0 -2
BITMAP
0030
0030
D836
D830
D820
D823
DBFF
D830
D830
D9B4
D932
FB33
C231
0430
01F0
0060
ENDCHAR
STARTCHAR 285c
ENCODING 10332
SWIDTH 362 0
DWIDTH 16 0
BBX 16 16 0 -2
BITMAP
005C
0058
D858
D858
DBFF
DA5B
DA5B
DA5B
DA5B
DBFF
DA5B
FA5B
C25B
025B
03FF
0202
ENDCHAR
STARTCHAR 285d
ENCODING 10333
SWIDTH 362 0
DWIDTH 16 0
BBX 16 16 0 -2
BITMAP
0198
0193
F913
DB10
DB7F
DB10
DF12
DF13
DB1A
DB1E
DB1C
FB0C
D31C
0335
0363
03C1
ENDCHAR
STARTCHAR 285e
ENCODING 10334
SWIDTH 362 0
DWIDTH 16 0
BBX 16 16 0 -2
BITMAP
2060
3020
21FE
208C
F88C
264B
265B
2633
2633
263B
264F
3E87
7703
C603
07FF
0003
ENDCHAR
STARTCHAR 285f
ENCODING 10335
SWIDTH 362 0
DWIDTH 16 0
BBX 16 16 0 -2
BITMAP
0008
7DFC
104C
11CC
10EC
10FD
3D8D
E30F
0506
0180
0184
3FFC
0180
0180
0183
0000
ENDCHAR
STARTCHAR 2860
ENCODING 10336
SWIDTH 362 0
DWIDTH 16 0
BBX 16 16 0 -2
BITMAP
0004
7FFE
0660
2666
366C
1668
1670
7FFF
0000
0180
0180
3FFC
0180
0180
0182
FFFF
ENDCHAR
STARTCHAR 2861
ENCODING 10337
SWIDTH 362 0
DWIDTH 16 0
BBX 16 16 0 -2
BITMAP
302C
366C
31C8
3778
3C38
3668
0C60
1C7F
363E
57F8
0C38
1E60
33C0
07F0
1C3F
F007
ENDCHAR
STARTCHAR 2862
ENCODING 10338
SWIDTH 362 0
DWIDTH 16 0
BBX 16 16 0 -2
BITMAP
0100
0302
7FFF
0630
0C18
180E
3FFF
D01B
1FF8
1818
1FF8
1818
1818
1818
0006
0000
ENDCHAR
STARTCHAR 2863
ENCODING 10339
SWIDTH 362 0
DWIDTH 16 0
BBX 16 16 0 -2
BITMAP
0100
0302
7FFF
0630
0C18
186E
3C47
CC43
2C40
6F7E
6C40
6C40
6C41
6D43
FE7F
407E
ENDCHAR
STARTCHAR 2864
ENCODING 10340
SWIDTH 362 0
DWIDTH 16 0
BBX 16 16 0 -2
BITMAP
0C60
0C60
6862
6F7F
6860
6861
6F63
F07F
C180
0100
0303
0300
0610
0C0C
3006
E003
ENDCHAR
STARTCHAR 2865
ENCODING 10341
SWIDTH 362 0
DWIDTH 16 0
BBX 16 16 0 -2
BITMAP
2023
63F3
616F
696B
FD6B
E96B
6F7B
6F6B
496B
D96B
FB6B
336B
3A6B
6E63
C66F
0C46
ENDCHAR
STARTCHAR 2866
ENCODING 10342
SWIDTH 362 0
DWIDTH 16 0
BBX 16 16 0 -2
BITMAP
20C0
60C0
60C2
69B0
FD10
EA10
6810
69FF
4810
D910
F993
3193
3993
6D93
C1B3
0103
ENDCHAR
STARTCHAR 2867
ENCODING 10343
SWIDTH 362 0
DWIDTH 16 0
BBX 16 16 0 -2
BITMAP
2084
60FE
6084
6884
FC84
E987
6933
6A30
4830
DBFF
F830
31B4
39B2
6F33
C631
0030
ENDCHAR
STARTCHAR 2868
ENCODING 10344
SWIDTH 362 0
DWIDTH 16 0
BBX 16 16 0 -2
BITMAP
2006
9000
C803
5B00
1306
3306
6006
607C
641C
0630
0C33
0C30
1C60
1FE0
033C
7C0E
ENDCHAR
STARTCHAR 2869
ENCODING 10345
SWIDTH 362 0
DWIDTH 16 0
BBX 16 16 0 -2
BITMAP
1802
1F7F
7832
1F32
7822
1F62
78C6
199C
0600
0630
0C33
0C30
1C60
1FE0
033C
7C0E
ENDCHAR
STARTCHAR 286a
ENCODING 10346
SWIDTH 362 0
DWIDTH 16 0
BBX 16 16 0 -2
BITMAP
0180
018C
3FFC
0180
1118
FE7F
1018
1418
0630
0433
FFFF
0860
1840
17E0
077C
780E
ENDCHAR
STARTCHAR 286b
ENCODING 10347
SWIDTH 362 0
DWIDTH 16 0
BBX 16 16 0 -2
BITMAP
0188
1198
0990
49A3
FFFF
C00A
9FFC
0400
0630
0433
FFFF
0860
1840
17E0
077C
780E
ENDCHAR
STARTCHAR 286c
ENCODING 10348
SWIDTH 362 0
DWIDTH 16 0
BBX 16 16 0 -2
BITMAP
8230
FF30
C226
C226
FAFF
C226
FA26
FA66
EA66
EA44
FACC
E238
C21E
C227
CE43
C780
ENDCHAR
STARTCHAR 286d
ENCODING 10349
SWIDTH 362 0
DWIDTH 16 0
BBX 16 16 0 -2
BITMAP
200E
61F8
6100
6902
FD7F
E97B
697A
697A
497A
D97E
F962
3360
3B60
6E61
C27F
003F
ENDCHAR
STARTCHAR 286e
ENCODING 10350
SWIDTH 362 0
DWIDTH 16 0
BBX 16 16 0 -2
BITMAP
0060
0070
00C0
7FFF
0180
0180
0780
0300
7E7E
0C0C
0808
1EFF
F818
5818
7878
1030
ENDCHAR
STARTCHAR 286f
ENCODING 10351
SWIDTH 362 0
DWIDTH 16 0
BBX 16 16 0 -2
BITMAP
0C60
6C60
6F7F
6860
6861
7E7F
F03F
4020
1FF0
00C0
0182
7FFF
0180
0180
0780
0300
ENDCHAR
STARTCHAR 2870
ENCODING 10352
SWIDTH 362 0
DWIDTH 16 0
BBX 16 16 0 -2
BITMAP
1004
3FFE
2046
5FE6
18C6
18C6
1FC6
007C
0018
1FE0
00C0
0182
7FFE
0180
0780
0300
ENDCHAR
STARTCHAR 2871
ENCODING 10353
SWIDTH 362 0
DWIDTH 16 0
BBX 16 16 0 -2
BITMAP
0100
7FFF
4403
CC36
9FF0
3062
7FFF
3000
3618
360C
3608
3678
2618
6602
47FE
83FE
ENDCHAR
STARTCHAR 2872
ENCODING 10354
SWIDTH 362 0
DWIDTH 16 0
BBX 16 16 0 -2
BITMAP
0100
7FFF
4003
C01E
9FF8
1018
1FF8
1018
1018
1018
1008
1FF8
1002
1004
1FFC
1FFC
ENDCHAR
STARTCHAR 2873
ENCODING 10355
SWIDTH 362 0
DWIDTH 16 0
BBX 16 16 0 -2
BITMAP
0100
7FFF
4003
C186
8184
01FC
0180
7FFF
0180
0180
1198
318C
2186
4186
8F82
0300
ENDCHAR
STARTCHAR 2874
ENCODING 10356
SWIDTH 362 0
DWIDTH 16 0
BBX 16 16 0 -2
BITMAP
3000
31FF
3188
3198
FFFB
3DBE
3D98
3D9C
3DB4
2D36
2F63
6EC1
6C00
4C01
CFFF
87FF
ENDCHAR
STARTCHAR 2875
ENCODING 10357
SWIDTH 362 0
DWIDTH 16 0
BBX 16 16 0 -2
BITMAP
3006
30FE
3086
30FE
FE86
3CFE
3C80
3CC2
3CFE
2C81
2CC3
6CFF
6C00
4C01
CFFF
87FF
ENDCHAR
STARTCHAR 2876
ENCODING 10358
SWIDTH 362 0
DWIDTH 16 0
BBX 16 16 0 -2
BITMAP
6006
6006
6006
60C0
60C6
60C0
6FFC
608C
6FFC
6880
5FFE
41C6
C32E
C618
8C0F
B007
ENDCHAR
STARTCHAR 2877
ENCODING 10359
SWIDTH 362 0
DWIDTH 16 0
BBX 16 16 0 -2
BITMAP
4006
7FFE
6006
7FFE
6000
6004
7FFE
680C
6FFC
680C
4FFC
480C
CC0C
C808
8006
8000
ENDCHAR
STARTCHAR 2878
ENCODING 10360
SWIDTH 362 0
DWIDTH 16 0
BBX 16 16 0 -2
BITMAP
4006
7FFE
6006
7FFE
6800
6C04
6FFE
6800
6FFE
67FE
4C06
4C06
CC06
CC06
8C06
8C04
ENDCHAR
STARTCHAR 2879
ENCODING 10361
SWIDTH 362 0
DWIDTH 16 0
BBX 16 16 0 -2
BITMAP
4006
7FFE
6006
7FFE
6106
6100
6FFC
6804
6804
6FFC
4804
4804
CFFC
C804
8C0C
8C0C
ENDCHAR
STARTCHAR 287a
ENCODING 10362
SWIDTH 362 0
DWIDTH 16 0
BBX 16 16 0 -2
BITMAP
6006
6006
6006
7FFE
60C0
6198
6630
6EC0
6388
663C
5FE6
4842
CC4C
C846
93C3
A080
ENDCHAR
STARTCHAR 287b
ENCODING 10363
SWIDTH 362 0
DWIDTH 16 0
BBX 16 16 0 -2
BITMAP
2103
310F
216F
A13B
AD3B
AD6F
AD87
AFFF
AC6B
AC68
AC48
ACC8
FCC8
0189
030F
0607
ENDCHAR
STARTCHAR 287c
ENCODING 10364
SWIDTH 362 0
DWIDTH 16 0
BBX 16 16 0 -2
BITMAP
2084
30FE
2084
A084
AC84
AD87
AD33
AE30
AC30
AFFF
AC30
ADB4
FDB2
0333
0631
0030
ENDCHAR
STARTCHAR 287d
ENCODING 10365
SWIDTH 362 0
DWIDTH 16 0
BBX 16 16 0 -2
BITMAP
0180
7186
6184
7FFC
0304
0180
FFFF
0000
3018
300C
3008
3FF8
3008
3008
3FF8
3008
ENDCHAR
STARTCHAR 287e
ENCODING 10366
SWIDTH 362 0
DWIDTH 16 0
BBX 16 16 0 -2
BITMAP
0180
7186
6184
7FFC
0300
0326
3FFC
0330
7FFF
01C0
0704
0FFC
3200
C200
03FE
01FE
ENDCHAR
STARTCHAR 2921
ENCODING 10529
SWIDTH 362 0
DWIDTH 16 0
BBX 16 16 0 -2
BITMAP
3020
3033
35FF
FF80
B580
B580
B4FF
B400
B492
B4D6
B496
BC96
3096
3196
3117
3213
ENDCHAR
STARTCHAR 2922
ENCODING 10530
SWIDTH 362 0
DWIDTH 16 0
BBX 16 16 0 -2
BITMAP
3030
3030
35FF
FE4C
B4C6
B5FF
B600
B402
B5FE
B4C0
B4FE
BC06
3006
3006
307C
3018
ENDCHAR
STARTCHAR 2923
ENCODING 10531
SWIDTH 362 0
DWIDTH 16 0
BBX 16 16 0 -2
BITMAP
3030
3026
347E
FEC4
B5BC
B438
B430
B4D8
B5BB
B433
B463
BCD6
310C
3018
3060
31C0
ENDCHAR
STARTCHAR 2924
ENCODING 10532
SWIDTH 362 0
DWIDTH 16 0
BBX 16 16 0 -2
BITMAP
0183
1833
1BA2
33A2
7322
DE22
0C26
3186
C184
7FFC
6184
6184
6184
61BC
619C
0100
ENDCHAR
STARTCHAR 2925
ENCODING 10533
SWIDTH 362 0
DWIDTH 16 0
BBX 16 16 0 -2
BITMAP
0C60
4C40
6F46
6C40
6841
6F41
F87F
C180
0180
7FFC
6184
6184
6184
61BC
619C
0100
ENDCHAR
STARTCHAR 2926
ENCODING 10534
SWIDTH 362 0
DWIDTH 16 0
BBX 16 16 0 -2
BITMAP
3003
33F3
218F
F98B
A9EB
A96B
AB6B
AB6B
AFEB
ACCB
B8CB
B8CB
208B
2103
230F
2606
ENDCHAR
STARTCHAR 2927
ENCODING 10535
SWIDTH 362 0
DWIDTH 16 0
BBX 16 16 0 -2
BITMAP
0180
4083
7FFF
6806
6FFE
6806
6FFE
6806
6936
6936
6916
49F6
4916
C806
881E
880C
ENDCHAR
STARTCHAR 2928
ENCODING 10536
SWIDTH 362 0
DWIDTH 16 0
BBX 16 16 0 -2
BITMAP
0180
4083
7FFF
6180
6F0C
6C0C
6C04
6C04
6FFC
6C04
6FFE
4C06
4C06
CC06
8FFE
8C04
ENDCHAR
STARTCHAR 2929
ENCODING 10537
SWIDTH 362 0
DWIDTH 16 0
BBX 16 16 0 -2
BITMAP
0180
4083
7FFF
6180
63FC
630C
6CB0
60E0
6380
6EC4
61FE
478C
48F0
C0E0
8380
9E00
ENDCHAR
STARTCHAR 292a
ENCODING 10538
SWIDTH 362 0
DWIDTH 16 0
BBX 16 16 0 -2
BITMAP
0180
4083
7FFF
660C
6318
7FFF
6040
6C46
6C46
6C46
6CC6
4CC4
40C0
C180
8600
9C00
ENDCHAR
STARTCHAR 292b
ENCODING 10539
SWIDTH 362 0
DWIDTH 16 0
BBX 16 16 0 -2
BITMAP
8110
FF96
C112
C510
FF7F
C110
DD10
DD10
D510
D510
DD18
D118
C108
C10D
CF07
C203
ENDCHAR
STARTCHAR 292c
ENCODING 10540
SWIDTH 362 0
DWIDTH 16 0
BBX 16 16 0 -2
BITMAP
0900
FDFF
0990
0990
4990
49FF
C183
CD82
FD82
0DFE
0D92
0D90
0D90
0D90
F9B3
3100
ENDCHAR
STARTCHAR 292d
ENCODING 10541
SWIDTH 362 0
DWIDTH 16 0
BBX 16 16 0 -2
BITMAP
08C0
FCC0
08C3
0980
490E
4B1C
C1E0
CDA2
FD96
0D98
0D98
0D88
0D8C
0DB6
F9C3
3081
ENDCHAR
STARTCHAR 292e
ENCODING 10542
SWIDTH 362 0
DWIDTH 16 0
BBX 16 16 0 -2
BITMAP
0830
FC30
0878
084C
48C6
4887
C107
CEFC
FC00
0D84
0DFE
0D86
0D86
0D86
F9FE
3184
ENDCHAR
STARTCHAR 292f
ENCODING 10543
SWIDTH 362 0
DWIDTH 16 0
BBX 16 16 0 -2
BITMAP
0883
FCC6
0844
09FF
4844
4844
C044
CC44
FDFF
0C44
0CC4
0CC4
0C84
0D84
FB04
3604
ENDCHAR
STARTCHAR 2930
ENCODING 10544
SWIDTH 362 0
DWIDTH 16 0
BBX 16 16 0 -2
BITMAP
0606
1818
1818
FF7F
1818
3018
6018
C010
1FF8
1018
1FF0
100C
3FFC
000C
01F8
0030
ENDCHAR
STARTCHAR 2931
ENCODING 10545
SWIDTH 362 0
DWIDTH 16 0
BBX 16 16 0 -2
BITMAP
1830
1830
3032
21FF
4C30
0830
1833
3038
3030
7030
9032
1030
1030
1030
1033
1000
ENDCHAR
STARTCHAR 2932
ENCODING 10546
SWIDTH 362 0
DWIDTH 16 0
BBX 16 16 0 -2
BITMAP
1802
1BFF
3303
230F
4FFF
0B03
1B5B
334F
334B
734B
937B
134B
1303
1303
131F
1306
ENDCHAR
STARTCHAR 2933
ENCODING 10547
SWIDTH 362 0
DWIDTH 16 0
BBX 16 16 0 -2
BITMAP
18C0
18C0
30FE
2186
4D4C
0A6C
1838
3038
306E
7187
93FE
1186
1186
1186
11FE
1182
ENDCHAR
STARTCHAR 2934
ENCODING 10548
SWIDTH 362 0
DWIDTH 16 0
BBX 16 16 0 -2
BITMAP
1830
1870
3070
20C8
4C8C
0907
1A07
35FC
3000
7104
91FE
1106
1106
1106
11FE
1104
ENDCHAR
STARTCHAR 2935
ENCODING 10549
SWIDTH 362 0
DWIDTH 16 0
BBX 16 16 0 -2
BITMAP
0002
FDFF
3080
31FF
3003
3002
3002
F806
C07C
0008
0980
4CC4
4802
CC1B
8FF1
07F0
ENDCHAR
STARTCHAR 2936
ENCODING 10550
SWIDTH 362 0
DWIDTH 16 0
BBX 16 16 0 -2
BITMAP
0180
0182
7FFF
0180
0198
1FF8
1018
1018
1FF8
1008
0980
4CC4
4802
CC1B
8FF1
07F0
ENDCHAR
STARTCHAR 2937
ENCODING 10551
SWIDTH 362 0
DWIDTH 16 0
BBX 16 16 0 -2
BITMAP
1800
1923
7FBF
19A3
11A3
31A3
31A3
7F3F
C620
0000
0980
4CC4
4802
CC1B
8FF1
07F0
ENDCHAR
STARTCHAR 2938
ENCODING 10552
SWIDTH 362 0
DWIDTH 16 0
BBX 16 16 0 -2
BITMAP
18C8
10CC
30C3
30C0
70C0
B060
3031
3019
300F
2183
0CC0
4C46
4803
CC1B
8FF1
07F0
ENDCHAR
STARTCHAR 2939
ENCODING 10553
SWIDTH 362 0
DWIDTH 16 0
BBX 16 16 0 -2
BITMAP
3060
3023
33FF
3602
780E
FC78
F1E0
B060
3062
33FF
3060
3060
3060
3061
307F
303E
ENDCHAR
STARTCHAR 293a
ENCODING 10554
SWIDTH 362 0
DWIDTH 16 0
BBX 16 16 0 -2
BITMAP
3060
3030
3033
3030
7860
FCC0
F18C
B188
30F0
3023
30C6
318C
3218
303E
30C3
3701
ENDCHAR
STARTCHAR 293b
ENCODING 10555
SWIDTH 362 0
DWIDTH 16 0
BBX 16 16 0 -2
BITMAP
3030
3030
33FF
3030
7936
FD33
F132
B132
31FE
3032
31A0
30E0
3060
30B8
310F
3603
ENDCHAR
STARTCHAR 293c
ENCODING 10556
SWIDTH 362 0
DWIDTH 16 0
BBX 16 16 0 -2
BITMAP
3018
301B
201B
33FF
3A18
BA18
A21B
A39B
22DA
225E
221C
220C
221C
2637
2663
2CC1
ENDCHAR
STARTCHAR 293d
ENCODING 10557
SWIDTH 362 0
DWIDTH 16 0
BBX 16 16 0 -2
BITMAP
3023
37E3
211F
331B
3BDB
BBDB
A65B
A65B
2FDB
29DB
209B
219B
2103
2303
260F
2C06
ENDCHAR
STARTCHAR 293e
ENCODING 10558
SWIDTH 362 0
DWIDTH 16 0
BBX 16 16 0 -2
BITMAP
3070
3060
23FF
30C8
3986
BBFF
A600
A002
23FE
2180
21FE
2006
2006
2006
20FC
2018
ENDCHAR
STARTCHAR 293f
ENCODING 10559
SWIDTH 362 0
DWIDTH 16 0
BBX 16 16 0 -2
BITMAP
3060
3060
30C4
319E
7BF3
FD31
F1B0
B132
31FE
3330
3230
33FF
3030
3030
3030
3030
ENDCHAR
STARTCHAR 2940
ENCODING 10560
SWIDTH 362 0
DWIDTH 16 0
BBX 16 16 0 -2
BITMAP
300E
33F8
3300
3300
7B02
FFFF
F300
B300
33C6
33C3
33C2
32C2
32C2
36C2
34FE
38C2
ENDCHAR
STARTCHAR 2941
ENCODING 10561
SWIDTH 362 0
DWIDTH 16 0
BBX 16 16 0 -2
BITMAP
7180
613F
6300
6200
7580
F9FF
E306
E306
6706
6F06
6306
6306
6306
6306
633E
630C
ENDCHAR
STARTCHAR 2942
ENCODING 10562
SWIDTH 362 0
DWIDTH 16 0
BBX 16 16 0 -2
BITMAP
3030
3032
2223
3326
39AC
B820
A7FF
A020
2120
21A4
2122
2323
2223
2621
2020
2020
ENDCHAR
STARTCHAR 2943
ENCODING 10563
SWIDTH 362 0
DWIDTH 16 0
BBX 16 16 0 -2
BITMAP
0660
046C
7FFE
4464
7FFC
4462
FFFF
0C62
187E
3064
49C0
4CC4
4802
CC1B
CFF1
07F0
ENDCHAR
STARTCHAR 2944
ENCODING 10564
SWIDTH 362 0
DWIDTH 16 0
BBX 16 16 0 -2
BITMAP
0006
7FFE
0180
4184
7FFE
6186
6186
6184
0180
0100
0980
4CC4
4802
CC1B
CFF1
07F0
ENDCHAR
STARTCHAR 2945
ENCODING 10565
SWIDTH 362 0
DWIDTH 16 0
BBX 16 16 0 -2
BITMAP
0190
0188
018E
03C0
07E0
0DB0
199E
3187
C180
0000
0980
4CC4
4802
CC1B
CFF1
07F0
ENDCHAR
STARTCHAR 2946
ENCODING 10566
SWIDTH 362 0
DWIDTH 16 0
BBX 16 16 0 -2
BITMAP
0660
0660
0662
7E7F
0660
0661
0661
FE7F
C43E
0100
0C80
4CC0
4806
CC1B
CFF1
07F0
ENDCHAR
STARTCHAR 2947
ENCODING 10567
SWIDTH 362 0
DWIDTH 16 0
BBX 16 16 0 -2
BITMAP
0008
3FFC
264C
264C
36CC
36CC
264C
264C
265C
2008
0980
4CC4
4802
CC1B
CFF1
07F0
ENDCHAR
STARTCHAR 2948
ENCODING 10568
SWIDTH 362 0
DWIDTH 16 0
BBX 16 16 0 -2
BITMAP
3030
3030
2236
3333
3A22
BBFE
A222
A222
23FE
2022
2120
20E0
20E0
20B8
210F
2603
ENDCHAR
STARTCHAR 2949
ENCODING 10569
SWIDTH 362 0
DWIDTH 16 0
BBX 16 16 0 -2
BITMAP
3030
3030
2020
3326
3BFE
BB26
A326
A326
2326
23FE
2020
2020
2026
203F
27F1
2201
ENDCHAR
STARTCHAR 294a
ENCODING 10570
SWIDTH 362 0
DWIDTH 16 0
BBX 16 16 0 -2
BITMAP
3180
3100
23FF
3200
3F06
B936
A136
A136
27FF
2326
2326
2326
23FF
2006
203C
2008
ENDCHAR
STARTCHAR 294b
ENCODING 10571
SWIDTH 362 0
DWIDTH 16 0
BBX 16 16 0 -2
BITMAP
30D8
30CC
2086
31E7
3B63
BECC
A1BE
A1C2
2080
20CC
2088
2088
2188
2109
230F
2607
ENDCHAR
STARTCHAR 294c
ENCODING 10572
SWIDTH 362 0
DWIDTH 16 0
BBX 16 16 0 -2
BITMAP
0134
FFB3
0233
1230
7AFF
5A30
5A32
5A33
5A12
7216
021C
0218
021D
023D
1E67
07C3
ENDCHAR
STARTCHAR 294d
ENCODING 10573
SWIDTH 362 0
DWIDTH 16 0
BBX 16 16 0 -2
BITMAP
00FE
7F00
6006
6003
6002
7FFE
60C0
6FFC
60C0
60C0
7FFF
4300
4608
CC04
9FFE
9C03
ENDCHAR
STARTCHAR 294e
ENCODING 10574
SWIDTH 362 0
DWIDTH 16 0
BBX 16 16 0 -2
BITMAP
3060
3030
3033
3030
F860
30C0
318C
3988
70F0
F023
30C6
318C
3218
3036
F0C3
6701
ENDCHAR
STARTCHAR 294f
ENCODING 10575
SWIDTH 362 0
DWIDTH 16 0
BBX 16 16 0 -2
BITMAP
3102
31B3
2132
2132
F932
2132
2332
3332
7132
E132
2132
2332
2332
2332
E232
6402
ENDCHAR
STARTCHAR 2950
ENCODING 10576
SWIDTH 362 0
DWIDTH 16 0
BBX 16 16 0 -2
BITMAP
301A
301B
3018
33FF
F818
3198
319B
399B
71BA
F19E
318E
310C
331C
3237
F463
6183
ENDCHAR
STARTCHAR 2951
ENCODING 10577
SWIDTH 362 0
DWIDTH 16 0
BBX 16 16 0 -2
BITMAP
3023
37E3
211F
231B
FBDB
23DB
225B
365B
7FDB
E9DB
209B
219B
2103
2303
E60F
6C06
ENDCHAR
STARTCHAR 2952
ENCODING 10578
SWIDTH 362 0
DWIDTH 16 0
BBX 16 16 0 -2
BITMAP
3000
33FF
3020
3043
FBFF
337B
337B
3B7B
737B
F37B
337B
337B
337B
337B
F35B
6302
ENDCHAR
STARTCHAR 2953
ENCODING 10579
SWIDTH 362 0
DWIDTH 16 0
BBX 16 16 0 -2
BITMAP
3002
31FF
3102
3102
F9FE
3102
3102
3932
7030
F033
33FF
3030
3030
3030
F030
6030
ENDCHAR
STARTCHAR 2954
ENCODING 10580
SWIDTH 362 0
DWIDTH 16 0
BBX 16 16 0 -2
BITMAP
3202
33FF
3333
3333
FB33
33FF
3333
3B33
733B
F36B
334F
33C7
3387
3303
F3FF
6202
ENDCHAR
STARTCHAR 2955
ENCODING 10581
SWIDTH 362 0
DWIDTH 16 0
BBX 16 16 0 -2
BITMAP
301C
30D8
30D8
30D8
F8D8
33D8
32FF
3AD8
72D8
F2D8
32D8
32D8
32D8
32F9
F7DF
660F
ENDCHAR
STARTCHAR 2956
ENCODING 10582
SWIDTH 362 0
DWIDTH 16 0
BBX 16 16 0 -2
BITMAP
3006
33FE
3206
33FE
FA26
3226
32FE
3AAE
72AE
F2AE
32AE
32AE
32BB
36AB
F423
6821
ENDCHAR
STARTCHAR 2957
ENCODING 10583
SWIDTH 362 0
DWIDTH 16 0
BBX 16 16 0 -2
BITMAP
3070
3062
33FE
30CC
F986
33FF
33C3
388C
708C
F3FF
308C
318C
318C
310C
F30C
660C
ENDCHAR
STARTCHAR 2958
ENCODING 10584
SWIDTH 362 0
DWIDTH 16 0
BBX 16 16 0 -2
BITMAP
3002
33FF
3030
3020
F966
3103
3102
3902
7102
F1FE
3102
3102
3102
3102
F1FE
2102
ENDCHAR
STARTCHAR 2959
ENCODING 10585
SWIDTH 362 0
DWIDTH 16 0
BBX 16 16 0 -2
BITMAP
3030
3030
3022
303E
F820
3020
33FF
3800
73FF
F020
3038
302C
3026
3020
F020
2020
ENDCHAR
STARTCHAR 295a
ENCODING 10586
SWIDTH 362 0
DWIDTH 16 0
BBX 16 16 0 -2
BITMAP
3006
307E
3046
31C6
F97E
3100
3330
3930
7010
F3FF
3030
3020
3064
30C2
F183
2701
ENDCHAR
STARTCHAR 295b
ENCODING 10587
SWIDTH 362 0
DWIDTH 16 0
BBX 16 16 0 -2
BITMAP
3060
307C
30CC
309A
F9FF
3033
3032
3BFF
7032
F032
31FE
3030
3030
3030
F1F0
2060
ENDCHAR
STARTCHAR 295c
ENCODING 10588
SWIDTH 362 0
DWIDTH 16 0
BBX 16 16 0 -2
BITMAP
3180
31BF
2300
2300
FEC0
25BF
2186
3306
7306
E706
2106
2106
2106
2106
613E
610C
ENDCHAR
STARTCHAR 295d
ENCODING 10589
SWIDTH 362 0
DWIDTH 16 0
BBX 16 16 0 -2
BITMAP
3C30
2C30
3F20
3F63
2D7F
FF66
ACE6
ACA4
FF34
2D1C
2D18
2D18
6F1C
6C26
4C47
8D83
ENDCHAR
STARTCHAR 295e
ENCODING 10590
SWIDTH 362 0
DWIDTH 16 0
BBX 16 16 0 -2
BITMAP
0130
FFB0
0220
1263
7A7F
5A66
5AE6
5AA4
5A34
721C
0218
0218
021C
0226
1E47
0783
ENDCHAR
STARTCHAR 295f
ENCODING 10591
SWIDTH 362 0
DWIDTH 16 0
BBX 16 16 0 -2
BITMAP
0230
FF30
C820
C863
C87F
CB66
FFE6
C8A4
CC34
CC1C
C418
C698
F39C
E326
CDC7
0183
ENDCHAR
STARTCHAR 2960
ENCODING 10592
SWIDTH 362 0
DWIDTH 16 0
BBX 16 16 0 -2
BITMAP
1830
1830
3020
2460
627F
C366
FFE6
C1A4
0034
7F1C
4318
4218
421C
4226
7E47
4383
ENDCHAR
STARTCHAR 2961
ENCODING 10593
SWIDTH 362 0
DWIDTH 16 0
BBX 16 16 0 -2
BITMAP
1806
9B06
DB36
7E16
1806
7E06
1866
1826
1A06
1806
18FF
1006
3006
2006
6006
C004
ENDCHAR
STARTCHAR 2962
ENCODING 10594
SWIDTH 362 0
DWIDTH 16 0
BBX 16 16 0 -2
BITMAP
0106
FF7C
0260
1260
7A60
5A7F
5A66
5A66
5A66
7266
0266
0246
0246
02C6
1E86
0784
ENDCHAR
STARTCHAR 2963
ENCODING 10595
SWIDTH 362 0
DWIDTH 16 0
BBX 16 16 0 -2
BITMAP
0000
09FE
FD86
CD86
C986
C986
C9FE
F986
C986
C986
C986
C9FE
F904
8000
07FF
0000
ENDCHAR
STARTCHAR 2964
ENCODING 10596
SWIDTH 362 0
DWIDTH 16 0
BBX 16 16 0 -2
BITMAP
0030
0933
FD32
CD32
CBFE
C830
C9FE
F886
C886
C8CC
C868
C838
F838
806C
0187
0703
ENDCHAR
STARTCHAR 2965
ENCODING 10597
SWIDTH 362 0
DWIDTH 16 0
BBX 16 16 0 -2
BITMAP
008C
098C
FD8C
CD8C
C98C
C98C
C90F
FA00
CC06
C9FE
C906
C906
F906
8106
01FE
0102
ENDCHAR
STARTCHAR 2966
ENCODING 10598
SWIDTH 362 0
DWIDTH 16 0
BBX 16 16 0 -2
BITMAP
1008
1FFC
1008
1FF8
1008
1FF8
0004
7FFE
6026
67F6
6426
67E6
6426
6006
603E
600C
ENDCHAR
STARTCHAR 2967
ENCODING 10599
SWIDTH 362 0
DWIDTH 16 0
BBX 16 16 0 -2
BITMAP
1008
1FFC
1008
1008
1FF8
0600
0C10
1878
3FCC
1C34
0C30
FFFF
0C30
1830
3030
6030
ENDCHAR
STARTCHAR 2968
ENCODING 10600
SWIDTH 362 0
DWIDTH 16 0
BBX 16 16 0 -2
BITMAP
0180
0188
3FFC
3188
3FF8
318B
FFFF
3008
3078
2010
3018
300C
3008
3008
3008
3008
ENDCHAR
STARTCHAR 2969
ENCODING 10601
SWIDTH 362 0
DWIDTH 16 0
BBX 16 16 0 -2
BITMAP
4902
7DFF
4903
4903
4903
7903
49FF
4968
4868
4868
4848
48C8
C888
C989
BB0F
9E07
ENDCHAR
STARTCHAR 296a
ENCODING 10602
SWIDTH 362 0
DWIDTH 16 0
BBX 16 16 0 -2
BITMAP
1C22
183F
5B23
5B23
5B23
5B3F
FF23
1A23
1823
D93F
D923
D963
D963
D943
FFDF
0186
ENDCHAR
STARTCHAR 296b
ENCODING 10603
SWIDTH 362 0
DWIDTH 16 0
BBX 16 16 0 -2
BITMAP
3206
3303
2202
FBFE
2222
6260
7264
7BFE
EA64
A264
A264
2664
26C4
24C5
3987
2307
ENDCHAR
STARTCHAR 296c
ENCODING 10604
SWIDTH 362 0
DWIDTH 16 0
BBX 16 16 0 -2
BITMAP
301E
31F0
3030
FC37
31B6
30B4
78B8
7C33
73FF
F030
B030
B030
3030
3030
31F0
3060
ENDCHAR
STARTCHAR 296d
ENCODING 10605
SWIDTH 362 0
DWIDTH 16 0
BBX 16 16 0 -2
BITMAP
3020
3133
31FF
FF02
3000
3003
79FF
7C10
7010
F010
B010
B010
3010
3010
30F0
3020
ENDCHAR
STARTCHAR 296e
ENCODING 10606
SWIDTH 362 0
DWIDTH 16 0
BBX 16 16 0 -2
BITMAP
3018
3010
3010
FDFF
3010
3193
7993
7D93
71B3
F1B3
B193
B113
3113
3313
3613
3010
ENDCHAR
STARTCHAR 296f
ENCODING 10607
SWIDTH 362 0
DWIDTH 16 0
BBX 16 16 0 -2
BITMAP
3030
3020
3044
FC86
33FF
3183
7884
7CC6
7084
F3FF
B084
B084
3184
3184
3304
3204
ENDCHAR
STARTCHAR 2970
ENCODING 10608
SWIDTH 362 0
DWIDTH 16 0
BBX 16 16 0 -2
BITMAP
0130
FF30
0220
1263
7A7F
5A5A
5AD8
5A18
5A18
7218
023C
0234
0224
0266
1E43
0681
ENDCHAR
STARTCHAR 2971
ENCODING 10609
SWIDTH 362 0
DWIDTH 16 0
BBX 16 16 0 -2
BITMAP
1730
5630
5620
5663
567F
FF5A
56D8
5618
5618
5618
5E3C
4034
4024
4066
FF43
0081
ENDCHAR
STARTCHAR 2972
ENCODING 10610
SWIDTH 362 0
DWIDTH 16 0
BBX 16 16 0 -2
BITMAP
0270
FF60
3260
3243
32FF
22D2
7F90
CC10
8030
7E38
4638
462C
466C
4646
7EC3
4381
ENDCHAR
STARTCHAR 2973
ENCODING 10611
SWIDTH 362 0
DWIDTH 16 0
BBX 16 16 0 -2
BITMAP
0070
FE60
C660
C643
C6FF
C6D2
C690
FE10
0030
6038
6638
622C
636C
4346
80C3
8181
ENDCHAR
STARTCHAR 2974
ENCODING 10612
SWIDTH 362 0
DWIDTH 16 0
BBX 16 16 0 -2
BITMAP
1870
1860
3060
2043
66FF
C2D2
FF90
C210
0030
7E38
4638
462C
466C
4646
7EC3
4781
ENDCHAR
STARTCHAR 2975
ENCODING 10613
SWIDTH 362 0
DWIDTH 16 0
BBX 16 16 0 -2
BITMAP
0718
3610
2610
66B3
4FFF
D6AB
F6CA
7688
2688
668C
569C
F49C
9CB6
09B2
17E3
23C1
ENDCHAR
STARTCHAR 2976
ENCODING 10614
SWIDTH 362 0
DWIDTH 16 0
BBX 16 16 0 -2
BITMAP
0018
3018
1018
FE18
0C18
0CD8
4C9A
4C98
6898
6898
3898
3098
1E98
F098
C0DB
0000
ENDCHAR
STARTCHAR 2977
ENCODING 10615
SWIDTH 362 0
DWIDTH 16 0
BBX 16 16 0 -2
BITMAP
0018
FC13
2013
21FF
7D10
6D10
4D13
CD13
B912
191E
191C
310C
31DD
61B7
4163
81C1
ENDCHAR
STARTCHAR 2978
ENCODING 10616
SWIDTH 362 0
DWIDTH 16 0
BBX 16 16 0 -2
BITMAP
0030
FDB0
21B0
21FF
7DB0
6D30
4F30
CFFF
B830
1870
1878
3048
30CC
6186
4303
8601
ENDCHAR
STARTCHAR 2979
ENCODING 10617
SWIDTH 362 0
DWIDTH 16 0
BBX 16 16 0 -2
BITMAP
0002
FDFF
2182
2182
7D82
6DFE
4D98
CD98
B9FF
1998
1998
3188
318C
61A5
41C7
80C3
ENDCHAR
STARTCHAR 297a
ENCODING 10618
SWIDTH 362 0
DWIDTH 16 0
BBX 16 16 0 -2
BITMAP
0060
FC40
20FE
20C6
7DEC
6D3C
4C18
CC3C
B86F
18E7
1B18
3008
3000
6030
4018
800C
ENDCHAR
STARTCHAR 297b
ENCODING 10619
SWIDTH 362 0
DWIDTH 16 0
BBX 16 16 0 -2
BITMAP
0400
0FF0
1870
3048
7FFC
300C
3008
3FF8
20C8
60C0
62C6
60C0
60C0
66C2
78FE
207E
ENDCHAR
STARTCHAR 297c
ENCODING 10620
SWIDTH 362 0
DWIDTH 16 0
BBX 16 16 0 -2
BITMAP
2002
33FF
1302
0302
8B02
4BFE
7B32
1030
3030
31FF
6030
E030
6030
6030
6033
2000
ENDCHAR
STARTCHAR 297d
ENCODING 10621
SWIDTH 362 0
DWIDTH 16 0
BBX 16 16 0 -2
BITMAP
2206
33FE
135E
035E
8B5E
4FFF
7B5E
135E
335E
37FF
635E
E35E
635E
625E
665E
2C06
ENDCHAR
STARTCHAR 297e
ENCODING 10622
SWIDTH 362 0
DWIDTH 16 0
BBX 16 16 0 -2
BITMAP
4198
2198
0118
0318
8BFF
D218
5618
1638
3A3C
227C
625F
E2DB
6398
6218
6218
2210
ENDCHAR
STARTCHAR 2a21
ENCODING 10785
SWIDTH 362 0
DWIDTH 16 0
BBX 16 16 0 -2
BITMAP
2030
3030
1032
0030
8A23
4926
79A4
1023
33FF
3070
6070
E0C8
60CC
6186
6307
2C03
ENDCHAR
STARTCHAR 2a22
ENCODING 10786
SWIDTH 362 0
DWIDTH 16 0
BBX 16 16 0 -2
BITMAP
2030
3030
13FF
0020
8B36
4B36
7B26
1326
33FE
3022
6160
E0E0
60E0
61B8
630F
2603
ENDCHAR
STARTCHAR 2a23
ENCODING 10787
SWIDTH 362 0
DWIDTH 16 0
BBX 16 16 0 -2
BITMAP
2002
33FF
1030
0070
88F6
49B3
7A31
1020
3030
3030
6033
E030
6030
6030
6030
2030
ENDCHAR
STARTCHAR 2a24
ENCODING 10788
SWIDTH 362 0
DWIDTH 16 0
BBX 16 16 0 -2
BITMAP
2030
3030
11B6
01B3
8933
4B31
7A30
1030
3030
33FF
6030
E070
6048
608C
6107
2603
ENDCHAR
STARTCHAR 2a25
ENCODING 10789
SWIDTH 362 0
DWIDTH 16 0
BBX 16 16 0 -2
BITMAP
2180
3100
13FF
0200
8706
4936
6936
1136
37FF
3326
6326
E326
63FF
6006
603C
2008
ENDCHAR
STARTCHAR 2a26
ENCODING 10790
SWIDTH 362 0
DWIDTH 16 0
BBX 16 16 0 -2
BITMAP
30C0
30CC
30C6
30C0
BFFF
F880
70C6
30E6
31A6
31A4
319C
7918
6F18
4F2C
C647
8583
ENDCHAR
STARTCHAR 2a27
ENCODING 10791
SWIDTH 362 0
DWIDTH 16 0
BBX 16 16 0 -2
BITMAP
3102
31FF
3132
3132
BD32
F9FE
7132
3132
3132
31FE
3132
7932
6F32
4F32
C23E
8426
ENDCHAR
STARTCHAR 2a28
ENCODING 10792
SWIDTH 362 0
DWIDTH 16 0
BBX 16 16 0 -2
BITMAP
301E
31F0
3030
3037
BDB6
F8B4
70B8
3033
33FF
3030
3030
7830
6C30
4C30
C1F0
8060
ENDCHAR
STARTCHAR 2a29
ENCODING 10793
SWIDTH 362 0
DWIDTH 16 0
BBX 16 16 0 -2
BITMAP
0180
318C
1B18
02E0
0418
180E
3003
DFF8
1818
1818
1FF8
1818
1FF8
1818
181B
0000
ENDCHAR
STARTCHAR 2a2a
ENCODING 10794
SWIDTH 362 0
DWIDTH 16 0
BBX 16 16 0 -2
BITMAP
007C
3F80
030C
1198
1890
0180
3198
318C
3188
3FF8
3188
FFFF
3008
3008
3078
3018
ENDCHAR
STARTCHAR 2a2b
ENCODING 10795
SWIDTH 362 0
DWIDTH 16 0
BBX 16 16 0 -2
BITMAP
0C02
89FF
7813
3812
6C10
C4D0
08D2
0C90
0890
D890
7890
3190
3990
6D70
473F
8600
ENDCHAR
STARTCHAR 2a2c
ENCODING 10796
SWIDTH 362 0
DWIDTH 16 0
BBX 16 16 0 -2
BITMAP
4C02
6DFF
4863
4863
4863
F843
08DE
098C
4B02
49FF
4982
4982
4982
C982
C9FE
8982
ENDCHAR
STARTCHAR 2a2d
ENCODING 10797
SWIDTH 362 0
DWIDTH 16 0
BBX 16 16 0 -2
BITMAP
4CC0
6CCC
48C6
48C0
4BFF
F8C0
08C6
08E6
48A4
48B4
499C
4998
491C
CB36
CE63
89C1
ENDCHAR
STARTCHAR 2a2e
ENCODING 10798
SWIDTH 362 0
DWIDTH 16 0
BBX 16 16 0 -2
BITMAP
19C0
7180
5182
51FF
FF60
D260
9062
107E
3C60
F060
D062
107E
1060
1060
1060
1060
ENDCHAR
STARTCHAR 2a2f
ENCODING 10799
SWIDTH 362 0
DWIDTH 16 0
BBX 16 16 0 -2
BITMAP
1800
73FF
5006
5126
FDF6
D1B6
91A6
11A6
3DA6
F1E6
D126
1006
1006
1006
103E
100C
ENDCHAR
STARTCHAR 2a30
ENCODING 10800
SWIDTH 362 0
DWIDTH 16 0
BBX 16 16 0 -2
BITMAP
0660
0660
7E7F
0660
0661
1E7F
E43F
4180
1180
3FFC
2180
4180
FFFF
0180
0180
0100
ENDCHAR
STARTCHAR 2a31
ENCODING 10801
SWIDTH 362 0
DWIDTH 16 0
BBX 16 16 0 -2
BITMAP
0830
5832
3333
31B6
51BC
9830
1BFF
1830
38B0
69B4
C9B2
0933
0B33
1A31
7830
3030
ENDCHAR
STARTCHAR 2a32
ENCODING 10802
SWIDTH 362 0
DWIDTH 16 0
BBX 16 16 0 -2
BITMAP
1030
D830
77FF
6020
F3FE
1026
1B36
3B36
3A22
5BFF
9863
1877
18DE
198E
F307
2603
ENDCHAR
STARTCHAR 2a33
ENCODING 10803
SWIDTH 362 0
DWIDTH 16 0
BBX 16 16 0 -2
BITMAP
1030
D830
71FE
6026
F036
1036
1826
39FE
3820
5BFE
9820
1823
1FFF
1820
F020
2020
ENDCHAR
STARTCHAR 2a34
ENCODING 10804
SWIDTH 362 0
DWIDTH 16 0
BBX 16 16 0 -2
BITMAP
1030
D830
73FF
6020
F336
1336
1B26
3B26
3BFE
5822
9960
18E0
18E0
19B8
F30F
2603
ENDCHAR
STARTCHAR 2a35
ENCODING 10805
SWIDTH 362 0
DWIDTH 16 0
BBX 16 16 0 -2
BITMAP
1030
D830
7336
6333
F222
13FE
1A22
3A22
3BFE
5A22
9836
183C
1838
187D
F187
2603
ENDCHAR
STARTCHAR 2a36
ENCODING 10806
SWIDTH 362 0
DWIDTH 16 0
BBX 16 16 0 -2
BITMAP
00C0
0CCC
FCC6
30C0
33FF
3080
38C6
30E6
31A6
31A4
319C
3D18
F318
C32C
0647
0583
ENDCHAR
STARTCHAR 2a37
ENCODING 10807
SWIDTH 362 0
DWIDTH 16 0
BBX 16 16 0 -2
BITMAP
0030
0C60
FCC4
3186
33FF
3303
388C
30CC
308C
33FF
308C
3C8C
F18C
C18C
030C
020C
ENDCHAR
STARTCHAR 2a38
ENCODING 10808
SWIDTH 362 0
DWIDTH 16 0
BBX 16 16 0 -2
BITMAP
0102
0DFF
FD82
3182
3182
31FE
3982
3182
3182
3182
31FE
3D82
F182
C182
01FE
0102
ENDCHAR
STARTCHAR 2a39
ENCODING 10809
SWIDTH 362 0
DWIDTH 16 0
BBX 16 16 0 -2
BITMAP
0E18
7E18
5EFF
5F9B
5E18
5E1C
5E3C
5E3C
5A2D
5B4F
5B87
5180
74C0
E660
FF3F
E31E
ENDCHAR
STARTCHAR 2a3a
ENCODING 10810
SWIDTH 362 0
DWIDTH 16 0
BBX 16 16 0 -2
BITMAP
1806
10FF
3696
3096
1096
D696
D696
D696
D6B2
D7AA
FD4F
13F7
12C6
1001
1FFF
0FFF
ENDCHAR
STARTCHAR 2a3b
ENCODING 10811
SWIDTH 362 0
DWIDTH 16 0
BBX 16 16 0 -2
BITMAP
0210
FE38
6038
6064
6CC7
6FFD
6400
74FE
7C06
7C04
440C
4418
4401
5C01
E7FF
C7FF
ENDCHAR
STARTCHAR 2a3c
ENCODING 10812
SWIDTH 362 0
DWIDTH 16 0
BBX 16 16 0 -2
BITMAP
0282
FEFF
6080
6086
6CFE
6CA6
64B6
749C
7C9C
7D9E
4533
46C1
4400
5C01
E7FF
C7FF
ENDCHAR
STARTCHAR 2a3d
ENCODING 10813
SWIDTH 362 0
DWIDTH 16 0
BBX 16 16 0 -2
BITMAP
0002
FF7F
6660
6660
666E
6666
6666
6676
6676
667C
6644
6644
6644
465D
C6E7
84C7
ENDCHAR
STARTCHAR 2a3e
ENCODING 10814
SWIDTH 362 0
DWIDTH 16 0
BBX 16 16 0 -2
BITMAP
1802
18FF
3460
2260
436E
C166
FE66
0076
0276
7F7C
0244
0644
0444
0C5D
08E7
08C7
ENDCHAR
STARTCHAR 2a3f
ENCODING 10815
SWIDTH 362 0
DWIDTH 16 0
BBX 16 16 0 -2
BITMAP
1C60
5860
5860
7F40
D8FF
D8C6
98C6
9A44
7E6C
182C
1838
1838
1E38
F06C
C187
0303
ENDCHAR
STARTCHAR 2a40
ENCODING 10816
SWIDTH 362 0
DWIDTH 16 0
BBX 16 16 0 -2
BITMAP
0018
09D0
FD90
CD90
C9FF
C910
CB10
FA10
C810
C9FF
C810
C810
F810
8010
0010
03FF
ENDCHAR
STARTCHAR 2a41
ENCODING 10817
SWIDTH 362 0
DWIDTH 16 0
BBX 16 16 0 -2
BITMAP
0060
0030
FFFF
D400
D484
D4FE
D4C4
FCC4
D4C4
D4C4
D4C4
D4C4
FC84
8185
0307
0607
ENDCHAR
STARTCHAR 2a42
ENCODING 10818
SWIDTH 362 0
DWIDTH 16 0
BBX 16 16 0 -2
BITMAP
0004
01FE
FC0C
D448
D430
D433
D5FF
FC32
D430
D430
D430
D430
FC30
8030
01F0
0060
ENDCHAR
STARTCHAR 2a43
ENCODING 10819
SWIDTH 362 0
DWIDTH 16 0
BBX 16 16 0 -2
BITMAP
2008
3FFC
218C
3FFC
218C
3FFC
0180
1980
318C
3180
4180
FFFF
0180
0180
0180
0100
ENDCHAR
STARTCHAR 2a44
ENCODING 10820
SWIDTH 362 0
DWIDTH 16 0
BBX 16 16 0 -2
BITMAP
18CC
1988
3112
FFFF
3118
198C
188C
0004
3FFC
3184
3184
3FFC
3184
3184
318C
300C
ENDCHAR
STARTCHAR 2a45
ENCODING 10821
SWIDTH 362 0
DWIDTH 16 0
BBX 16 16 0 -2
BITMAP
0080
20C3
3FFF
A000
E7FE
E460
2C60
2C62
6FFF
E040
60E0
60A0
6121
4221
CC3F
981F
ENDCHAR
STARTCHAR 2a46
ENCODING 10822
SWIDTH 362 0
DWIDTH 16 0
BBX 16 16 0 -2
BITMAP
0080
20C3
3FFF
A060
E060
E060
3366
3368
6170
E370
6368
666C
6467
4863
D3E0
80C0
ENDCHAR
STARTCHAR 2a47
ENCODING 10823
SWIDTH 362 0
DWIDTH 16 0
BBX 16 16 0 -2
BITMAP
0080
20C3
3FFF
A060
E0E0
E0D0
2188
23FF
6603
F80C
63FC
600C
6008
4018
C010
8020
ENDCHAR
STARTCHAR 2a48
ENCODING 10824
SWIDTH 362 0
DWIDTH 16 0
BBX 16 16 0 -2
BITMAP
0080
20C3
3FFF
A03C
E7FC
E600
2602
27FF
6610
E610
6610
6610
6410
4C10
C810
9810
ENDCHAR
STARTCHAR 2a49
ENCODING 10825
SWIDTH 362 0
DWIDTH 16 0
BBX 16 16 0 -2
BITMAP
0080
20C3
3FFF
A002
E7FF
E400
2404
27FE
650C
E58C
6498
6470
6C70
4CD8
D98F
B703
ENDCHAR
STARTCHAR 2a4a
ENCODING 10826
SWIDTH 362 0
DWIDTH 16 0
BBX 16 16 0 -2
BITMAP
0080
20C3
3FFF
A1C0
E198
E198
2198
2319
661F
EC6F
7040
6043
7FFF
4040
C040
8040
ENDCHAR
STARTCHAR 2a4b
ENCODING 10827
SWIDTH 362 0
DWIDTH 16 0
BBX 16 16 0 -2
BITMAP
0080
20C3
3FFF
A600
E606
E400
2C0C
3800
600C
E00C
6004
6004
6004
4007
C003
8001
ENDCHAR
STARTCHAR 2a4c
ENCODING 10828
SWIDTH 362 0
DWIDTH 16 0
BBX 16 16 0 -2
BITMAP
0000
31FF
6133
FD32
CD32
C932
C932
C9FE
F902
C900
C900
C900
F901
C903
01FF
0000
ENDCHAR
STARTCHAR 2a4d
ENCODING 10829
SWIDTH 362 0
DWIDTH 16 0
BBX 16 16 0 -2
BITMAP
0600
0608
3FFC
300C
3008
3008
3008
3FF8
0188
218C
3998
1BD0
0660
0C38
180F
E003
ENDCHAR
STARTCHAR 2a4e
ENCODING 10830
SWIDTH 362 0
DWIDTH 16 0
BBX 16 16 0 -2
BITMAP
60C0
62C2
7EFE
60C1
6EC3
707F
21C0
2184
3FFE
2184
2FF8
2230
2360
61C0
433F
BC0E
ENDCHAR
STARTCHAR 2a4f
ENCODING 10831
SWIDTH 362 0
DWIDTH 16 0
BBX 16 16 0 -2
BITMAP
0218
FE18
6C18
6DFF
6D9B
6D9A
6D98
6DFE
6DC6
6DA6
6DA4
6D9C
6D98
4D36
CF63
8EC1
ENDCHAR
STARTCHAR 2a50
ENCODING 10832
SWIDTH 362 0
DWIDTH 16 0
BBX 16 16 0 -2
BITMAP
0C30
1818
301E
6607
8610
07F8
0018
0010
0030
00E0
2048
3FFC
3648
3648
3648
FFFF
ENDCHAR
STARTCHAR 2a51
ENCODING 10833
SWIDTH 362 0
DWIDTH 16 0
BBX 16 16 0 -2
BITMAP
0004
3FFC
0C30
0C30
0C36
0C30
0C30
1830
1030
2030
4008
3FFC
3648
3648
3648
FFFF
ENDCHAR
STARTCHAR 2a52
ENCODING 10834
SWIDTH 362 0
DWIDTH 16 0
BBX 16 16 0 -2
BITMAP
0060
F830
DBFF
D840
D840
F840
D87E
D846
D8C6
D8C6
D8C6
D886
D986
DB06
067C
0C18
ENDCHAR
STARTCHAR 2a53
ENCODING 10835
SWIDTH 362 0
DWIDTH 16 0
BBX 16 16 0 -2
BITMAP
0023
F9F3
D832
D832
D932
F932
DB02
DB32
DBF2
D832
D832
D832
D832
D832
01E2
00C2
ENDCHAR
STARTCHAR 2a54
ENCODING 10836
SWIDTH 362 0
DWIDTH 16 0
BBX 16 16 0 -2
BITMAP
0002
FBFE
D888
D888
D888
F888
D8CF
D8CC
D888
D888
D888
D988
D908
DB08
0208
0408
ENDCHAR
STARTCHAR 2a55
ENCODING 10837
SWIDTH 362 0
DWIDTH 16 0
BBX 16 16 0 -2
BITMAP
0004
F9FE
D800
D800
D800
F803
DBFF
D8D8
D8D8
D8D8
D898
D998
D998
DB19
061F
0C0F
ENDCHAR
STARTCHAR 2a56
ENCODING 10838
SWIDTH 362 0
DWIDTH 16 0
BBX 16 16 0 -2
BITMAP
0002
FBFE
D820
D820
D820
F823
DBFF
D870
D870
D870
D8D8
D8C8
D98C
DB06
0603
0C01
ENDCHAR
STARTCHAR 2a57
ENCODING 10839
SWIDTH 362 0
DWIDTH 16 0
BBX 16 16 0 -2
BITMAP
0070
F860
D860
D9FE
D866
F866
D866
D866
DBFF
D860
D848
D8C4
D886
D983
0303
0C01
ENDCHAR
STARTCHAR 2a58
ENCODING 10840
SWIDTH 362 0
DWIDTH 16 0
BBX 16 16 0 -2
BITMAP
0300
FB03
DB7F
DB1B
DBDB
FB1B
DB1B
DB1B
DB1B
DB13
DBF3
DBB3
DB23
D066
00FE
018C
ENDCHAR
STARTCHAR 2a59
ENCODING 10841
SWIDTH 362 0
DWIDTH 16 0
BBX 16 16 0 -2
BITMAP
0082
7CFF
44C2
44C2
44C2
7CFE
44C2
44C2
4CC2
4CFE
44C2
4482
4D82
4D02
031E
0606
ENDCHAR
STARTCHAR 2a5a
ENCODING 10842
SWIDTH 362 0
DWIDTH 16 0
BBX 16 16 0 -2
BITMAP
0180
F980
D980
D9FF
DB6B
FB6B
DA4B
D85B
D8DB
D89B
D9B3
D933
DA63
DCC3
019E
000C
ENDCHAR
STARTCHAR 2a5b
ENCODING 10843
SWIDTH 362 0
DWIDTH 16 0
BBX 16 16 0 -2
BITMAP
0018
1FF8
1018
1018
1FF8
1018
1FF8
0180
01FC
0190
1FF8
0C30
03E0
03E0
0E3F
F00F
ENDCHAR
STARTCHAR 2a5c
ENCODING 10844
SWIDTH 362 0
DWIDTH 16 0
BBX 16 16 0 -2
BITMAP
0C18
6C0C
6FF8
6C08
6FF8
6FF8
600A
7FFE
1084
198C
3108
6210
2318
318C
188C
1084
ENDCHAR
STARTCHAR 2a5d
ENCODING 10845
SWIDTH 362 0
DWIDTH 16 0
BBX 16 16 0 -2
BITMAP
000E
F9F8
D910
D910
D910
F910
D9FF
D910
D918
D918
D918
D908
D90C
D965
01C7
0103
ENDCHAR
STARTCHAR 2a5e
ENCODING 10846
SWIDTH 362 0
DWIDTH 16 0
BBX 16 16 0 -2
BITMAP
00F8
7F80
6180
7FFC
60C0
60C0
6E62
783E
201E
1018
1018
1018
1018
1018
1018
1010
ENDCHAR
STARTCHAR 2a5f
ENCODING 10847
SWIDTH 362 0
DWIDTH 16 0
BBX 16 16 0 -2
BITMAP
0404
FFFE
0C66
7866
3066
FE66
3666
31FF
7044
7044
D044
9044
1044
1044
F0CF
2000
ENDCHAR
STARTCHAR 2a60
ENCODING 10848
SWIDTH 362 0
DWIDTH 16 0
BBX 16 16 0 -2
BITMAP
0488
FEFC
0CCC
78CC
30CC
FE87
3700
33FE
7086
70CC
D048
9038
1038
107E
F0C7
2703
ENDCHAR
STARTCHAR 2a61
ENCODING 10849
SWIDTH 362 0
DWIDTH 16 0
BBX 16 16 0 -2
BITMAP
04D8
FEC8
0C84
7986
3103
FEFD
34C0
30C4
70FE
7006
D006
9004
100C
100C
F0F8
2030
ENDCHAR
STARTCHAR 2a62
ENCODING 10850
SWIDTH 362 0
DWIDTH 16 0
BBX 16 16 0 -2
BITMAP
0030
FC34
203E
21F0
6030
6030
7DFE
EC30
EC30
EC33
6FFF
6C30
7C30
6830
4030
0030
ENDCHAR
STARTCHAR 2a63
ENCODING 10851
SWIDTH 362 0
DWIDTH 16 0
BBX 16 16 0 -2
BITMAP
0030
FC30
2020
2020
61FF
6060
7C68
EC4C
ECD8
ECD0
6CB0
6DB0
7D66
6A43
44FF
00C1
ENDCHAR
STARTCHAR 2a64
ENCODING 10852
SWIDTH 362 0
DWIDTH 16 0
BBX 16 16 0 -2
BITMAP
0006
FCCC
2038
2038
606E
60C6
7D80
EC00
EC87
EC86
6C4C
6C38
7C30
6878
40CF
0386
ENDCHAR
STARTCHAR 2a65
ENCODING 10853
SWIDTH 362 0
DWIDTH 16 0
BBX 16 16 0 -2
BITMAP
00C0
FCC0
20C3
2183
6103
6303
7CFB
EC03
EC03
EC13
6CFB
6C03
7C03
6806
403E
000C
ENDCHAR
STARTCHAR 2a66
ENCODING 10854
SWIDTH 362 0
DWIDTH 16 0
BBX 16 16 0 -2
BITMAP
6030
2030
0830
FDFF
0830
1830
3030
3BFF
7C30
F470
B078
3048
30CC
3186
3303
3601
ENDCHAR
STARTCHAR 2a67
ENCODING 10855
SWIDTH 362 0
DWIDTH 16 0
BBX 16 16 0 -2
BITMAP
6318
2318
0B18
FF18
0B18
1B18
33FF
3B18
7F18
F718
B318
3318
3318
33D9
339F
330F
ENDCHAR
STARTCHAR 2a68
ENCODING 10856
SWIDTH 362 0
DWIDTH 16 0
BBX 16 16 0 -2
BITMAP
0418
FE10
1010
11FF
5993
5D93
55B3
55B3
D793
9793
97FF
9010
1010
1010
1010
1010
ENDCHAR
STARTCHAR 2a69
ENCODING 10857
SWIDTH 362 0
DWIDTH 16 0
BBX 16 16 0 -2
BITMAP
1C60
7830
13FF
1040
7C40
3040
387E
3C46
74C6
70C6
D0C6
9086
1186
1306
167C
1C18
ENDCHAR
STARTCHAR 2a6a
ENCODING 10858
SWIDTH 362 0
DWIDTH 16 0
BBX 16 16 0 -2
BITMAP
1C30
7830
1030
11FF
7C30
3030
3830
3FFF
7430
7070
D078
9048
10CC
1186
1303
1601
ENDCHAR
STARTCHAR 2a6b
ENCODING 10859
SWIDTH 362 0
DWIDTH 16 0
BBX 16 16 0 -2
BITMAP
1C02
79FF
1098
1198
7D98
3198
39FF
3C18
7438
7038
D078
90D8
1198
1318
1678
1030
ENDCHAR
STARTCHAR 2a6c
ENCODING 10860
SWIDTH 362 0
DWIDTH 16 0
BBX 16 16 0 -2
BITMAP
1840
F020
3222
33FF
FF33
3333
333B
7B6B
7F4F
73CF
F387
B303
3303
3303
331F
3306
ENDCHAR
STARTCHAR 2a6d
ENCODING 10861
SWIDTH 362 0
DWIDTH 16 0
BBX 16 16 0 -2
BITMAP
1CC0
78C0
10FF
1180
7F06
3200
3806
3DFE
740C
7018
D060
90C0
1181
1101
11FF
10FF
ENDCHAR
STARTCHAR 2a6e
ENCODING 10862
SWIDTH 362 0
DWIDTH 16 0
BBX 16 16 0 -2
BITMAP
300E
3078
31B0
3030
BC32
FBFF
7030
3078
3078
30FC
30B6
79B7
6B33
4630
C030
8030
ENDCHAR
STARTCHAR 2a6f
ENCODING 10863
SWIDTH 362 0
DWIDTH 16 0
BBX 16 16 0 -2
BITMAP
1802
F1FF
30CC
30CC
FCCC
30CC
30CF
78CC
7CCC
70CC
F08C
B18C
318C
310C
320C
340C
ENDCHAR
STARTCHAR 2a70
ENCODING 10864
SWIDTH 362 0
DWIDTH 16 0
BBX 16 16 0 -2
BITMAP
1800
F1FF
3193
3193
FD93
3193
3193
79FF
7D80
7180
F180
B180
3181
3183
31FF
3000
ENDCHAR
STARTCHAR 2a71
ENCODING 10865
SWIDTH 362 0
DWIDTH 16 0
BBX 16 16 0 -2
BITMAP
0100
7FFF
C663
8C7E
1B3E
6300
0318
0318
0318
0318
FFFF
0200
0430
080C
3006
6002
ENDCHAR
STARTCHAR 2a72
ENCODING 10866
SWIDTH 362 0
DWIDTH 16 0
BBX 16 16 0 -2
BITMAP
0180
4083
7FFF
CC62
9874
333E
4300
7FFE
0600
0660
04C0
0CC0
1988
3304
67FE
4602
ENDCHAR
STARTCHAR 2a73
ENCODING 10867
SWIDTH 362 0
DWIDTH 16 0
BBX 16 16 0 -2
BITMAP
0100
7FFF
C663
8C7E
183E
6008
1C38
03E0
03F0
1C1C
601C
1838
07E0
03E0
0E3F
F007
ENDCHAR
STARTCHAR 2a74
ENCODING 10868
SWIDTH 362 0
DWIDTH 16 0
BBX 16 16 0 -2
BITMAP
0100
7FFF
C663
8C7E
183E
6004
7FFE
0C30
0C30
0C33
FFFF
0C30
0830
1830
3030
C030
ENDCHAR
STARTCHAR 2a75
ENCODING 10869
SWIDTH 362 0
DWIDTH 16 0
BBX 16 16 0 -2
BITMAP
2000
31FF
3193
0592
FF92
0D92
4D92
4DFE
6982
6980
3980
1780
7981
E183
00FF
0000
ENDCHAR
STARTCHAR 2a76
ENCODING 10870
SWIDTH 362 0
DWIDTH 16 0
BBX 16 16 0 -2
BITMAP
2070
306C
3066
0462
FE63
0C60
4C62
4C66
6866
6824
383C
1638
3C38
E06D
00C7
0303
ENDCHAR
STARTCHAR 2a77
ENCODING 10871
SWIDTH 362 0
DWIDTH 16 0
BBX 16 16 0 -2
BITMAP
1800
1600
55FF
7C30
3030
FE30
1030
7830
7430
7630
D630
9030
1030
1030
13FF
1000
ENDCHAR
STARTCHAR 2a78
ENCODING 10872
SWIDTH 362 0
DWIDTH 16 0
BBX 16 16 0 -2
BITMAP
6002
61FE
4460
FC60
9063
90C0
36C0
30C2
D4FF
D602
D602
D602
D606
D606
FE7C
0018
ENDCHAR
STARTCHAR 2a79
ENCODING 10873
SWIDTH 362 0
DWIDTH 16 0
BBX 16 16 0 -2
BITMAP
6002
60FF
4418
FC18
9018
9018
36FF
3018
D418
D618
D618
D618
D618
D618
FEF8
0030
ENDCHAR
STARTCHAR 2a7a
ENCODING 10874
SWIDTH 362 0
DWIDTH 16 0
BBX 16 16 0 -2
BITMAP
4004
7FFE
6666
7FFE
4004
0006
7FFE
0810
0FF8
1818
1818
1810
1FF0
0030
0033
0000
ENDCHAR
STARTCHAR 2a7b
ENCODING 10875
SWIDTH 362 0
DWIDTH 16 0
BBX 16 16 0 -2
BITMAP
4004
7FFE
6666
6666
7FFC
0600
0602
7FFF
0600
04C0
0CC0
1980
1308
2604
CFFE
0C02
ENDCHAR
STARTCHAR 2a7c
ENCODING 10876
SWIDTH 362 0
DWIDTH 16 0
BBX 16 16 0 -2
BITMAP
4004
7FFE
6666
7FFE
4184
0380
0640
0C20
1FF8
300F
FFF7
0030
0020
0060
0040
0080
ENDCHAR
STARTCHAR 2a7d
ENCODING 10877
SWIDTH 362 0
DWIDTH 16 0
BBX 16 16 0 -2
BITMAP
4004
7FFE
6186
63C6
6636
7C16
4004
1FF8
1018
1018
1FF8
1018
1FF8
1018
301B
0000
ENDCHAR
STARTCHAR 2a7e
ENCODING 10878
SWIDTH 362 0
DWIDTH 16 0
BBX 16 16 0 -2
BITMAP
0906
5886
30CC
33FF
5030
9830
1836
1830
3830
6830
CBFF
0830
0830
1830
7830
3030
ENDCHAR
STARTCHAR 2b21
ENCODING 11041
SWIDTH 362 0
DWIDTH 16 0
BBX 16 16 0 -2
BITMAP
1102
FFFF
1118
1118
DD18
7718
331B
1118
3318
7718
DD18
1118
1118
1118
7718
2218
ENDCHAR
STARTCHAR 2b22
ENCODING 11042
SWIDTH 362 0
DWIDTH 16 0
BBX 16 16 0 -2
BITMAP
110C
FFEC
1168
1168
DD6F
776B
336B
116B
336A
776A
DD68
1168
1160
1161
777F
223F
ENDCHAR
STARTCHAR 2b23
ENCODING 11043
SWIDTH 362 0
DWIDTH 16 0
BBX 16 16 0 -2
BITMAP
0042
03FF
F863
2063
227B
216F
21EF
2063
2063
21E7
237B
3A73
E063
4063
01EF
00C6
ENDCHAR
STARTCHAR 2b24
ENCODING 11044
SWIDTH 362 0
DWIDTH 16 0
BBX 16 16 0 -2
BITMAP
0004
7FFE
0180
0180
0182
FFFF
0000
7F7E
0306
3236
1236
0E1E
72F6
6246
1E1E
060C
ENDCHAR
STARTCHAR 2b25
ENCODING 11045
SWIDTH 362 0
DWIDTH 16 0
BBX 16 16 0 -2
BITMAP
0180
013E
3FF8
0130
0373
01C0
0302
0FFF
3206
C3FE
08C6
0CC6
0CC6
0C86
007C
0008
ENDCHAR
STARTCHAR 2b26
ENCODING 11046
SWIDTH 362 0
DWIDTH 16 0
BBX 16 16 0 -2
BITMAP
0180
0100
0336
031C
0110
0163
FFFF
0384
0707
0C0D
340C
C7FC
040C
040C
07FC
0408
ENDCHAR
STARTCHAR 2b27
ENCODING 11047
SWIDTH 362 0
DWIDTH 16 0
BBX 16 16 0 -2
BITMAP
2002
61FF
6020
6842
FDFF
E97A
697A
697A
497A
D97A
F97A
317A
397A
6D7A
C15A
0106
ENDCHAR
STARTCHAR 2b28
ENCODING 11048
SWIDTH 362 0
DWIDTH 16 0
BBX 16 16 0 -2
BITMAP
3000
31FF
2020
25FF
FFAB
27AA
37AA
37AA
3FAA
27AA
27AA
67AE
6601
4601
C7FF
83FF
ENDCHAR
STARTCHAR 2b29
ENCODING 11049
SWIDTH 362 0
DWIDTH 16 0
BBX 16 16 0 -2
BITMAP
1060
1C60
7C40
10FF
3480
3104
10FE
FE0C
3018
3C30
7460
76C0
D081
9181
11FF
10FF
ENDCHAR
STARTCHAR 2b2a
ENCODING 11050
SWIDTH 362 0
DWIDTH 16 0
BBX 16 16 0 -2
BITMAP
0840
7C20
4830
4BFF
6800
5806
4904
498C
598C
7888
48C8
48D8
C8D8
C850
B813
9800
ENDCHAR
STARTCHAR 2b2b
ENCODING 11051
SWIDTH 362 0
DWIDTH 16 0
BBX 16 16 0 -2
BITMAP
0860
7C30
4833
4830
6830
5830
4830
4830
59FE
7830
4830
4830
C830
C830
B833
9800
ENDCHAR
STARTCHAR 2b2c
ENCODING 11052
SWIDTH 362 0
DWIDTH 16 0
BBX 16 16 0 -2
BITMAP
0802
7DFE
4800
4800
6800
5BFF
4830
4830
59B4
79B6
4933
4B33
CA31
CE31
B830
9830
ENDCHAR
STARTCHAR 2b2d
ENCODING 11053
SWIDTH 362 0
DWIDTH 16 0
BBX 16 16 0 -2
BITMAP
0800
7FFF
4810
4810
6810
5810
49D0
499E
5990
7990
4990
4990
C990
C990
B9B3
9800
ENDCHAR
STARTCHAR 2b2e
ENCODING 11054
SWIDTH 362 0
DWIDTH 16 0
BBX 16 16 0 -2
BITMAP
0906
7DFE
49FE
49FE
69FE
59FE
49FE
4BFF
59FE
79FE
49FE
49FE
C9FE
C9FE
B9FE
9906
ENDCHAR
STARTCHAR 2b2f
ENCODING 11055
SWIDTH 362 0
DWIDTH 16 0
BBX 16 16 0 -2
BITMAP
0800
7C33
481A
4866
6844
584C
4848
4958
5952
7B73
4B61
4A61
C8E2
C9E4
BB7E
9E00
ENDCHAR
STARTCHAR 2b30
ENCODING 11056
SWIDTH 362 0
DWIDTH 16 0
BBX 16 16 0 -2
BITMAP
0830
7C30
4830
4830
6833
5830
4830
4830
5932
79FF
4902
4902
C902
C902
B9FE
9902
ENDCHAR
STARTCHAR 2b31
ENCODING 11057
SWIDTH 362 0
DWIDTH 16 0
BBX 16 16 0 -2
BITMAP
100E
303C
7DE0
4460
7460
5460
4C62
FDFF
C460
7460
5460
4460
C461
C461
BC7F
883F
ENDCHAR
STARTCHAR 2b32
ENCODING 11058
SWIDTH 362 0
DWIDTH 16 0
BBX 16 16 0 -2
BITMAP
1002
31FF
7C6C
4C6C
7C6C
5C6C
4C6C
FC6C
CC6C
7C4C
5CCC
4CCC
CC8C
CD8D
FD0F
9A07
ENDCHAR
STARTCHAR 2b33
ENCODING 11059
SWIDTH 362 0
DWIDTH 16 0
BBX 16 16 0 -2
BITMAP
1002
31FF
7C02
4CB6
7C96
5C56
4C44
FC4C
CC68
7C38
5C30
4C38
CC6C
CCC6
FD83
9F01
ENDCHAR
STARTCHAR 2b34
ENCODING 11060
SWIDTH 362 0
DWIDTH 16 0
BBX 16 16 0 -2
BITMAP
1030
3030
7C30
4C30
7C33
5C30
4C30
FC30
CC30
7C78
5C68
4C4C
CCC4
CD86
FD03
9E01
ENDCHAR
STARTCHAR 2b35
ENCODING 11061
SWIDTH 362 0
DWIDTH 16 0
BBX 16 16 0 -2
BITMAP
1060
3060
7C40
4CFF
7C80
5D04
4CFE
FC0C
CC18
7C30
5C60
4CC0
CC81
CD81
FDFF
98FF
ENDCHAR
STARTCHAR 2b36
ENCODING 11062
SWIDTH 362 0
DWIDTH 16 0
BBX 16 16 0 -2
BITMAP
1C18
1A13
FE7F
1910
0180
018C
7FFC
0180
0180
FFFF
0600
0C00
1808
3004
7FFE
7002
ENDCHAR
STARTCHAR 2b37
ENCODING 11063
SWIDTH 362 0
DWIDTH 16 0
BBX 16 16 0 -2
BITMAP
1C18
1A13
FE7F
1810
01D8
018C
018F
0180
0D90
0D98
0D90
0990
1998
319E
4180
0180
ENDCHAR
STARTCHAR 2b38
ENCODING 11064
SWIDTH 362 0
DWIDTH 16 0
BBX 16 16 0 -2
BITMAP
1C18
1A13
FE7F
1810
0018
1FF8
1018
1018
1018
1018
1018
1018
1FF8
1008
0003
0000
ENDCHAR
STARTCHAR 2b39
ENCODING 11065
SWIDTH 362 0
DWIDTH 16 0
BBX 16 16 0 -2
BITMAP
1C18
1A13
FE7F
1810
0018
1FF8
1018
1018
1018
1FF8
0640
0440
0C41
1843
307F
E07E
ENDCHAR
STARTCHAR 2b3a
ENCODING 11066
SWIDTH 362 0
DWIDTH 16 0
BBX 16 16 0 -2
BITMAP
1C18
1A13
FE7F
1810
0008
3FFC
218C
218C
3FFC
218C
318C
318C
218C
218C
61BC
C118
ENDCHAR
STARTCHAR 2b3b
ENCODING 11067
SWIDTH 362 0
DWIDTH 16 0
BBX 16 16 0 -2
BITMAP
1810
FF7F
1810
0180
0198
3FFC
2180
2180
318E
2386
0786
0D86
198C
31B8
E180
0100
ENDCHAR
STARTCHAR 2b3c
ENCODING 11068
SWIDTH 362 0
DWIDTH 16 0
BBX 16 16 0 -2
BITMAP
1C18
1A13
FE7F
1910
0182
FFFF
0180
0210
0C38
1860
06C0
0300
0608
181C
3FE6
3002
ENDCHAR
STARTCHAR 2b3d
ENCODING 11069
SWIDTH 362 0
DWIDTH 16 0
BBX 16 16 0 -2
BITMAP
1C18
1A13
FE7F
1810
0018
1FFC
1000
1000
1004
1FFC
1020
1020
1020
1020
1022
FFFF
ENDCHAR
STARTCHAR 2b3e
ENCODING 11070
SWIDTH 362 0
DWIDTH 16 0
BBX 16 16 0 -2
BITMAP
00C0
00FE
4082
7FFF
6306
7FFC
6300
61FC
6004
6FFE
6040
7FFF
4040
4040
83C0
8080
ENDCHAR
STARTCHAR 2b3f
ENCODING 11071
SWIDTH 362 0
DWIDTH 16 0
BBX 16 16 0 -2
BITMAP
00C0
00FE
4082
7FFF
6306
7FFC
6300
61FC
6006
6300
7FFF
6604
47FE
4004
81FC
8018
ENDCHAR
STARTCHAR 2b40
ENCODING 11072
SWIDTH 362 0
DWIDTH 16 0
BBX 16 16 0 -2
BITMAP
2184
6186
618C
630C
0600
0D80
1180
3FFC
218C
218C
318C
3188
0188
0184
7FFE
6002
ENDCHAR
STARTCHAR 2b41
ENCODING 11073
SWIDTH 362 0
DWIDTH 16 0
BBX 16 16 0 -2
BITMAP
1830
1034
1022
1422
FE20
D7FF
D620
D620
F630
F430
1010
1018
1609
FE0D
E207
0003
ENDCHAR
STARTCHAR 2b42
ENCODING 11074
SWIDTH 362 0
DWIDTH 16 0
BBX 16 16 0 -2
BITMAP
0004
3FFC
0180
0180
0186
0100
0180
218C
3FFC
218C
318C
3188
0188
0184
FFFE
6002
ENDCHAR
STARTCHAR 2b43
ENCODING 11075
SWIDTH 362 0
DWIDTH 16 0
BBX 16 16 0 -2
BITMAP
0180
1990
1988
3184
2186
4102
0100
0180
3FFC
218C
218C
3FFC
2180
0184
FFFE
6002
ENDCHAR
STARTCHAR 2b44
ENCODING 11076
SWIDTH 362 0
DWIDTH 16 0
BBX 16 16 0 -2
BITMAP
0300
260C
3FFE
2664
2664
FFFF
0600
0608
0FFC
1C18
3230
4160
00C0
0300
0C00
7000
ENDCHAR
STARTCHAR 2b45
ENCODING 11077
SWIDTH 362 0
DWIDTH 16 0
BBX 16 16 0 -2
BITMAP
2002
31FF
0802
7C02
0882
1982
3580
3D83
79FF
FC03
B403
3003
3003
3006
30FC
3018
ENDCHAR
STARTCHAR 2b46
ENCODING 11078
SWIDTH 362 0
DWIDTH 16 0
BBX 16 16 0 -2
BITMAP
2070
306C
0866
7C62
0860
19FF
3460
3C60
7820
FC30
B430
3010
3019
300D
3007
3003
ENDCHAR
STARTCHAR 2b47
ENCODING 11079
SWIDTH 362 0
DWIDTH 16 0
BBX 16 16 0 -2
BITMAP
200E
303C
09E0
7C60
0860
1860
3462
3DFF
7860
FC60
B460
3060
3061
3061
307F
303F
ENDCHAR
STARTCHAR 2b48
ENCODING 11080
SWIDTH 362 0
DWIDTH 16 0
BBX 16 16 0 -2
BITMAP
0002
7FFF
0660
7FFC
6664
6664
666C
600C
0002
FFFF
0830
0830
1830
3030
6030
C030
ENDCHAR
STARTCHAR 2b49
ENCODING 11081
SWIDTH 362 0
DWIDTH 16 0
BBX 16 16 0 -2
BITMAP
0060
6860
6C60
4460
D1FC
3064
3864
6C64
4464
C044
FCC4
4CC4
4C84
7D85
4D07
4207
ENDCHAR
STARTCHAR 2b4a
ENCODING 11082
SWIDTH 362 0
DWIDTH 16 0
BBX 16 16 0 -2
BITMAP
0300
030C
3FFE
0604
0C0C
1838
6008
1FF8
1018
1FF8
1018
1FF8
1018
1FF8
381C
6006
ENDCHAR
STARTCHAR 2b4b
ENCODING 11083
SWIDTH 362 0
DWIDTH 16 0
BBX 16 16 0 -2
BITMAP
1820
1830
1820
7EFE
1826
1826
FF26
1866
5866
5A47
5EC7
5983
F800
F800
9FFF
87FC
ENDCHAR
STARTCHAR 2b4c
ENCODING 11084
SWIDTH 362 0
DWIDTH 16 0
BBX 16 16 0 -2
BITMAP
0000
FDFF
CC10
CC10
CC10
FC10
3010
3010
F010
FC10
F010
F010
F010
FC10
E0F0
0020
ENDCHAR
STARTCHAR 2b4d
ENCODING 11085
SWIDTH 362 0
DWIDTH 16 0
BBX 16 16 0 -2
BITMAP
1803
10C3
FEC2
10C2
FEC2
D6C2
F6C2
F6C2
D6C2
FCC2
12FE
FF02
1002
1002
1002
1002
ENDCHAR
STARTCHAR 2b4e
ENCODING 11086
SWIDTH 362 0
DWIDTH 16 0
BBX 16 16 0 -2
BITMAP
1830
1030
FE20
1420
FEFF
D623
F623
F623
D663
FC63
1063
FEC3
10C3
1183
133E
160C
ENDCHAR
STARTCHAR 2b4f
ENCODING 11087
SWIDTH 362 0
DWIDTH 16 0
BBX 16 16 0 -2
BITMAP
0034
6036
3232
13FF
0330
F336
3336
2314
7B1C
5BD9
1BBF
3367
30C0
7800
CFFF
01FC
ENDCHAR
STARTCHAR 2b50
ENCODING 11088
SWIDTH 362 0
DWIDTH 16 0
BBX 16 16 0 -2
BITMAP
0006
63FE
3310
1310
0333
F330
3310
2318
7B08
5BCD
1B87
330F
30FC
7800
CFFF
01FC
ENDCHAR
STARTCHAR 2b51
ENCODING 11089
SWIDTH 362 0
DWIDTH 16 0
BBX 16 16 0 -2
BITMAP
0000
63FF
3030
1030
0030
F1B2
31BE
21B0
79B0
59B0
19B0
37FF
3000
7800
CFFF
01FC
ENDCHAR
STARTCHAR 2b52
ENCODING 11090
SWIDTH 362 0
DWIDTH 16 0
BBX 16 16 0 -2
BITMAP
0000
61FE
3106
1106
0106
F106
3106
2106
79FE
5906
1906
31FE
3104
7800
CFFF
01FC
ENDCHAR
STARTCHAR 2b53
ENCODING 11091
SWIDTH 362 0
DWIDTH 16 0
BBX 16 16 0 -2
BITMAP
0000
61FE
3186
1186
0186
F186
3186
2186
79FE
5986
1986
33FF
3000
7800
CFFF
01FC
ENDCHAR
STARTCHAR 2b54
ENCODING 11092
SWIDTH 362 0
DWIDTH 16 0
BBX 16 16 0 -2
BITMAP
1822
49BF
FFB2
8136
1834
133C
3236
FFB2
2233
6631
6631
7C3F
0E37
1B30
31B0
C0B0
ENDCHAR
STARTCHAR 2b55
ENCODING 11093
SWIDTH 362 0
DWIDTH 16 0
BBX 16 16 0 -2
BITMAP
1822
08BF
FFB2
6036
6034
603C
7FB6
3FB2
2D33
6DB1
4B31
923F
DA37
6D30
2DB0
24B0
ENDCHAR
STARTCHAR 2b56
ENCODING 11094
SWIDTH 362 0
DWIDTH 16 0
BBX 16 16 0 -2
BITMAP
3322
333F
3232
3236
7FB4
323C
3236
3232
3233
FFF1
2031
313F
2137
61B0
40B0
80B0
ENDCHAR
STARTCHAR 2b57
ENCODING 11095
SWIDTH 362 0
DWIDTH 16 0
BBX 16 16 0 -2
BITMAP
1C12
181F
FFF2
1816
1094
3FDC
2096
6112
6313
E351
7FF1
631F
6317
6310
6F10
6610
ENDCHAR
STARTCHAR 2b58
ENCODING 11096
SWIDTH 362 0
DWIDTH 16 0
BBX 16 16 0 -2
BITMAP
3022
333F
3F32
6636
CDB4
403C
53B6
59B2
59B3
59B1
5FB1
593F
D8B7
DB30
9C30
9830
ENDCHAR
STARTCHAR 2b59
ENCODING 11097
SWIDTH 362 0
DWIDTH 16 0
BBX 16 16 0 -2
BITMAP
9840
F820
D833
D060
F060
E060
D0E6
D896
C99C
C998
CB98
FF8C
D18E
C1B7
C1C3
C080
ENDCHAR
STARTCHAR 2b5a
ENCODING 11098
SWIDTH 362 0
DWIDTH 16 0
BBX 16 16 0 -2
BITMAP
9830
F830
DBFF
D020
F1FE
E026
D136
D936
CB22
CBFF
C863
F877
D0DE
C18E
C307
C603
ENDCHAR
STARTCHAR 2b5b
ENCODING 11099
SWIDTH 362 0
DWIDTH 16 0
BBX 16 16 0 -2
BITMAP
9830
F830
D832
D030
F223
E126
D1A4
D823
CFFF
C870
C870
F8C8
D0C8
C18C
C307
CC03
ENDCHAR
STARTCHAR 2b5c
ENCODING 11100
SWIDTH 362 0
DWIDTH 16 0
BBX 16 16 0 -2
BITMAP
9884
F8FE
D884
D084
F084
E187
D133
DA30
C830
CBFF
C830
F9B4
D1B2
C333
C631
C030
ENDCHAR
STARTCHAR 2b5d
ENCODING 11101
SWIDTH 362 0
DWIDTH 16 0
BBX 16 16 0 -2
BITMAP
99C0
F98C
D9FE
D108
F31B
E300
D346
DB46
CB46
CB46
CB46
FA4E
D240
C641
C47F
C47F
ENDCHAR
STARTCHAR 2b5e
ENCODING 11102
SWIDTH 362 0
DWIDTH 16 0
BBX 16 16 0 -2
BITMAP
0764
364C
1648
1653
FFFF
0C30
0620
024C
7FFC
0180
0182
FFFF
0180
0180
0180
0100
ENDCHAR
STARTCHAR 2b5f
ENCODING 11103
SWIDTH 362 0
DWIDTH 16 0
BBX 16 16 0 -2
BITMAP
0300
0182
7FFE
1810
1FF0
1810
1FF0
5813
FFFF
800A
1FF8
0180
0180
0180
0780
0300
ENDCHAR
STARTCHAR 2b60
ENCODING 11104
SWIDTH 362 0
DWIDTH 16 0
BBX 16 16 0 -2
BITMAP
1E06
190C
1888
3093
37FF
70D8
70D8
B4DB
36DB
33DA
33DE
31DC
30D8
30D8
30DB
3000
ENDCHAR
STARTCHAR 2b61
ENCODING 11105
SWIDTH 362 0
DWIDTH 16 0
BBX 16 16 0 -2
BITMAP
1C60
1860
1FFF
3088
3136
7233
75FC
B020
3124
3186
318F
318C
3104
3304
3204
3404
ENDCHAR
STARTCHAR 2b62
ENCODING 11106
SWIDTH 362 0
DWIDTH 16 0
BBX 16 16 0 -2
BITMAP
1600
3600
3452
27DF
6D1B
691B
E11B
EFFB
611B
631B
639B
63DB
625B
647B
6C10
6800
ENDCHAR
STARTCHAR 2b63
ENCODING 11107
SWIDTH 362 0
DWIDTH 16 0
BBX 16 16 0 -2
BITMAP
1C1E
1BF0
1A30
33FF
3210
7218
73CD
B387
3003
33FE
3306
3306
33FE
3306
3306
3306
ENDCHAR
STARTCHAR 2b64
ENCODING 11108
SWIDTH 362 0
DWIDTH 16 0
BBX 16 16 0 -2
BITMAP
1C10
1988
198C
3366
3243
74C9
718C
B3FE
3386
3020
3090
3182
3383
3785
35FD
30F8
ENDCHAR
STARTCHAR 2b65
ENCODING 11109
SWIDTH 362 0
DWIDTH 16 0
BBX 16 16 0 -2
BITMAP
1C1E
1BF0
1B02
33FF
3303
7303
73FE
B316
3310
33FF
3338
3238
326C
34C6
3D83
3301
ENDCHAR
STARTCHAR 2b66
ENCODING 11110
SWIDTH 362 0
DWIDTH 16 0
BBX 16 16 0 -2
BITMAP
1CC0
1860
1FFF
30C0
3186
731F
77F3
B231
3030
37FF
3020
3124
3322
3223
3421
3820
ENDCHAR
STARTCHAR 2b67
ENCODING 11111
SWIDTH 362 0
DWIDTH 16 0
BBX 16 16 0 -2
BITMAP
310C
324C
34CC
278C
636C
667C
EFBC
E46C
67EC
67EC
66EC
666C
67EC
656D
6CEF
6867
ENDCHAR
STARTCHAR 2b68
ENCODING 11112
SWIDTH 362 0
DWIDTH 16 0
BBX 16 16 0 -2
BITMAP
1330
3318
360B
2418
6D18
6B18
E218
E618
6E7F
6E18
6618
6618
6618
6618
661B
6600
ENDCHAR
STARTCHAR 2b69
ENCODING 11113
SWIDTH 362 0
DWIDTH 16 0
BBX 16 16 0 -2
BITMAP
8242
FF7F
C243
C243
C243
C243
FE7F
2C34
2C34
2C34
6C24
6D24
6F64
4EC5
C587
8307
ENDCHAR
STARTCHAR 2b6a
ENCODING 11114
SWIDTH 362 0
DWIDTH 16 0
BBX 16 16 0 -2
BITMAP
0300
03C0
0660
0C38
180E
3007
DC18
1810
1A33
1830
1C38
3E7C
7AD6
D993
9A10
1810
ENDCHAR
STARTCHAR 2b6b
ENCODING 11115
SWIDTH 362 0
DWIDTH 16 0
BBX 16 16 0 -2
BITMAP
0008
C3FC
6018
2020
0663
1467
15EF
34FB
2463
65FB
E76F
C463
64E3
6443
6FFF
0002
ENDCHAR
STARTCHAR 2b6c
ENCODING 11116
SWIDTH 362 0
DWIDTH 16 0
BBX 16 16 0 -2
BITMAP
0603
06C3
06DA
FFD2
0612
1692
FED2
D692
D692
F792
0312
0B12
F702
CDC2
18DE
30C6
ENDCHAR
STARTCHAR 2b6d
ENCODING 11117
SWIDTH 362 0
DWIDTH 16 0
BBX 16 16 0 -2
BITMAP
0083
FFC3
161A
1612
1692
F7D2
C092
C092
C092
F792
1692
1612
1602
1602
FF9E
C006
ENDCHAR
STARTCHAR 2b6e
ENCODING 11118
SWIDTH 362 0
DWIDTH 16 0
BBX 16 16 0 -2
BITMAP
3303
3303
339A
3312
2312
3F12
2312
2312
3F12
2312
2312
FFD2
3202
6102
419E
8086
ENDCHAR
STARTCHAR 2b6f
ENCODING 11119
SWIDTH 362 0
DWIDTH 16 0
BBX 16 16 0 -2
BITMAP
1802
FF7F
1832
7E32
1862
FFC6
199C
1208
0318
3FF8
0318
031B
FFFF
0618
180E
7003
ENDCHAR
STARTCHAR 2b70
ENCODING 11120
SWIDTH 362 0
DWIDTH 16 0
BBX 16 16 0 -2
BITMAP
1803
1003
FF9A
C992
C992
FF92
D992
D992
FF92
2612
4492
FFD2
0402
0402
041E
0406
ENDCHAR
STARTCHAR 2b71
ENCODING 11121
SWIDTH 362 0
DWIDTH 16 0
BBX 16 16 0 -2
BITMAP
4083
7FC3
40DA
7FDA
421A
461A
5EDA
5E9A
5E9A
5F9A
461A
56D2
D6C2
D6C2
B6DE
90C6
ENDCHAR
STARTCHAR 2b72
ENCODING 11122
SWIDTH 362 0
DWIDTH 16 0
BBX 16 16 0 -2
BITMAP
0C03
2D83
FF32
3E32
6F32
4DB2
DCB2
0832
0C32
2DB2
FDB2
3E32
2F02
6D82
FC9E
1806
ENDCHAR
STARTCHAR 2b73
ENCODING 11123
SWIDTH 362 0
DWIDTH 16 0
BBX 16 16 0 -2
BITMAP
0C03
0C03
7D32
6F32
6C32
6C32
FFB2
0032
0C32
0C32
7F32
6C32
6C02
6C02
FF9E
C006
ENDCHAR
STARTCHAR 2b74
ENCODING 11124
SWIDTH 362 0
DWIDTH 16 0
BBX 16 16 0 -2
BITMAP
1C18
1810
7F10
1810
1B7F
3613
6613
C793
B013
FF33
6333
7633
8C23
1E63
335E
C18C
ENDCHAR
STARTCHAR 2b75
ENCODING 11125
SWIDTH 362 0
DWIDTH 16 0
BBX 16 16 0 -2
BITMAP
0118
FF98
0818
0818
FFFF
899B
A99B
AB9B
BB9B
FF93
DD93
C9B3
89B3
89A3
8FDE
898C
ENDCHAR
STARTCHAR 2b76
ENCODING 11126
SWIDTH 362 0
DWIDTH 16 0
BBX 16 16 0 -2
BITMAP
3000
3002
3FFF
3FF2
7832
DFF2
9832
0C62
1832
3FFA
6C6A
0FE2
0062
0066
03FE
008C
ENDCHAR
STARTCHAR 2b77
ENCODING 11127
SWIDTH 362 0
DWIDTH 16 0
BBX 16 16 0 -2
BITMAP
4002
7FFF
46C0
4ECC
58BE
5884
5EBC
5884
5FFC
4160
4330
461E
4C0E
5000
C003
4000
ENDCHAR
STARTCHAR 2b78
ENCODING 11128
SWIDTH 362 0
DWIDTH 16 0
BBX 16 16 0 -2
BITMAP
4002
7FFF
4400
4FFC
4D64
5B64
46CC
4DFC
4B18
4FFC
480C
4FFC
4C0C
4C08
C003
4000
ENDCHAR
STARTCHAR 2b79
ENCODING 11129
SWIDTH 362 0
DWIDTH 16 0
BBX 16 16 0 -2
BITMAP
00C0
00C6
00FE
08C4
0FFE
08C6
69B6
4BDE
4CC6
49B6
4B16
4E06
4FFE
4800
C003
4000
ENDCHAR
STARTCHAR 2b7a
ENCODING 11130
SWIDTH 362 0
DWIDTH 16 0
BBX 16 16 0 -2
BITMAP
4002
7FFF
6C0C
6C0C
6C0C
6C0C
6C0C
6C0C
67FC
6018
7FFF
4418
4218
C218
8078
8030
ENDCHAR
STARTCHAR 2b7b
ENCODING 11131
SWIDTH 362 0
DWIDTH 16 0
BBX 16 16 0 -2
BITMAP
4002
7FFF
6008
63FC
6F08
6B08
6BF8
680C
6FFE
6084
60CF
4180
4110
C20C
8C06
9803
ENDCHAR
STARTCHAR 2b7c
ENCODING 11132
SWIDTH 362 0
DWIDTH 16 0
BBX 16 16 0 -2
BITMAP
4002
7FFF
6100
6786
6C3E
6806
6FBE
6806
6806
6FFE
69B0
4130
4331
C631
8C3F
981F
ENDCHAR
STARTCHAR 2b7d
ENCODING 11133
SWIDTH 362 0
DWIDTH 16 0
BBX 16 16 0 -2
BITMAP
0020
0033
DBFF
D906
D884
D8CC
D848
DBFF
D830
D830
D832
F830
C030
0030
0030
0030
ENDCHAR
STARTCHAR 2b7e
ENCODING 11134
SWIDTH 362 0
DWIDTH 16 0
BBX 16 16 0 -2
BITMAP
0018
001B
F81B
DFFF
D818
D81A
DBDB
DADA
DBDA
DBDE
DACC
FACC
D2CC
049F
0033
00C1
ENDCHAR
STARTCHAR 2c21
ENCODING 11297
SWIDTH 362 0
DWIDTH 16 0
BBX 16 16 0 -2
BITMAP
0002
01FE
D860
D860
DBFF
D8C8
D8CC
D986
DB03
DFFF
D986
F986
C186
0186
01FE
0104
ENDCHAR
STARTCHAR 2c22
ENCODING 11298
SWIDTH 362 0
DWIDTH 16 0
BBX 16 16 0 -2
BITMAP
0030
0030
DFFF
D820
DB36
DB36
DB26
DB26
DBFE
DA32
D878
F8BC
C127
0223
0C20
0020
ENDCHAR
STARTCHAR 2c23
ENCODING 11299
SWIDTH 362 0
DWIDTH 16 0
BBX 16 16 0 -2
BITMAP
0002
01FF
D830
D830
D833
D830
D830
D832
D9B6
D8FC
D8B0
F9B8
C136
0233
0CF0
0060
ENDCHAR
STARTCHAR 2c24
ENCODING 11300
SWIDTH 362 0
DWIDTH 16 0
BBX 16 16 0 -2
BITMAP
0002
03FF
D932
D9B6
D926
DA6C
DB24
D9B6
D992
D800
DBFE
F830
C030
0030
0033
0000
ENDCHAR
STARTCHAR 2c25
ENCODING 11301
SWIDTH 362 0
DWIDTH 16 0
BBX 16 16 0 -2
BITMAP
0102
01FF
D902
D902
D9FE
D902
D902
D932
D830
D830
D9FE
F830
C030
0030
0033
0000
ENDCHAR
STARTCHAR 2c26
ENCODING 11302
SWIDTH 362 0
DWIDTH 16 0
BBX 16 16 0 -2
BITMAP
0102
017F
F306
F316
D27E
D65E
D65E
DA5E
D25E
D27E
D256
F206
C206
0206
021E
020C
ENDCHAR
STARTCHAR 2c27
ENCODING 11303
SWIDTH 362 0
DWIDTH 16 0
BBX 16 16 0 -2
BITMAP
1060
1062
3C7F
30C6
10E6
11BC
7C18
103C
1066
14C3
FFFE
10C6
10C6
10C6
10FE
10C2
ENDCHAR
STARTCHAR 2c28
ENCODING 11304
SWIDTH 362 0
DWIDTH 16 0
BBX 16 16 0 -2
BITMAP
0060
0042
D9FF
D902
D902
D902
D902
D9FE
D932
D830
D833
F830
C030
0030
0030
0030
ENDCHAR
STARTCHAR 2c29
ENCODING 11305
SWIDTH 362 0
DWIDTH 16 0
BBX 16 16 0 -2
BITMAP
0098
00CC
D986
D907
DB03
DB06
D906
D906
D906
D9DE
D858
F8D8
C098
0199
031F
0C0F
ENDCHAR
STARTCHAR 2c2a
ENCODING 11306
SWIDTH 362 0
DWIDTH 16 0
BBX 16 16 0 -2
BITMAP
201E
33E0
CB00
53FF
130C
330C
E20C
260C
2C0C
0008
3FFC
300C
3008
3008
3008
3008
ENDCHAR
STARTCHAR 2c2b
ENCODING 11307
SWIDTH 362 0
DWIDTH 16 0
BBX 16 16 0 -2
BITMAP
0180
FFFF
0000
3FFC
3188
FFFF
2308
2108
3FFE
00F8
0038
3FFC
200C
200C
300C
300C
ENDCHAR
STARTCHAR 2c2c
ENCODING 11308
SWIDTH 362 0
DWIDTH 16 0
BBX 16 16 0 -2
BITMAP
0006
01FE
D846
D846
DBFF
D846
D8C6
D8C6
D8C0
D9FF
D983
FB82
C682
0C82
00FE
0082
ENDCHAR
STARTCHAR 2c2d
ENCODING 11309
SWIDTH 362 0
DWIDTH 16 0
BBX 16 16 0 -2
BITMAP
0002
03FF
D800
D906
D9FE
D906
D906
D906
D9FE
D804
D906
F984
C0CC
00C8
00DB
0000
ENDCHAR
STARTCHAR 2c2e
ENCODING 11310
SWIDTH 362 0
DWIDTH 16 0
BBX 16 16 0 -2
BITMAP
0000
03FF
D858
D858
D85A
DBFF
DA5B
DA5B
DA5B
DA5B
DBFF
F858
C058
0058
00DB
0000
ENDCHAR
STARTCHAR 2c2f
ENCODING 11311
SWIDTH 362 0
DWIDTH 16 0
BBX 16 16 0 -2
BITMAP
2020
3133
23FF
224A
F8CC
218F
2367
2060
206C
206C
2064
3844
70C4
C185
0307
0607
ENDCHAR
STARTCHAR 2c30
ENCODING 11312
SWIDTH 362 0
DWIDTH 16 0
BBX 16 16 0 -2
BITMAP
2030
3030
21FF
2030
F9FF
2303
220C
200C
2018
2010
23FF
3810
7010
C010
00F0
0020
ENDCHAR
STARTCHAR 2c31
ENCODING 11313
SWIDTH 362 0
DWIDTH 16 0
BBX 16 16 0 -2
BITMAP
2180
3180
21FF
2300
FB06
2186
21B6
2196
23FF
2106
2136
3916
73FF
C006
007C
0008
ENDCHAR
STARTCHAR 2c32
ENCODING 11314
SWIDTH 362 0
DWIDTH 16 0
BBX 16 16 0 -2
BITMAP
0660
0660
7E7F
0660
0661
FE7F
C43E
4000
7FFF
C183
8184
018C
3FFC
0180
0182
FFFF
ENDCHAR
STARTCHAR 2c33
ENCODING 11315
SWIDTH 362 0
DWIDTH 16 0
BBX 16 16 0 -2
BITMAP
2060
307F
20C3
21B6
FB1C
23D8
2366
21C4
230F
210C
2084
38C4
7004
C004
007C
0008
ENDCHAR
STARTCHAR 2c34
ENCODING 11316
SWIDTH 362 0
DWIDTH 16 0
BBX 16 16 0 -2
BITMAP
1818
1818
181A
7E7F
1818
1818
1A18
FFFF
2C2C
2C2C
2C2C
6C6C
6F6C
4ECD
C58F
8307
ENDCHAR
STARTCHAR 2c35
ENCODING 11317
SWIDTH 362 0
DWIDTH 16 0
BBX 16 16 0 -2
BITMAP
3018
2410
7E10
C493
BDFF
3912
3010
7838
BB3C
3338
6328
D668
8CC8
1889
310F
C607
ENDCHAR
STARTCHAR 2c36
ENCODING 11318
SWIDTH 362 0
DWIDTH 16 0
BBX 16 16 0 -2
BITMAP
0300
0302
7FFE
0C30
191C
3997
CDB0
25AC
3FFC
25CC
27AC
2DBC
399C
318C
21FC
2118
ENDCHAR
STARTCHAR 2c37
ENCODING 11319
SWIDTH 362 0
DWIDTH 16 0
BBX 16 16 0 -2
BITMAP
0300
0302
7FFE
0C30
191C
3197
D998
1998
1DB8
27E4
0180
3FFC
0180
0180
0186
0000
ENDCHAR
STARTCHAR 2c38
ENCODING 11320
SWIDTH 362 0
DWIDTH 16 0
BBX 16 16 0 -2
BITMAP
0600
0C10
38F8
3E0C
0300
7FFF
0D20
1998
3FFF
799B
9FF8
1998
1FF8
0180
01FE
00FE
ENDCHAR
STARTCHAR 2c39
ENCODING 11321
SWIDTH 362 0
DWIDTH 16 0
BBX 16 16 0 -2
BITMAP
2048
60CC
60C6
6983
FD03
EB86
6986
6986
4986
D8EE
F868
3048
38C8
6C89
C10F
0607
ENDCHAR
STARTCHAR 2c3a
ENCODING 11322
SWIDTH 362 0
DWIDTH 16 0
BBX 16 16 0 -2
BITMAP
2030
6030
61FF
6830
FDFF
EB03
6A0C
680C
4818
D830
FBFF
3030
3830
6C30
C1F0
0060
ENDCHAR
STARTCHAR 2c3b
ENCODING 11323
SWIDTH 362 0
DWIDTH 16 0
BBX 16 16 0 -2
BITMAP
2002
63FF
6000
6906
FDFE
E986
6986
6986
49FE
D804
F906
3084
38CC
6C48
C05B
0000
ENDCHAR
STARTCHAR 2c3c
ENCODING 11324
SWIDTH 362 0
DWIDTH 16 0
BBX 16 16 0 -2
BITMAP
2004
61FE
60CC
6870
FD32
E9FF
6932
6932
49FE
D932
F932
3132
3932
6D32
C13E
0126
ENDCHAR
STARTCHAR 2c3d
ENCODING 11325
SWIDTH 362 0
DWIDTH 16 0
BBX 16 16 0 -2
BITMAP
2106
61FE
6186
69FE
FD86
E986
69FE
6800
49FE
D830
F830
33FF
3830
6C30
C030
0030
ENDCHAR
STARTCHAR 2c3e
ENCODING 11326
SWIDTH 362 0
DWIDTH 16 0
BBX 16 16 0 -2
BITMAP
200E
61FA
6023
69B6
FC94
E800
69FE
680E
4818
D810
F9FF
3010
3810
6C10
C0F0
0020
ENDCHAR
STARTCHAR 2c3f
ENCODING 11327
SWIDTH 362 0
DWIDTH 16 0
BBX 16 16 0 -2
BITMAP
2030
6030
61F7
69B6
FDB6
E9B6
6B7D
6E79
4830
D832
F9FE
3030
3830
6C30
C033
0000
ENDCHAR
STARTCHAR 2c40
ENCODING 11328
SWIDTH 362 0
DWIDTH 16 0
BBX 16 16 0 -2
BITMAP
180E
18F0
FE80
18FF
3E84
F984
1984
7104
3204
0C10
0C33
0C30
1860
17E0
03BC
7C0E
ENDCHAR
STARTCHAR 2c41
ENCODING 11329
SWIDTH 362 0
DWIDTH 16 0
BBX 16 16 0 -2
BITMAP
0987
FD3C
1930
3130
27B0
213F
2136
39F6
E336
6F36
2536
2136
2126
2166
E766
63C6
ENDCHAR
STARTCHAR 2c42
ENCODING 11330
SWIDTH 362 0
DWIDTH 16 0
BBX 16 16 0 -2
BITMAP
0100
7FFF
4303
C186
9FF8
1018
1018
1018
1018
1FF8
1118
10B0
10C0
1270
1C1E
180E
ENDCHAR
STARTCHAR 2c43
ENCODING 11331
SWIDTH 362 0
DWIDTH 16 0
BBX 16 16 0 -2
BITMAP
0180
4083
7FFF
C662
8460
7FFE
0460
0460
3FFC
0460
0462
7FFF
0C00
1C18
3006
C002
ENDCHAR
STARTCHAR 2c44
ENCODING 11332
SWIDTH 362 0
DWIDTH 16 0
BBX 16 16 0 -2
BITMAP
0100
7FFF
4003
C1B6
8198
7FFE
0180
3188
1998
0DA0
01C0
0DE0
F1BC
418E
0F82
0300
ENDCHAR
STARTCHAR 2c45
ENCODING 11333
SWIDTH 362 0
DWIDTH 16 0
BBX 16 16 0 -2
BITMAP
0100
7FFF
4003
C00E
BFFC
0610
3FF8
0418
0C18
7FFF
0000
1FFC
100C
1008
1008
1008
ENDCHAR
STARTCHAR 2c46
ENCODING 11334
SWIDTH 362 0
DWIDTH 16 0
BBX 16 16 0 -2
BITMAP
0100
7FFF
4303
C302
832C
0338
0362
7FFF
0718
1FF8
6070
00C3
7FFF
00C0
07C0
0180
ENDCHAR
STARTCHAR 2c47
ENCODING 11335
SWIDTH 362 0
DWIDTH 16 0
BBX 16 16 0 -2
BITMAP
0100
7FFF
4003
C00E
BFFC
300C
3FFC
3000
3006
3006
27E6
6466
4466
C466
80FC
0018
ENDCHAR
STARTCHAR 2c48
ENCODING 11336
SWIDTH 362 0
DWIDTH 16 0
BBX 16 16 0 -2
BITMAP
0100
7FFF
4003
C01E
9FF8
1018
1018
1FF8
0002
FFFF
1188
1198
3198
2198
418F
8100
ENDCHAR
STARTCHAR 2c49
ENCODING 11337
SWIDTH 362 0
DWIDTH 16 0
BBX 16 16 0 -2
BITMAP
0100
7FFF
4003
D986
9900
13FF
3340
3240
7442
B040
3040
3042
307E
3040
3040
3040
ENDCHAR
STARTCHAR 2c4a
ENCODING 11338
SWIDTH 362 0
DWIDTH 16 0
BBX 16 16 0 -2
BITMAP
0100
7FFF
4103
C386
86C0
0C60
1C38
318F
E183
7FFE
0180
1990
3188
2184
4786
0300
ENDCHAR
STARTCHAR 2c4b
ENCODING 11339
SWIDTH 362 0
DWIDTH 16 0
BBX 16 16 0 -2
BITMAP
0180
1998
318C
2186
419A
1FF8
1018
1FF8
1018
1FF8
0180
3198
318C
6186
CF82
0300
ENDCHAR
STARTCHAR 2c4c
ENCODING 11340
SWIDTH 362 0
DWIDTH 16 0
BBX 16 16 0 -2
BITMAP
0180
1998
318C
2186
4702
0408
3FFC
300C
3FF8
3008
3FF8
0460
0C60
1862
307E
603E
ENDCHAR
STARTCHAR 2c4d
ENCODING 11341
SWIDTH 362 0
DWIDTH 16 0
BBX 16 16 0 -2
BITMAP
3006
31FF
3023
30D2
FE44
3C64
3C6D
3CEC
3CCC
2CE8
2C3C
6C66
6CC3
4C01
CFFF
87FF
ENDCHAR
STARTCHAR 2c4e
ENCODING 11342
SWIDTH 362 0
DWIDTH 16 0
BBX 16 16 0 -2
BITMAP
4006
7FFE
6006
7FFE
60C8
60CC
60CE
60C0
6CCC
66D8
40C0
41E0
CED8
F8CF
B7C2
8180
ENDCHAR
STARTCHAR 2c4f
ENCODING 11343
SWIDTH 362 0
DWIDTH 16 0
BBX 16 16 0 -2
BITMAP
4006
7FFE
6006
7FFE
6200
660C
6C7C
7F36
6E30
6C1E
5F18
4E38
DB70
C1E0
873F
F807
ENDCHAR
STARTCHAR 2c50
ENCODING 11344
SWIDTH 362 0
DWIDTH 16 0
BBX 16 16 0 -2
BITMAP
4006
7FFE
6006
7FFE
6C04
6CFE
784C
7630
641B
6C33
5C12
6C10
CC10
CC10
8CF0
8C20
ENDCHAR
STARTCHAR 2c51
ENCODING 11345
SWIDTH 362 0
DWIDTH 16 0
BBX 16 16 0 -2
BITMAP
2030
3113
21FF
A31A
AD90
AD92
ADFE
AD10
AE10
AC13
ADFF
AC10
FC10
0010
0010
0010
ENDCHAR
STARTCHAR 2c52
ENCODING 11346
SWIDTH 362 0
DWIDTH 16 0
BBX 16 16 0 -2
BITMAP
2030
3113
21FF
A302
AC02
ADFE
AC00
AC00
ADFF
AC68
AC48
ACC8
FCC8
0189
030F
0607
ENDCHAR
STARTCHAR 2c53
ENCODING 11347
SWIDTH 362 0
DWIDTH 16 0
BBX 16 16 0 -2
BITMAP
2018
3013
2013
A1FF
AC10
AD10
AC93
ACD6
AC50
AC10
AC78
ADD6
FF13
0111
00F0
0020
ENDCHAR
STARTCHAR 2c54
ENCODING 11348
SWIDTH 362 0
DWIDTH 16 0
BBX 16 16 0 -2
BITMAP
2184
6186
618C
600C
0004
0180
0188
0180
0186
0830
0C30
FFFF
0830
1830
3030
C030
ENDCHAR
STARTCHAR 2c55
ENCODING 11349
SWIDTH 362 0
DWIDTH 16 0
BBX 16 16 0 -2
BITMAP
20C0
30E3
20B3
A086
AFFC
A883
A8C6
A9EC
A9F8
A9E3
A9E6
A96C
FB79
0261
067F
0C3F
ENDCHAR
STARTCHAR 2c56
ENCODING 11350
SWIDTH 362 0
DWIDTH 16 0
BBX 16 16 0 -2
BITMAP
2000
31FF
2092
A0D6
ACB6
AD2C
ADA4
ACB6
AC92
AC00
ADFE
AC10
FC10
0010
0033
0000
ENDCHAR
STARTCHAR 2c57
ENCODING 11351
SWIDTH 362 0
DWIDTH 16 0
BBX 16 16 0 -2
BITMAP
21C6
3186
23CF
A184
AC20
AC33
AFFF
AD80
AD80
AD80
AD80
AD80
FD80
0180
00FF
0000
ENDCHAR
STARTCHAR 2c58
ENCODING 11352
SWIDTH 362 0
DWIDTH 16 0
BBX 16 16 0 -2
BITMAP
2106
31FE
2186
A1FE
AD86
AD86
ADFE
AC00
ADFE
AC30
AC30
AFFF
FC30
0030
0030
0030
ENDCHAR
STARTCHAR 2c59
ENCODING 11353
SWIDTH 362 0
DWIDTH 16 0
BBX 16 16 0 -2
BITMAP
2043
27E3
267B
AE7B
AE7B
AFFB
AB5B
AB5B
ABFB
AB7B
AB7B
AA7B
FE63
0443
0DCF
0986
ENDCHAR
STARTCHAR 2c5a
ENCODING 11354
SWIDTH 362 0
DWIDTH 16 0
BBX 16 16 0 -2
BITMAP
2006
307F
2183
A023
AD92
AC84
AC60
AC44
ACCF
ACCC
ACCC
AD88
FDF0
003C
00C6
0303
ENDCHAR
STARTCHAR 2c5b
ENCODING 11355
SWIDTH 362 0
DWIDTH 16 0
BBX 16 16 0 -2
BITMAP
2030
3030
21F7
A1B6
ADB6
ADB6
AF7D
AE79
AC30
AC32
ADFE
AC30
FC30
0030
0033
0000
ENDCHAR
STARTCHAR 2c5c
ENCODING 11356
SWIDTH 362 0
DWIDTH 16 0
BBX 16 16 0 -2
BITMAP
2018
31D0
2190
A1FF
AD90
AD10
AE10
ADFF
AC00
AD82
ADFF
AD82
FD82
0182
01FE
0182
ENDCHAR
STARTCHAR 2c5d
ENCODING 11357
SWIDTH 362 0
DWIDTH 16 0
BBX 16 16 0 -2
BITMAP
20C3
23E3
279B
A99B
A9BB
AFFB
A99B
A9DB
ABFB
ABBB
AB9B
AD9B
F983
0183
018F
0186
ENDCHAR
STARTCHAR 2c5e
ENCODING 11358
SWIDTH 362 0
DWIDTH 16 0
BBX 16 16 0 -2
BITMAP
2030
3030
2068
A0C4
ADCF
AF03
AE0E
AC0E
AC0C
AD1A
ADFE
AD86
FD86
0186
01FE
0102
ENDCHAR
STARTCHAR 2c5f
ENCODING 11359
SWIDTH 362 0
DWIDTH 16 0
BBX 16 16 0 -2
BITMAP
2048
30CC
20C6
A183
AF03
AD86
AD86
AD86
AD86
ADCE
AC48
ACC8
FCC8
0189
030F
0607
ENDCHAR
STARTCHAR 2c60
ENCODING 11360
SWIDTH 362 0
DWIDTH 16 0
BBX 16 16 0 -2
BITMAP
0180
7186
6184
7FFC
0000
3F07
7876
1866
FF66
1866
1E66
3B66
7B66
D806
981E
180C
ENDCHAR
STARTCHAR 2c61
ENCODING 11361
SWIDTH 362 0
DWIDTH 16 0
BBX 16 16 0 -2
BITMAP
201E
33E0
CB00
53FF
130C
330C
E20C
260C
2C0C
0180
2184
6186
6184
6184
618C
600C
ENDCHAR
STARTCHAR 2c62
ENCODING 11362
SWIDTH 362 0
DWIDTH 16 0
BBX 16 16 0 -2
BITMAP
1180
118C
3FFC
6180
0183
0018
1FF8
1018
1018
1FF8
0180
6186
6184
6184
618C
600C
ENDCHAR
STARTCHAR 2c63
ENCODING 11363
SWIDTH 362 0
DWIDTH 16 0
BBX 16 16 0 -2
BITMAP
0180
7186
6184
7FFC
0030
1870
F8D8
D98F
DBFB
DC00
D80C
D80C
D80C
D80C
0018
0030
ENDCHAR
STARTCHAR 2c64
ENCODING 11364
SWIDTH 362 0
DWIDTH 16 0
BBX 16 16 0 -2
BITMAP
0102
FF7F
CC63
CC63
CC63
DF63
D363
D37F
D360
D360
DF60
CC60
CC61
CC61
CD7F
C03F
ENDCHAR
STARTCHAR 2c65
ENCODING 11365
SWIDTH 362 0
DWIDTH 16 0
BBX 16 16 0 -2
BITMAP
0038
0078
00C4
7DCC
0DF0
19B8
378F
C303
3FFC
0008
7FFC
6108
7FF8
6002
7FFE
3FFE
ENDCHAR
STARTCHAR 2c66
ENCODING 11366
SWIDTH 362 0
DWIDTH 16 0
BBX 16 16 0 -2
BITMAP
3000
33FF
35AC
FFAC
B5AC
B5AC
B5AC
B5AC
B5EC
B5AC
B5AC
BDEC
33AC
332D
302F
3027
ENDCHAR
STARTCHAR 2c67
ENCODING 11367
SWIDTH 362 0
DWIDTH 16 0
BBX 16 16 0 -2
BITMAP
3000
33FF
2830
FC30
AD34
ADB6
ADB6
ADB6
ADB6
AFFF
AE79
BC30
A830
2030
2033
2000
ENDCHAR
STARTCHAR 2c68
ENCODING 11368
SWIDTH 362 0
DWIDTH 16 0
BBX 16 16 0 -2
BITMAP
3060
306C
34FE
FE88
B59B
B5B3
B593
B593
B5FF
B538
B428
BC68
3068
30C9
318F
3707
ENDCHAR
STARTCHAR 2c69
ENCODING 11369
SWIDTH 362 0
DWIDTH 16 0
BBX 16 16 0 -2
BITMAP
3030
3062
35FF
FF83
B582
B5FE
B582
B582
B5FE
B468
B448
BCC8
30C8
3189
330F
3607
ENDCHAR
STARTCHAR 2c6a
ENCODING 11370
SWIDTH 362 0
DWIDTH 16 0
BBX 16 16 0 -2
BITMAP
0C06
0F7E
6844
7F28
7630
DC18
980E
3187
E188
3FFC
218C
218C
218C
21FC
2198
0100
ENDCHAR
STARTCHAR 2c6b
ENCODING 11371
SWIDTH 362 0
DWIDTH 16 0
BBX 16 16 0 -2
BITMAP
0180
4083
7FFF
60C0
6CCC
6C0C
6C0C
6C0C
6C04
6FFC
6C8C
4C58
4C60
CD38
8E0F
8C07
ENDCHAR
STARTCHAR 2c6c
ENCODING 11372
SWIDTH 362 0
DWIDTH 16 0
BBX 16 16 0 -2
BITMAP
0180
4083
7FFF
6002
6FFE
6040
67FC
6040
60C2
631C
6218
5FFF
4618
C418
8C18
9818
ENDCHAR
STARTCHAR 2c6d
ENCODING 11373
SWIDTH 362 0
DWIDTH 16 0
BBX 16 16 0 -2
BITMAP
0180
4083
7FFF
6000
7FFE
6000
6FFC
6C04
6C04
6C04
6FFC
4408
4218
C310
8333
8000
ENDCHAR
STARTCHAR 2c6e
ENCODING 11374
SWIDTH 362 0
DWIDTH 16 0
BBX 16 16 0 -2
BITMAP
0180
4083
7FFF
6060
60C2
60C0
6CCE
6CC6
6C46
6C46
6FFC
41F0
4358
C64E
9847
B043
ENDCHAR
STARTCHAR 2c6f
ENCODING 11375
SWIDTH 362 0
DWIDTH 16 0
BBX 16 16 0 -2
BITMAP
00FC
3D90
1998
09A2
7FFE
07E0
0D9C
718E
8932
0C30
0832
FFFF
0830
1830
3030
6030
ENDCHAR
STARTCHAR 2c70
ENCODING 11376
SWIDTH 362 0
DWIDTH 16 0
BBX 16 16 0 -2
BITMAP
0902
FDFF
0998
0998
4998
49FE
C1E2
CDE2
FDE2
0DFE
0D9A
0D98
0D98
0D98
F99B
3100
ENDCHAR
STARTCHAR 2c71
ENCODING 11377
SWIDTH 362 0
DWIDTH 16 0
BBX 16 16 0 -2
BITMAP
1098
FFD8
1098
1090
72BF
76B2
C632
B4D2
FFD6
108E
108C
108C
109C
3192
F7B3
6361
ENDCHAR
STARTCHAR 2c72
ENCODING 11378
SWIDTH 362 0
DWIDTH 16 0
BBX 16 16 0 -2
BITMAP
0818
FD13
0892
08D4
4933
49B3
C193
CDF3
FDFF
0DD7
0DD7
0D93
0D93
0D93
7997
3106
ENDCHAR
STARTCHAR 2c73
ENCODING 11379
SWIDTH 362 0
DWIDTH 16 0
BBX 16 16 0 -2
BITMAP
3302
3306
3304
7F88
CCB0
0102
7F86
080C
0818
FFB0
0823
0802
0804
0808
0810
0860
ENDCHAR
STARTCHAR 2c74
ENCODING 11380
SWIDTH 362 0
DWIDTH 16 0
BBX 16 16 0 -2
BITMAP
0C02
0C06
6904
6908
6930
6B82
9E86
0C0C
0818
7FB0
0823
0802
0804
0B88
FE10
4060
ENDCHAR
STARTCHAR 2c75
ENCODING 11381
SWIDTH 362 0
DWIDTH 16 0
BBX 16 16 0 -2
BITMAP
1818
1913
3093
20D6
4C10
09FF
1983
31B3
319B
7183
919F
11F3
1343
1303
121F
1406
ENDCHAR
STARTCHAR 2c76
ENCODING 11382
SWIDTH 362 0
DWIDTH 16 0
BBX 16 16 0 -2
BITMAP
1830
1832
31FF
2133
4DFE
0932
19FE
3000
33FF
7182
91FF
1003
1002
1006
107C
1018
ENDCHAR
STARTCHAR 2c77
ENCODING 11383
SWIDTH 362 0
DWIDTH 16 0
BBX 16 16 0 -2
BITMAP
1906
18FC
307C
21C7
4E60
1863
33FF
3098
71B3
F3B3
B393
3793
3593
3197
3112
3010
ENDCHAR
STARTCHAR 2c78
ENCODING 11384
SWIDTH 362 0
DWIDTH 16 0
BBX 16 16 0 -2
BITMAP
18C0
18C6
30FE
21CC
4F78
0830
186E
31B7
3733
7030
9036
1030
1033
1030
1030
1030
ENDCHAR
STARTCHAR 2c79
ENCODING 11385
SWIDTH 362 0
DWIDTH 16 0
BBX 16 16 0 -2
BITMAP
1860
1823
33FF
2106
4C84
08CC
1848
33FF
3030
7030
9032
1030
1030
1030
1030
1030
ENDCHAR
STARTCHAR 2c7a
ENCODING 11386
SWIDTH 362 0
DWIDTH 16 0
BBX 16 16 0 -2
BITMAP
1802
1BFF
3040
2044
4DFE
18C6
30C6
3086
73FF
F000
B1FE
3106
3106
3106
31FE
3102
ENDCHAR
STARTCHAR 2c7b
ENCODING 11387
SWIDTH 362 0
DWIDTH 16 0
BBX 16 16 0 -2
BITMAP
1906
19FE
3106
2106
4DFE
1906
3106
31C6
7186
F1FE
B384
3648
3030
307C
318F
3703
ENDCHAR
STARTCHAR 2c7c
ENCODING 11388
SWIDTH 362 0
DWIDTH 16 0
BBX 16 16 0 -2
BITMAP
1860
18C0
3186
23FF
4FC8
18CC
318F
33C0
76CE
F1CE
B18C
3368
3230
307C
30C7
3703
ENDCHAR
STARTCHAR 2c7d
ENCODING 11389
SWIDTH 362 0
DWIDTH 16 0
BBX 16 16 0 -2
BITMAP
2006
3180
8180
CFFF
5306
13FE
2006
6006
20FC
2018
0980
4CC4
4802
CC1B
8FF1
07F0
ENDCHAR
STARTCHAR 2c7e
ENCODING 11390
SWIDTH 362 0
DWIDTH 16 0
BBX 16 16 0 -2
BITMAP
0180
0CC0
0804
4803
C80B
8C11
0FF8
0000
0000
7E7E
4646
4646
4646
4646
7E7E
4242
ENDCHAR
STARTCHAR 2d21
ENCODING 11553
SWIDTH 362 0
DWIDTH 16 0
BBX 16 16 0 -2
BITMAP
0180
0380
0660
0C3C
37EF
D013
1FF8
1818
1818
1FF8
1010
0DC0
4CC6
CC1B
CFF1
07F0
ENDCHAR
STARTCHAR 2d22
ENCODING 11554
SWIDTH 362 0
DWIDTH 16 0
BBX 16 16 0 -2
BITMAP
3002
33FF
3000
3106
79FE
FD06
F106
B106
31FE
3004
3106
3184
30CC
30C8
30DB
3000
ENDCHAR
STARTCHAR 2d23
ENCODING 11555
SWIDTH 362 0
DWIDTH 16 0
BBX 16 16 0 -2
BITMAP
3002
37FF
2268
3268
3B68
BB68
A268
A268
23E8
2268
2268
22E8
2768
2669
206F
2047
ENDCHAR
STARTCHAR 2d24
ENCODING 11556
SWIDTH 362 0
DWIDTH 16 0
BBX 16 16 0 -2
BITMAP
3180
3198
2188
37FF
3984
B98C
A198
A1D6
214C
235A
2346
224C
2659
2441
2C7F
387F
ENDCHAR
STARTCHAR 2d25
ENCODING 11557
SWIDTH 362 0
DWIDTH 16 0
BBX 16 16 0 -2
BITMAP
3318
3318
3358
33FF
7B18
FF59
F3DF
B30F
3030
3030
3036
3030
3030
3030
3033
3000
ENDCHAR
STARTCHAR 2d26
ENCODING 11558
SWIDTH 362 0
DWIDTH 16 0
BBX 16 16 0 -2
BITMAP
3030
3333
3222
33FE
7A32
FC70
F0C8
B186
33FB
3601
300C
300C
300C
3018
3010
3020
ENDCHAR
STARTCHAR 2d27
ENCODING 11559
SWIDTH 362 0
DWIDTH 16 0
BBX 16 16 0 -2
BITMAP
3030
3060
31FF
3103
7903
FDFF
F103
B103
31FF
3068
3048
30C8
30C8
3189
330F
3607
ENDCHAR
STARTCHAR 2d28
ENCODING 11560
SWIDTH 362 0
DWIDTH 16 0
BBX 16 16 0 -2
BITMAP
0C30
0624
7FFE
0430
0432
7FFF
0C30
0830
1030
6030
0980
4CC4
4802
CC1B
CFF1
07F0
ENDCHAR
STARTCHAR 2d29
ENCODING 11561
SWIDTH 362 0
DWIDTH 16 0
BBX 16 16 0 -2
BITMAP
0188
1198
09B0
09A2
7FFE
0980
199C
6186
C182
0000
0980
4CC4
4802
CC1B
CFF1
07F0
ENDCHAR
STARTCHAR 2d2a
ENCODING 11562
SWIDTH 362 0
DWIDTH 16 0
BBX 16 16 0 -2
BITMAP
0038
0038
00E0
7DBE
6DA6
39B4
199C
3D9C
E5B7
0343
0100
0CC0
4CC6
4C1B
CFF1
87F0
ENDCHAR
STARTCHAR 2d2b
ENCODING 11563
SWIDTH 362 0
DWIDTH 16 0
BBX 16 16 0 -2
BITMAP
3060
3020
23FF
3040
38C4
B98E
A3F3
A101
2136
2126
2126
2126
2326
2326
2627
2C00
ENDCHAR
STARTCHAR 2d2c
ENCODING 11564
SWIDTH 362 0
DWIDTH 16 0
BBX 16 16 0 -2
BITMAP
3034
3032
2033
3030
3822
BBFF
A222
A222
23FE
2222
2332
2332
2222
2222
2226
2206
ENDCHAR
STARTCHAR 2d2d
ENCODING 11565
SWIDTH 362 0
DWIDTH 16 0
BBX 16 16 0 -2
BITMAP
3030
3030
2022
37FF
3924
B926
A326
A3AF
26B9
2070
2070
2048
20CC
2186
2303
2601
ENDCHAR
STARTCHAR 2d2e
ENCODING 11566
SWIDTH 362 0
DWIDTH 16 0
BBX 16 16 0 -2
BITMAP
3002
33FF
2132
31B6
3926
BA6C
A26C
A136
21B2
2000
23FF
2030
2030
2030
2030
23FF
ENDCHAR
STARTCHAR 2d2f
ENCODING 11567
SWIDTH 362 0
DWIDTH 16 0
BBX 16 16 0 -2
BITMAP
0034
0032
0032
FFFF
3030
3F32
3333
7632
CC16
1F94
73DC
F318
211D
3F2D
21C7
0303
ENDCHAR
STARTCHAR 2d30
ENCODING 11568
SWIDTH 362 0
DWIDTH 16 0
BBX 16 16 0 -2
BITMAP
1C34
5833
5833
7F30
D8FF
9830
1933
FF33
1812
3C16
3A1C
7B18
581D
D82D
9847
1983
ENDCHAR
STARTCHAR 2d31
ENCODING 11569
SWIDTH 362 0
DWIDTH 16 0
BBX 16 16 0 -2
BITMAP
0246
7E47
1844
1846
1843
1E5F
F846
4058
0FFC
0180
7FFE
0180
FFFF
0180
0780
0300
ENDCHAR
STARTCHAR 2d32
ENCODING 11570
SWIDTH 362 0
DWIDTH 16 0
BBX 16 16 0 -2
BITMAP
0004
FFFE
1064
10C4
10F4
1ED5
F987
4307
00F8
3D80
0186
0180
FFFF
0180
0780
0300
ENDCHAR
STARTCHAR 2d33
ENCODING 11571
SWIDTH 362 0
DWIDTH 16 0
BBX 16 16 0 -2
BITMAP
0C60
4C60
6F7F
6861
6861
7E7F
F03E
40F8
3FF8
0184
7FFE
0183
FFFF
0180
0780
0300
ENDCHAR
STARTCHAR 2d34
ENCODING 11572
SWIDTH 362 0
DWIDTH 16 0
BBX 16 16 0 -2
BITMAP
3018
3FFF
26D8
76D8
9CDB
0CD8
1818
3008
C0F8
3D80
0186
0180
FFFF
0180
0780
0300
ENDCHAR
STARTCHAR 2d35
ENCODING 11573
SWIDTH 362 0
DWIDTH 16 0
BBX 16 16 0 -2
BITMAP
3004
31FE
3006
33FF
F806
31FC
3303
3F03
760C
F0CC
304C
3068
3030
3038
F0CF
6303
ENDCHAR
STARTCHAR 2d36
ENCODING 11574
SWIDTH 362 0
DWIDTH 16 0
BBX 16 16 0 -2
BITMAP
3018
301B
201B
27FF
F018
221A
23DB
32DA
73DA
E3DE
22CC
22CC
22CC
249F
E033
60C1
ENDCHAR
STARTCHAR 2d37
ENCODING 11575
SWIDTH 362 0
DWIDTH 16 0
BBX 16 16 0 -2
BITMAP
3002
33FF
3000
3106
F9FE
3106
3106
3906
71FE
F004
3106
3084
30CC
3048
F05B
6000
ENDCHAR
STARTCHAR 2d38
ENCODING 11576
SWIDTH 362 0
DWIDTH 16 0
BBX 16 16 0 -2
BITMAP
319C
3118
2118
27D8
F93F
211B
211B
37DB
731B
E31B
229B
24DB
2DD3
2E73
E02E
6044
ENDCHAR
STARTCHAR 2d39
ENCODING 11577
SWIDTH 362 0
DWIDTH 16 0
BBX 16 16 0 -2
BITMAP
3002
37FF
2268
2268
FB68
2368
2268
3A68
73E8
E268
2268
2268
27E8
2669
E06F
6047
ENDCHAR
STARTCHAR 2d3a
ENCODING 11578
SWIDTH 362 0
DWIDTH 16 0
BBX 16 16 0 -2
BITMAP
301E
31F0
3030
33FF
F878
30FE
31B3
3B31
7234
F1FE
3044
30CF
3083
3183
F31F
6C06
ENDCHAR
STARTCHAR 2d3b
ENCODING 11579
SWIDTH 362 0
DWIDTH 16 0
BBX 16 16 0 -2
BITMAP
3020
3166
31FE
3186
F9FE
3186
3186
3986
7187
F1BF
37E6
331E
3036
30C6
F77E
600C
ENDCHAR
STARTCHAR 2d3c
ENCODING 11580
SWIDTH 362 0
DWIDTH 16 0
BBX 16 16 0 -2
BITMAP
3060
3023
33FF
3040
F884
310E
33F3
3901
7136
F126
3126
3126
3326
3326
F627
2C00
ENDCHAR
STARTCHAR 2d3d
ENCODING 11581
SWIDTH 362 0
DWIDTH 16 0
BBX 16 16 0 -2
BITMAP
300E
33F0
3200
3203
FBFF
3202
32FF
3ADB
72DA
F2DA
32FE
32C0
36C0
36C1
F4FF
207F
ENDCHAR
STARTCHAR 2d3e
ENCODING 11582
SWIDTH 362 0
DWIDTH 16 0
BBX 16 16 0 -2
BITMAP
1C18
1818
1A18
19FF
1818
FF18
181E
5846
7E46
5B24
5B3C
D918
9918
182C
7847
3183
ENDCHAR
STARTCHAR 2d3f
ENCODING 11583
SWIDTH 362 0
DWIDTH 16 0
BBX 16 16 0 -2
BITMAP
3018
2418
7E18
C4FF
BC18
3818
301E
7846
BB46
3324
633C
D618
8C18
182C
30C7
C183
ENDCHAR
STARTCHAR 2d40
ENCODING 11584
SWIDTH 362 0
DWIDTH 16 0
BBX 16 16 0 -2
BITMAP
7018
6618
7E18
44FF
CF18
4018
761E
7346
7246
7224
7E3C
7218
F318
BE2C
B8C7
1183
ENDCHAR
STARTCHAR 2d41
ENCODING 11585
SWIDTH 362 0
DWIDTH 16 0
BBX 16 16 0 -2
BITMAP
4330
6630
2420
FF63
267F
2666
26E6
FFA4
2634
261C
2618
6618
661C
4626
C647
8783
ENDCHAR
STARTCHAR 2d42
ENCODING 11586
SWIDTH 362 0
DWIDTH 16 0
BBX 16 16 0 -2
BITMAP
1830
1830
1820
7E63
187F
1866
1AE6
1CA4
1834
181C
7E18
1818
181C
1826
FE47
C183
ENDCHAR
STARTCHAR 2d43
ENCODING 11587
SWIDTH 362 0
DWIDTH 16 0
BBX 16 16 0 -2
BITMAP
1830
1830
FF20
1A63
FF7F
DB66
DAE6
DEA4
FE34
3C1C
3E18
5A18
D81C
9826
1847
1183
ENDCHAR
STARTCHAR 2d44
ENCODING 11588
SWIDTH 362 0
DWIDTH 16 0
BBX 16 16 0 -2
BITMAP
0630
7E30
1820
1863
187F
FF66
18E6
18A4
1834
FF1C
C318
C218
C21C
C226
FE47
C183
ENDCHAR
STARTCHAR 2d45
ENCODING 11589
SWIDTH 362 0
DWIDTH 16 0
BBX 16 16 0 -2
BITMAP
1870
1E60
7E60
1863
1A7F
1866
18A6
FFA4
3834
3C1C
7E18
5A18
D81C
9826
1847
1183
ENDCHAR
STARTCHAR 2d46
ENCODING 11590
SWIDTH 362 0
DWIDTH 16 0
BBX 16 16 0 -2
BITMAP
7030
6030
7F20
C063
C67F
7B66
7AE6
7AA4
FF34
5A1C
5A18
5A18
FF1C
0626
3E47
0D83
ENDCHAR
STARTCHAR 2d47
ENCODING 11591
SWIDTH 362 0
DWIDTH 16 0
BBX 16 16 0 -2
BITMAP
0100
7FFF
0830
0660
03C0
03E0
0C3F
F007
7FFE
1818
1FF8
1FF8
1818
FFFF
0018
0018
ENDCHAR
STARTCHAR 2d48
ENCODING 11592
SWIDTH 362 0
DWIDTH 16 0
BBX 16 16 0 -2
BITMAP
0207
7E06
1836
1816
1806
FF06
1866
1826
1A06
FF06
C2FF
C206
C206
C206
FE06
C206
ENDCHAR
STARTCHAR 2d49
ENCODING 11593
SWIDTH 362 0
DWIDTH 16 0
BBX 16 16 0 -2
BITMAP
7006
607C
7E60
4660
E660
9C7F
1C66
3666
6366
C066
FE66
6246
6246
62C6
7E86
4384
ENDCHAR
STARTCHAR 2d4a
ENCODING 11594
SWIDTH 362 0
DWIDTH 16 0
BBX 16 16 0 -2
BITMAP
20C0
30C0
FEFF
6180
63C0
6CFF
7EEB
65EB
656B
646B
645B
44D3
44B3
CDA3
FC7E
980C
ENDCHAR
STARTCHAR 2d4b
ENCODING 11595
SWIDTH 362 0
DWIDTH 16 0
BBX 16 16 0 -2
BITMAP
2008
3FFC
3008
3FF8
3008
3FF8
0188
1198
1990
09A2
7FFF
0980
1998
318C
C186
0100
ENDCHAR
STARTCHAR 2d4c
ENCODING 11596
SWIDTH 362 0
DWIDTH 16 0
BBX 16 16 0 -2
BITMAP
0060
0840
FCFE
CCC6
C8C6
C96C
CB38
F818
C830
C87F
C8C3
C9C3
FB43
8443
007F
0042
ENDCHAR
STARTCHAR 2d4d
ENCODING 11597
SWIDTH 362 0
DWIDTH 16 0
BBX 16 16 0 -2
BITMAP
0C60
4C40
6F46
6C40
6840
6941
7E7F
E07F
0008
1FFC
1008
1008
1FF8
1008
1008
1008
ENDCHAR
STARTCHAR 2d4e
ENCODING 11598
SWIDTH 362 0
DWIDTH 16 0
BBX 16 16 0 -2
BITMAP
3002
31FE
3000
FC00
3003
3030
7818
7C12
70D7
F0DC
B0D8
B0DC
3197
3313
3670
3020
ENDCHAR
STARTCHAR 2d4f
ENCODING 11599
SWIDTH 362 0
DWIDTH 16 0
BBX 16 16 0 -2
BITMAP
0190
1118
1B34
7FFE
0200
7FFF
0C30
191C
3187
C183
3FFC
0980
1D98
398C
6186
C100
ENDCHAR
STARTCHAR 2d50
ENCODING 11600
SWIDTH 362 0
DWIDTH 16 0
BBX 16 16 0 -2
BITMAP
3040
3020
3033
FC60
3060
3060
78E6
7C96
719C
F398
B398
B58C
318E
31B7
31C3
3080
ENDCHAR
STARTCHAR 2d51
ENCODING 11601
SWIDTH 362 0
DWIDTH 16 0
BBX 16 16 0 -2
BITMAP
3030
3030
3033
FC30
3030
3032
79FE
7C0C
700F
F00C
B08C
B0CC
304C
300C
307C
3018
ENDCHAR
STARTCHAR 2d52
ENCODING 11602
SWIDTH 362 0
DWIDTH 16 0
BBX 16 16 0 -2
BITMAP
3030
31B4
31B2
FD37
333D
3238
7860
7DB0
7222
F1FF
B023
B063
3043
3083
311E
360C
ENDCHAR
STARTCHAR 2d53
ENCODING 11603
SWIDTH 362 0
DWIDTH 16 0
BBX 16 16 0 -2
BITMAP
3084
30FE
3084
FC84
3084
3187
7933
7E30
7030
F3FF
B030
B1B4
31B2
3333
3631
3030
ENDCHAR
STARTCHAR 2d54
ENCODING 11604
SWIDTH 362 0
DWIDTH 16 0
BBX 16 16 0 -2
BITMAP
30C0
30C0
30C3
FD80
310E
329C
78E0
7CA2
7096
F098
B098
B088
308C
30BE
30E3
30C1
ENDCHAR
STARTCHAR 2d55
ENCODING 11605
SWIDTH 362 0
DWIDTH 16 0
BBX 16 16 0 -2
BITMAP
3198
319C
211A
FB19
2318
67FF
7718
7B18
EB18
A338
A334
2334
2326
2363
23C3
2381
ENDCHAR
STARTCHAR 2d56
ENCODING 11606
SWIDTH 362 0
DWIDTH 16 0
BBX 16 16 0 -2
BITMAP
3060
3040
30C2
FFFF
3303
330F
7BCF
7F7B
7333
F33B
B36F
B3C7
3303
3303
33FF
3302
ENDCHAR
STARTCHAR 2d57
ENCODING 11607
SWIDTH 362 0
DWIDTH 16 0
BBX 16 16 0 -2
BITMAP
3030
3030
3078
FC4C
30C6
3187
7B07
7CFC
7000
F106
B1FE
B186
3186
3186
31FE
3102
ENDCHAR
STARTCHAR 2d58
ENCODING 11608
SWIDTH 362 0
DWIDTH 16 0
BBX 16 16 0 -2
BITMAP
300E
30F8
3380
FF0E
3378
3340
7B50
7F53
735C
F358
B358
B34C
324E
3657
3463
3040
ENDCHAR
STARTCHAR 2d59
ENCODING 11609
SWIDTH 362 0
DWIDTH 16 0
BBX 16 16 0 -2
BITMAP
0180
018C
7FFC
0180
1118
FFFF
1018
1018
3FF8
0180
0183
0180
1990
398C
6186
C102
ENDCHAR
STARTCHAR 2d5a
ENCODING 11610
SWIDTH 362 0
DWIDTH 16 0
BBX 16 16 0 -2
BITMAP
60C0
28C0
0BFC
D0CC
53CC
30CD
616D
620F
6C06
0180
0183
0180
1990
398C
6186
C102
ENDCHAR
STARTCHAR 2d5b
ENCODING 11611
SWIDTH 362 0
DWIDTH 16 0
BBX 16 16 0 -2
BITMAP
0C30
0C30
7FFE
0C20
0C20
FFFF
0C10
190C
3187
C187
7FFE
0980
1998
3186
C182
0100
ENDCHAR
STARTCHAR 2d5c
ENCODING 11612
SWIDTH 362 0
DWIDTH 16 0
BBX 16 16 0 -2
BITMAP
3180
3180
31FF
FF00
3306
31B6
79B6
7DB6
77FF
F126
B126
B126
33FF
3006
303C
3008
ENDCHAR
STARTCHAR 2d5d
ENCODING 11613
SWIDTH 362 0
DWIDTH 16 0
BBX 16 16 0 -2
BITMAP
1870
1860
1A60
1843
18FF
18D2
FF90
1810
1830
7E38
1838
182C
186C
F8C6
C183
0301
ENDCHAR
STARTCHAR 2d5e
ENCODING 11614
SWIDTH 362 0
DWIDTH 16 0
BBX 16 16 0 -2
BITMAP
1870
1860
FF60
3643
63FF
FFD2
8090
0310
FF30
6038
7E38
062C
066C
0646
3CC3
0981
ENDCHAR
STARTCHAR 2d5f
ENCODING 11615
SWIDTH 362 0
DWIDTH 16 0
BBX 16 16 0 -2
BITMAP
1C70
1860
1860
1F63
187F
18D2
FF90
1810
7A30
7B38
5938
59AC
99EC
9846
78C3
3181
ENDCHAR
STARTCHAR 2d60
ENCODING 11616
SWIDTH 362 0
DWIDTH 16 0
BBX 16 16 0 -2
BITMAP
3670
3660
3660
F643
B6FF
BFD2
B690
B610
B630
B638
B638
B62C
B7EC
FF46
C2C3
0181
ENDCHAR
STARTCHAR 2d61
ENCODING 11617
SWIDTH 362 0
DWIDTH 16 0
BBX 16 16 0 -2
BITMAP
1C70
7860
5860
7F43
D8FF
98D2
1890
FF10
3430
3438
3438
242C
67EC
6646
C0C3
8181
ENDCHAR
STARTCHAR 2d62
ENCODING 11618
SWIDTH 362 0
DWIDTH 16 0
BBX 16 16 0 -2
BITMAP
6070
6060
6660
C343
82FF
7AD2
6B90
6B10
7A30
6A38
7A38
4A2C
026C
0646
3EC3
0D81
ENDCHAR
STARTCHAR 2d63
ENCODING 11619
SWIDTH 362 0
DWIDTH 16 0
BBX 16 16 0 -2
BITMAP
0060
FCC4
20FE
20C4
7DCC
6F28
4E38
CC38
B86C
18C7
19FF
3286
3086
6086
40FE
8084
ENDCHAR
STARTCHAR 2d64
ENCODING 11620
SWIDTH 362 0
DWIDTH 16 0
BBX 16 16 0 -2
BITMAP
3024
187E
FF66
1866
1066
2347
46C0
FC7F
1B26
3326
663C
C61C
0C1C
1B36
6163
C1C1
ENDCHAR
STARTCHAR 2d65
ENCODING 11621
SWIDTH 362 0
DWIDTH 16 0
BBX 16 16 0 -2
BITMAP
0244
667E
1C64
1E64
6344
D9C7
1880
FFFE
1846
7E24
7E2C
7E38
5E18
DFAC
9847
1183
ENDCHAR
STARTCHAR 2d66
ENCODING 11622
SWIDTH 362 0
DWIDTH 16 0
BBX 16 16 0 -2
BITMAP
081A
3C1A
719A
3198
319A
FD9E
31FE
31AC
358C
FD1D
3317
3223
3041
3001
3FFF
1FFF
ENDCHAR
STARTCHAR 2d67
ENCODING 11623
SWIDTH 362 0
DWIDTH 16 0
BBX 16 16 0 -2
BITMAP
0820
3C60
71FE
3040
30CC
FDF6
3182
30B4
34B4
FCB4
30B4
31B6
3203
3001
3FFF
1FFF
ENDCHAR
STARTCHAR 2d68
ENCODING 11624
SWIDTH 362 0
DWIDTH 16 0
BBX 16 16 0 -2
BITMAP
181E
58F0
5820
7E20
D822
99FE
1A20
FF20
2C22
2DFF
6C20
6C20
6F21
4E21
C43F
801F
ENDCHAR
STARTCHAR 2d69
ENCODING 11625
SWIDTH 362 0
DWIDTH 16 0
BBX 16 16 0 -2
BITMAP
1180
318C
3FFC
4183
FFFF
0861
307F
E03F
01F8
3F00
030E
0300
FFFF
0102
01FE
01FE
ENDCHAR
STARTCHAR 2d6a
ENCODING 11626
SWIDTH 362 0
DWIDTH 16 0
BBX 16 16 0 -2
BITMAP
0418
FED8
D8D8
D8FF
D898
D918
FE18
D8FF
D818
C818
CC3C
CD34
D764
E746
CBC3
0181
ENDCHAR
STARTCHAR 2d6b
ENCODING 11627
SWIDTH 362 0
DWIDTH 16 0
BBX 16 16 0 -2
BITMAP
4002
2FFF
0658
0658
8ED8
D6D8
5658
1658
37D8
2658
6658
E6D8
6F58
6459
605F
204F
ENDCHAR
STARTCHAR 2d6c
ENCODING 11628
SWIDTH 362 0
DWIDTH 16 0
BBX 16 16 0 -2
BITMAP
2002
33FF
1030
0060
8868
48E4
79A2
1323
3220
31FE
6106
E106
6106
6106
61FE
2104
ENDCHAR
STARTCHAR 2d6d
ENCODING 11629
SWIDTH 362 0
DWIDTH 16 0
BBX 16 16 0 -2
BITMAP
2002
33FF
1060
00C6
8BFE
4B06
7B06
13FE
3306
3306
6306
E306
6306
6306
63FE
2302
ENDCHAR
STARTCHAR 2d6e
ENCODING 11630
SWIDTH 362 0
DWIDTH 16 0
BBX 16 16 0 -2
BITMAP
20D8
30CC
1087
0183
8BFE
4846
78C6
11FC
3318
3030
6020
E3FE
6020
6020
6022
27FF
ENDCHAR
STARTCHAR 2d6f
ENCODING 11631
SWIDTH 362 0
DWIDTH 16 0
BBX 16 16 0 -2
BITMAP
2060
3223
13FF
0602
8BFE
4820
7B22
133F
3322
3322
63FE
E002
6002
6006
607E
200C
ENDCHAR
STARTCHAR 2d70
ENCODING 11632
SWIDTH 362 0
DWIDTH 16 0
BBX 16 16 0 -2
BITMAP
2060
3023
13FF
0040
8884
490E
7BF3
1101
3376
3364
6364
E364
6264
6265
6467
2827
ENDCHAR
STARTCHAR 2d71
ENCODING 11633
SWIDTH 362 0
DWIDTH 16 0
BBX 16 16 0 -2
BITMAP
2030
3337
1326
0326
8BFE
4820
7833
1020
3030
3020
6036
E030
6020
6020
6033
2000
ENDCHAR
STARTCHAR 2d72
ENCODING 11634
SWIDTH 362 0
DWIDTH 16 0
BBX 16 16 0 -2
BITMAP
2180
3180
1103
0303
8A03
4A0B
7BFF
136B
33FB
336B
636B
E30B
6003
6003
607E
200C
ENDCHAR
ENDFONT
